<?xml version="1.0" encoding="UTF-8" standalone="no"?>
<!-- Created with Inkscape (http://www.inkscape.org/) -->

<svg
   xmlns:dc="http://purl.org/dc/elements/1.1/"
   xmlns:cc="http://creativecommons.org/ns#"
   xmlns:rdf="http://www.w3.org/1999/02/22-rdf-syntax-ns#"
   xmlns:svg="http://www.w3.org/2000/svg"
   xmlns="http://www.w3.org/2000/svg"
   xmlns:sodipodi="http://sodipodi.sourceforge.net/DTD/sodipodi-0.dtd"
   xmlns:inkscape="http://www.inkscape.org/namespaces/inkscape"
   version="1.1"
   width="892.91339"
   height="442.91336"
   id="svg15631"
   inkscape:version="0.91 r13725"
   sodipodi:docname="Universitatsklinikum_Regensburg_Logo.svg">
  <sodipodi:namedview
     pagecolor="#ffffff"
     bordercolor="#666666"
     borderopacity="1"
     objecttolerance="10"
     gridtolerance="10"
     guidetolerance="10"
     inkscape:pageopacity="0"
     inkscape:pageshadow="2"
     inkscape:window-width="1920"
     inkscape:window-height="1163"
     id="namedview27"
     showgrid="false"
     inkscape:zoom="0.41101411"
     inkscape:cx="446.4567"
     inkscape:cy="416.0972"
     inkscape:window-x="0"
     inkscape:window-y="0"
     inkscape:window-maximized="1"
     inkscape:current-layer="svg15631" />
  <defs
     id="defs15633" />
  <metadata
     id="metadata15636">
    <rdf:RDF>
      <cc:Work
         rdf:about="">
        <dc:format>image/svg+xml</dc:format>
        <dc:type
           rdf:resource="http://purl.org/dc/dcmitype/StillImage" />
        <dc:title />
      </cc:Work>
    </rdf:RDF>
  </metadata>
  <g
     id="g17162"
     transform="translate(-42.498874,-208.14104)">
    <g
       style="fill:#1e7496;fill-opacity:1"
       id="g14565"
       transform="matrix(15.980912,0,0,-15.980912,650.23733,607.78089)">
      <path
         inkscape:connector-curvature="0"
         style="fill:#1e7496;fill-opacity:1;fill-rule:nonzero;stroke:none"
         id="path14567"
         d="m 0,0 0,0.32 0.624,0 0,-1.71 c 0,-0.364 -0.096,-0.639 -0.292,-0.822 -0.195,-0.182 -0.487,-0.274 -0.873,-0.274 -0.146,0 -0.285,0.011 -0.417,0.031 -0.132,0.022 -0.257,0.055 -0.374,0.098 l 0.037,0.505 c 0.107,-0.055 0.217,-0.096 0.33,-0.123 0.112,-0.027 0.221,-0.04 0.329,-0.04 0.193,0 0.341,0.044 0.443,0.134 0.104,0.088 0.155,0.217 0.155,0.384 l 0,0.184 c -0.089,-0.111 -0.187,-0.192 -0.295,-0.245 -0.109,-0.055 -0.231,-0.082 -0.369,-0.082 -0.26,0 -0.47,0.092 -0.631,0.275 -0.16,0.183 -0.241,0.424 -0.241,0.725 0,0.301 0.083,0.546 0.248,0.732 0.166,0.186 0.381,0.279 0.647,0.279 0.139,0 0.265,-0.031 0.376,-0.092 C -0.191,0.218 -0.089,0.125 0,0 m -0.464,-0.134 c -0.122,0 -0.218,-0.046 -0.292,-0.137 -0.074,-0.092 -0.111,-0.212 -0.111,-0.362 0,-0.15 0.037,-0.269 0.111,-0.36 0.074,-0.09 0.17,-0.134 0.292,-0.134 0.121,0 0.219,0.045 0.293,0.135 0.075,0.091 0.113,0.211 0.113,0.359 0,0.149 -0.038,0.269 -0.113,0.361 -0.074,0.09 -0.172,0.138 -0.293,0.138 m -1.267,0.483 -0.035,-0.584 c -0.028,0.013 -0.058,0.021 -0.091,0.027 -0.035,0.005 -0.074,0.008 -0.119,0.008 -0.162,0 -0.283,-0.052 -0.364,-0.156 -0.082,-0.103 -0.123,-0.255 -0.123,-0.456 l 0,-0.843 -0.676,0 0,1.975 0.602,0 0,-0.378 c 0.069,0.146 0.153,0.254 0.251,0.324 0.1,0.07 0.217,0.105 0.352,0.105 0.034,0 0.097,-0.007 0.19,-0.02 0.006,-0.002 0.011,-0.002 0.013,-0.002 m -3.994,-0.029 0.675,0 0,-0.997 c 0,-0.154 0.027,-0.269 0.082,-0.347 0.055,-0.075 0.139,-0.113 0.251,-0.113 0.127,0 0.224,0.051 0.29,0.155 0.065,0.104 0.097,0.256 0.097,0.455 l 0,0.847 0.677,0 0,-1.975 -0.615,0 0,0.37 c -0.076,-0.131 -0.177,-0.231 -0.298,-0.3 -0.122,-0.069 -0.26,-0.103 -0.415,-0.103 -0.243,0 -0.427,0.073 -0.554,0.221 -0.126,0.149 -0.19,0.365 -0.19,0.648 l 0,1.139 z m -2.591,0.904 0.676,0 0,-1.179 c 0.08,0.111 0.172,0.191 0.279,0.245 0.106,0.054 0.23,0.081 0.37,0.081 0.265,0 0.475,-0.091 0.633,-0.274 0.159,-0.183 0.238,-0.429 0.238,-0.737 0,-0.313 -0.082,-0.564 -0.244,-0.757 -0.162,-0.191 -0.374,-0.287 -0.635,-0.287 -0.156,0 -0.295,0.037 -0.417,0.109 -0.122,0.072 -0.22,0.178 -0.297,0.316 l 0,-0.396 -0.603,0 0,2.879 z m 1.113,-1.347 c -0.134,0 -0.24,-0.047 -0.319,-0.142 C -7.6,-0.36 -7.64,-0.489 -7.64,-0.652 c 0,-0.166 0.039,-0.296 0.113,-0.39 0.075,-0.094 0.178,-0.14 0.309,-0.14 0.124,0 0.222,0.046 0.296,0.138 0.073,0.091 0.111,0.214 0.111,0.367 0,0.165 -0.037,0.299 -0.11,0.401 -0.073,0.102 -0.167,0.153 -0.282,0.153 m -1.586,0.392 -0.065,-0.476 c -0.09,0.051 -0.181,0.089 -0.272,0.116 -0.092,0.026 -0.18,0.042 -0.264,0.042 -0.083,0 -0.145,-0.016 -0.191,-0.045 -0.045,-0.03 -0.067,-0.07 -0.067,-0.125 0,-0.07 0.091,-0.13 0.275,-0.179 0.057,-0.017 0.103,-0.029 0.137,-0.04 0.21,-0.063 0.356,-0.138 0.439,-0.229 0.083,-0.09 0.124,-0.213 0.124,-0.368 0,-0.208 -0.081,-0.374 -0.243,-0.494 -0.162,-0.119 -0.386,-0.18 -0.671,-0.18 -0.121,0 -0.24,0.01 -0.358,0.029 -0.118,0.018 -0.234,0.047 -0.348,0.084 l 0.043,0.506 c 0.096,-0.05 0.194,-0.086 0.296,-0.112 0.102,-0.026 0.206,-0.038 0.311,-0.038 0.099,0 0.174,0.013 0.223,0.04 0.05,0.027 0.075,0.068 0.075,0.121 0,0.079 -0.101,0.15 -0.303,0.209 -0.051,0.016 -0.09,0.027 -0.118,0.035 -0.206,0.068 -0.351,0.144 -0.432,0.227 -0.081,0.084 -0.121,0.192 -0.121,0.327 0,0.206 0.081,0.366 0.244,0.48 0.162,0.116 0.391,0.172 0.685,0.172 0.096,0 0.195,-0.009 0.296,-0.026 0.101,-0.017 0.203,-0.042 0.305,-0.076 m -1.918,-0.77 0,-1.154 -0.671,0 0,1.015 c 0,0.155 -0.028,0.271 -0.083,0.345 -0.054,0.076 -0.138,0.113 -0.25,0.113 -0.117,0 -0.211,-0.047 -0.282,-0.142 -0.07,-0.094 -0.106,-0.222 -0.106,-0.382 l 0,-0.949 -0.677,0 0,1.975 0.615,0 0,-0.355 c 0.078,0.132 0.178,0.233 0.3,0.302 0.122,0.069 0.26,0.104 0.414,0.104 0.241,0 0.425,-0.074 0.55,-0.222 0.127,-0.148 0.19,-0.364 0.19,-0.65 m -3.031,0.033 c -0.014,0.132 -0.056,0.236 -0.127,0.313 -0.071,0.075 -0.162,0.113 -0.272,0.113 -0.109,0 -0.197,-0.038 -0.268,-0.113 -0.069,-0.077 -0.112,-0.181 -0.127,-0.313 l 0.794,0 z m 0.598,-0.235 0,-0.164 -1.384,0 c 0.013,-0.129 0.069,-0.228 0.166,-0.298 0.098,-0.069 0.228,-0.105 0.394,-0.105 0.098,0 0.203,0.013 0.312,0.041 0.11,0.028 0.223,0.068 0.339,0.124 l 0,-0.483 c -0.109,-0.041 -0.225,-0.07 -0.344,-0.091 -0.119,-0.02 -0.243,-0.03 -0.373,-0.03 -0.36,0 -0.641,0.094 -0.843,0.285 -0.203,0.19 -0.303,0.454 -0.303,0.791 0,0.308 0.092,0.552 0.279,0.733 0.187,0.18 0.44,0.271 0.756,0.271 0.32,0 0.567,-0.093 0.741,-0.279 0.173,-0.186 0.26,-0.451 0.26,-0.795 M -16.169,0 l 0,0.32 0.623,0 0,-1.71 c 0,-0.364 -0.097,-0.639 -0.292,-0.822 -0.195,-0.182 -0.486,-0.274 -0.873,-0.274 -0.146,0 -0.285,0.011 -0.417,0.031 -0.131,0.022 -0.257,0.055 -0.374,0.098 l 0.038,0.505 c 0.107,-0.055 0.217,-0.096 0.329,-0.123 0.112,-0.027 0.221,-0.04 0.328,-0.04 0.194,0 0.342,0.044 0.444,0.134 0.103,0.088 0.154,0.217 0.154,0.384 l 0,0.184 c -0.088,-0.111 -0.185,-0.192 -0.294,-0.245 -0.109,-0.055 -0.232,-0.082 -0.369,-0.082 -0.26,0 -0.47,0.092 -0.631,0.275 -0.16,0.183 -0.241,0.424 -0.241,0.725 0,0.301 0.082,0.546 0.248,0.732 0.166,0.186 0.381,0.279 0.646,0.279 0.141,0 0.266,-0.031 0.377,-0.092 0.113,-0.061 0.214,-0.154 0.304,-0.279 m -0.465,-0.134 c -0.122,0 -0.219,-0.046 -0.292,-0.137 -0.074,-0.092 -0.111,-0.212 -0.111,-0.362 0,-0.15 0.037,-0.269 0.111,-0.36 0.073,-0.09 0.17,-0.134 0.292,-0.134 0.121,0 0.219,0.045 0.294,0.135 0.075,0.091 0.112,0.211 0.112,0.359 0,0.149 -0.037,0.269 -0.112,0.361 -0.075,0.09 -0.173,0.138 -0.294,0.138 m -1.965,-0.334 c -0.014,0.132 -0.057,0.236 -0.128,0.313 -0.071,0.075 -0.161,0.113 -0.271,0.113 -0.109,0 -0.198,-0.038 -0.268,-0.113 -0.07,-0.077 -0.113,-0.181 -0.128,-0.313 l 0.795,0 z m 0.598,-0.235 0,-0.164 -1.385,0 c 0.013,-0.129 0.069,-0.228 0.166,-0.298 0.098,-0.069 0.23,-0.105 0.395,-0.105 0.098,0 0.202,0.013 0.312,0.041 0.11,0.028 0.223,0.068 0.339,0.124 l 0,-0.483 c -0.11,-0.041 -0.225,-0.07 -0.344,-0.091 -0.119,-0.02 -0.244,-0.03 -0.374,-0.03 -0.359,0 -0.64,0.094 -0.842,0.285 -0.203,0.19 -0.304,0.454 -0.304,0.791 0,0.308 0.093,0.552 0.28,0.733 0.187,0.18 0.438,0.271 0.756,0.271 0.32,0 0.566,-0.093 0.74,-0.279 0.173,-0.186 0.261,-0.451 0.261,-0.795 m -4.445,1.711 1.058,0 c 0.353,0 0.615,-0.056 0.785,-0.171 0.17,-0.115 0.255,-0.289 0.255,-0.521 0,-0.174 -0.044,-0.315 -0.135,-0.426 -0.09,-0.112 -0.22,-0.186 -0.389,-0.223 0.139,-0.051 0.252,-0.197 0.337,-0.436 l 0,-0.003 0.318,-0.883 -0.74,0 -0.234,0.73 c -0.037,0.117 -0.089,0.198 -0.153,0.244 -0.065,0.045 -0.167,0.066 -0.304,0.066 l -0.102,0 0,-1.04 -0.696,0 0,2.663 z m 0.696,-0.468 0,-0.682 0.248,0 c 0.154,0 0.269,0.027 0.346,0.083 0.077,0.056 0.115,0.14 0.115,0.25 0,0.121 -0.043,0.208 -0.129,0.264 -0.085,0.056 -0.221,0.085 -0.405,0.085 l -0.175,0 z m 37.964,4.177 c 0.078,0.134 0.176,0.236 0.296,0.307 0.12,0.07 0.25,0.106 0.395,0.106 0.233,0 0.411,-0.075 0.534,-0.222 0.123,-0.148 0.184,-0.363 0.184,-0.645 l 0,-1.154 -0.667,0 0,1.014 c 0,0.153 -0.025,0.266 -0.076,0.339 -0.049,0.072 -0.128,0.107 -0.234,0.107 -0.109,0 -0.197,-0.044 -0.261,-0.138 C 16.32,4.34 16.287,4.214 16.287,4.056 l 0,-0.947 -0.671,0 0,1.014 c 0,0.153 -0.024,0.266 -0.074,0.339 -0.05,0.072 -0.129,0.107 -0.236,0.107 -0.109,0 -0.196,-0.045 -0.262,-0.138 C 14.979,4.337 14.946,4.213 14.946,4.056 l 0,-0.947 -0.669,0 0,1.973 0.607,0 0,-0.354 c 0.075,0.13 0.172,0.229 0.29,0.298 0.119,0.07 0.249,0.104 0.392,0.104 0.152,0 0.282,-0.036 0.395,-0.106 0.112,-0.071 0.197,-0.173 0.253,-0.307 m -4.522,0.365 0.675,0 0,-0.996 c 0,-0.155 0.027,-0.269 0.082,-0.346 0.056,-0.076 0.138,-0.114 0.251,-0.114 0.127,0 0.224,0.051 0.289,0.155 0.066,0.103 0.098,0.256 0.098,0.454 l 0,0.847 0.677,0 0,-1.973 -0.615,0 0,0.368 C 13.072,3.347 12.972,3.247 12.85,3.177 12.728,3.11 12.591,3.075 12.436,3.075 c -0.243,0 -0.427,0.074 -0.554,0.222 -0.126,0.147 -0.19,0.363 -0.19,0.646 l 0,1.139 z m -2.187,0.904 0.676,0 0,-1.71 0.529,0.806 0.742,0 -0.665,-0.861 0.728,-1.112 -0.802,0 -0.532,1.028 0,-1.028 -0.676,0 0,2.877 z m -1.193,0 0.677,0 0,-0.549 -0.677,0 0,0.549 z m 0,-0.904 0.677,0 0,-1.973 -0.677,0 0,1.973 z m -0.483,-0.819 0,-1.154 -0.672,0 0,1.014 c 0,0.154 -0.028,0.27 -0.082,0.346 C 7.02,4.544 6.937,4.581 6.824,4.581 6.707,4.581 6.613,4.534 6.542,4.438 6.471,4.344 6.437,4.217 6.437,4.057 l 0,-0.948 -0.677,0 0,1.973 0.614,0 0,-0.354 C 6.452,4.86 6.552,4.961 6.675,5.03 6.796,5.099 6.935,5.134 7.088,5.134 7.33,5.134 7.513,5.06 7.639,4.912 7.766,4.764 7.829,4.548 7.829,4.263 m -3.263,1.723 0.678,0 0,-0.549 -0.678,0 0,0.549 z m 0,-0.904 0.678,0 0,-1.973 -0.678,0 0,1.973 z m -1.196,0.904 0.676,0 0,-2.878 -0.676,0 0,2.878 z m -2.295,0 0.675,0 0,-1.71 0.529,0.806 0.742,0 -0.665,-0.861 0.729,-1.112 -0.802,0 -0.533,1.028 0,-1.028 -0.675,0 0,2.877 z M 0.595,5.031 0.529,4.555 C 0.44,4.606 0.349,4.646 0.257,4.672 0.165,4.699 0.078,4.713 -0.006,4.713 c -0.083,0 -0.145,-0.015 -0.192,-0.045 -0.044,-0.029 -0.067,-0.07 -0.067,-0.124 0,-0.07 0.091,-0.13 0.276,-0.181 C 0.067,4.348 0.113,4.335 0.147,4.324 0.357,4.262 0.504,4.187 0.587,4.096 0.67,4.006 0.711,3.884 0.711,3.727 0.711,3.519 0.63,3.354 0.467,3.235 0.305,3.115 0.081,3.055 -0.203,3.055 c -0.121,0 -0.24,0.008 -0.36,0.028 -0.117,0.019 -0.233,0.046 -0.346,0.083 l 0.042,0.506 c 0.095,-0.048 0.194,-0.086 0.296,-0.11 0.102,-0.027 0.206,-0.039 0.312,-0.039 0.098,0 0.173,0.013 0.222,0.04 0.051,0.026 0.075,0.067 0.075,0.121 0,0.079 -0.101,0.15 -0.303,0.21 -0.049,0.015 -0.089,0.026 -0.118,0.034 -0.205,0.069 -0.35,0.144 -0.431,0.228 -0.08,0.082 -0.122,0.191 -0.122,0.325 0,0.207 0.081,0.367 0.244,0.482 0.163,0.114 0.391,0.171 0.686,0.171 C 0.089,5.134 0.19,5.126 0.29,5.109 0.391,5.091 0.493,5.066 0.595,5.031 m -2.294,0.722 0,-0.671 0.483,0 0,-0.488 -0.483,0 0,-0.68 c 0,-0.146 0.025,-0.249 0.071,-0.309 0.047,-0.059 0.129,-0.09 0.244,-0.09 0.016,0 0.037,0.003 0.062,0.008 0.024,0.004 0.061,0.011 0.106,0.023 L -1.204,3.105 C -1.277,3.09 -1.347,3.075 -1.415,3.067 -1.483,3.059 -1.55,3.055 -1.615,3.055 c -0.266,0 -0.46,0.065 -0.579,0.197 -0.12,0.131 -0.18,0.347 -0.18,0.644 l 0,0.698 -0.379,0 0,0.488 0.417,0 0,0.454 0.637,0.217 z m -2.849,0.187 0.469,0 0,-0.506 -0.469,0 0,0.506 z m 0.677,0 0.473,0 0,-0.506 -0.473,0 0,0.506 z m 0.834,-1.799 0,-1.032 -0.587,0 -0.015,0.307 C -3.719,3.303 -3.815,3.219 -3.928,3.165 -4.041,3.113 -4.178,3.087 -4.338,3.087 c -0.199,0 -0.359,0.057 -0.478,0.17 -0.118,0.113 -0.178,0.266 -0.178,0.454 0,0.219 0.087,0.381 0.259,0.488 0.172,0.105 0.437,0.157 0.796,0.157 l 0.264,0 0,0.027 c 0,0.107 -0.04,0.189 -0.123,0.248 C -3.88,4.687 -4,4.717 -4.158,4.717 -4.236,4.717 -4.324,4.703 -4.422,4.675 -4.521,4.648 -4.627,4.607 -4.74,4.555 l -0.012,0.446 c 0.11,0.046 0.229,0.081 0.357,0.103 0.127,0.022 0.269,0.034 0.422,0.034 0.323,0 0.56,-0.081 0.71,-0.241 0.149,-0.16 0.226,-0.413 0.226,-0.756 M -3.789,4.006 c -0.198,0 -0.342,-0.022 -0.429,-0.065 -0.088,-0.042 -0.131,-0.111 -0.131,-0.206 0,-0.069 0.024,-0.126 0.07,-0.166 0.047,-0.043 0.108,-0.065 0.187,-0.065 0.122,0 0.223,0.041 0.3,0.124 0.079,0.081 0.117,0.189 0.117,0.322 l 0,0.056 -0.114,0 z m -1.946,1.747 0,-0.671 0.484,0 0,-0.488 -0.484,0 0,-0.68 c 0,-0.146 0.024,-0.249 0.071,-0.309 0.047,-0.059 0.129,-0.09 0.243,-0.09 0.017,0 0.039,0.003 0.064,0.008 0.024,0.004 0.059,0.011 0.106,0.023 L -5.24,3.105 C -5.312,3.09 -5.382,3.075 -5.451,3.067 -5.519,3.059 -5.585,3.055 -5.651,3.055 c -0.267,0 -0.46,0.065 -0.579,0.197 -0.12,0.131 -0.179,0.347 -0.179,0.644 l 0,0.698 -0.381,0 0,0.488 0.419,0 0,0.454 0.636,0.217 z m -2.053,0.233 0.677,0 0,-0.549 -0.677,0 0,0.549 z m 0,-0.904 0.677,0 0,-1.973 -0.677,0 0,1.973 z M -8.271,5.031 -8.337,4.555 c -0.09,0.051 -0.181,0.091 -0.272,0.117 -0.092,0.027 -0.18,0.041 -0.263,0.041 -0.082,0 -0.146,-0.015 -0.192,-0.045 -0.044,-0.029 -0.067,-0.07 -0.067,-0.124 0,-0.07 0.092,-0.13 0.275,-0.181 0.058,-0.015 0.103,-0.028 0.137,-0.039 0.21,-0.062 0.356,-0.137 0.44,-0.228 0.083,-0.09 0.124,-0.212 0.124,-0.369 0,-0.208 -0.081,-0.373 -0.244,-0.492 -0.162,-0.12 -0.386,-0.18 -0.671,-0.18 -0.12,0 -0.24,0.008 -0.358,0.028 -0.118,0.019 -0.234,0.046 -0.347,0.083 l 0.042,0.506 c 0.096,-0.048 0.194,-0.086 0.296,-0.11 0.103,-0.027 0.206,-0.039 0.311,-0.039 0.1,0 0.173,0.013 0.224,0.04 0.05,0.026 0.074,0.067 0.074,0.121 0,0.079 -0.101,0.15 -0.303,0.21 -0.05,0.015 -0.09,0.026 -0.118,0.034 -0.206,0.069 -0.35,0.144 -0.431,0.228 -0.081,0.082 -0.122,0.191 -0.122,0.325 0,0.207 0.081,0.367 0.244,0.482 0.162,0.114 0.391,0.171 0.686,0.171 0.095,0 0.194,-0.008 0.296,-0.025 0.101,-0.018 0.202,-0.043 0.305,-0.078 m -1.703,0.08 -0.035,-0.582 c -0.028,0.011 -0.059,0.019 -0.092,0.025 -0.034,0.005 -0.074,0.008 -0.119,0.008 -0.161,0 -0.282,-0.051 -0.364,-0.155 -0.082,-0.103 -0.122,-0.256 -0.122,-0.457 l 0,-0.841 -0.677,0 0,1.973 0.603,0 0,-0.377 c 0.069,0.146 0.153,0.254 0.252,0.324 0.098,0.07 0.216,0.105 0.35,0.105 0.035,0 0.099,-0.008 0.191,-0.02 0.007,-0.002 0.011,-0.003 0.013,-0.003 m -2.371,-0.816 c -0.014,0.131 -0.057,0.236 -0.128,0.312 -0.071,0.075 -0.162,0.113 -0.272,0.113 -0.108,0 -0.198,-0.038 -0.267,-0.113 -0.07,-0.076 -0.113,-0.181 -0.128,-0.312 l 0.795,0 z m 0.597,-0.234 0,-0.166 -1.384,0 c 0.013,-0.128 0.069,-0.227 0.166,-0.297 0.098,-0.07 0.229,-0.106 0.394,-0.106 0.099,0 0.203,0.015 0.313,0.042 0.11,0.028 0.222,0.067 0.339,0.124 l 0,-0.483 c -0.11,-0.041 -0.225,-0.071 -0.344,-0.09 -0.119,-0.021 -0.244,-0.03 -0.374,-0.03 -0.36,0 -0.641,0.094 -0.843,0.283 -0.203,0.191 -0.304,0.455 -0.304,0.792 0,0.307 0.094,0.552 0.281,0.733 0.186,0.18 0.438,0.271 0.756,0.271 0.319,0 0.566,-0.094 0.74,-0.279 0.174,-0.187 0.26,-0.451 0.26,-0.794 m -4.405,1.021 0.731,0 0.414,-1.363 0.418,1.363 0.678,0 -0.74,-1.973 -0.762,0 -0.739,1.973 z m -0.971,0.904 0.677,0 0,-0.549 -0.677,0 0,0.549 z m 0,-0.904 0.677,0 0,-1.973 -0.677,0 0,1.973 z m -0.483,-0.819 0,-1.154 -0.671,0 0,1.014 c 0,0.154 -0.027,0.27 -0.082,0.346 -0.055,0.075 -0.138,0.112 -0.251,0.112 -0.117,0 -0.211,-0.047 -0.282,-0.143 -0.07,-0.094 -0.105,-0.221 -0.105,-0.381 l 0,-0.948 -0.677,0 0,1.973 0.614,0 0,-0.354 c 0.078,0.132 0.178,0.233 0.301,0.302 0.122,0.069 0.26,0.104 0.413,0.104 0.241,0 0.425,-0.074 0.551,-0.222 0.126,-0.148 0.189,-0.364 0.189,-0.649 m -4.846,1.508 0.71,0 0,-1.55 c 0,-0.227 0.033,-0.391 0.101,-0.492 0.068,-0.101 0.176,-0.152 0.324,-0.152 0.152,0 0.267,0.055 0.344,0.163 0.078,0.109 0.117,0.27 0.117,0.481 l 0,1.55 0.677,0 0,-1.55 c 0,-0.391 -0.095,-0.686 -0.284,-0.882 -0.19,-0.194 -0.474,-0.292 -0.853,-0.292 -0.376,0 -0.66,0.098 -0.85,0.295 -0.191,0.196 -0.286,0.49 -0.286,0.879 l 0,1.55 z" />
    </g>
    <g
       style="fill:#1e7496;fill-opacity:0.92941176"
       id="g14569"
       transform="matrix(15.980912,0,0,-15.980912,290.91931,329.51326)">
      <path
         inkscape:connector-curvature="0"
         style="fill:#1e7496;fill-opacity:0.92941176;fill-rule:nonzero;stroke:none"
         id="path14571"
         d="m 0,0 2.129,0 0,-3.452 L 4.603,0 6.988,0 4.052,-3.671 7.29,-7.988 l -2.647,0 -2.514,3.704 0,-3.704 L 0,-7.988 0,0 Z" />
    </g>
    <g
       style="fill:#1e7496;fill-opacity:0.92941176"
       id="g14573"
       transform="matrix(15.980912,0,0,-15.980912,401.90035,329.51326)">
      <path
         inkscape:connector-curvature="0"
         style="fill:#1e7496;fill-opacity:0.92941176;fill-rule:nonzero;stroke:none"
         id="path14575"
         d="M 0,0 3.176,0 C 4.233,0 5.018,-0.171 5.528,-0.514 6.04,-0.859 6.295,-1.38 6.295,-2.08 6.295,-2.599 6.161,-3.023 5.89,-3.356 5.62,-3.69 5.231,-3.913 4.722,-4.026 5.141,-4.179 5.478,-4.615 5.733,-5.334 l 0,-0.006 0.956,-2.648 -2.22,0 -0.703,2.186 C 3.653,-5.45 3.501,-5.205 3.306,-5.07 3.11,-4.935 2.807,-4.868 2.395,-4.868 l -0.309,0 0,-3.12 L 0,-7.988 0,0 Z m 2.086,-1.405 0,-2.047 0.749,0 c 0.46,0 0.805,0.082 1.035,0.249 0.231,0.167 0.346,0.418 0.346,0.753 0,0.358 -0.129,0.623 -0.386,0.791 -0.255,0.169 -0.662,0.254 -1.216,0.254 l -0.528,0 z" />
    </g>
    <g
       style="fill:#1e7496;fill-opacity:0.92941176"
       id="g14577"
       transform="matrix(15.980912,0,0,-15.980912,291.4291,255.29791)">
      <path
         inkscape:connector-curvature="0"
         style="fill:#1e7496;fill-opacity:0.92941176;fill-rule:evenodd;stroke:none"
         id="path14579"
         d="m 0,0 0,-12.632 -15.345,0 -0.01,9.069 0.021,-0.131 c -0.011,0.083 -0.016,0.132 -0.016,0.132 0,0 1.045,-2.226 3.308,-2.372 5.329,0.256 5.801,7.708 12.048,8.663 l 0,-2.728 L 0,0 Z" />
    </g>
    <g
       id="g14581"
       transform="matrix(15.980912,0,0,-15.980912,184.94509,329.52605)">
      <path
         inkscape:connector-curvature="0"
         style="fill:#ffffff;fill-opacity:1;fill-rule:nonzero;stroke:none"
         id="path14583"
         d="m 0,0 2.081,0 0,-4.544 c 0,-0.666 0.099,-1.147 0.296,-1.445 0.199,-0.296 0.516,-0.444 0.951,-0.444 0.446,0 0.783,0.16 1.01,0.478 0.227,0.319 0.342,0.79 0.342,1.411 l 0,4.544 1.983,0 0,-4.544 C 6.663,-5.692 6.385,-6.556 5.83,-7.129 5.275,-7.7 4.442,-7.987 3.329,-7.987 2.227,-7.987 1.397,-7.699 0.838,-7.123 0.279,-6.544 0,-5.684 0,-4.544 L 0,0 Z" />
    </g>
  </g>
</svg>
