<?xml version="1.0" encoding="UTF-8" standalone="no"?><!DOCTYPE svg PUBLIC "-//W3C//DTD SVG 1.1//EN" "http://www.w3.org/Graphics/SVG/1.1/DTD/svg11.dtd"><svg width="100%" height="100%" viewBox="0 0 156 57" version="1.1" xmlns="http://www.w3.org/2000/svg" xmlns:xlink="http://www.w3.org/1999/xlink" xml:space="preserve" xmlns:serif="http://www.serif.com/" style="fill-rule:evenodd;clip-rule:evenodd;stroke-linejoin:round;stroke-miterlimit:1.41421;"><g><rect x="0" y="15.053" width="61.262" height="41.613" style="fill:#fff;fill-rule:nonzero;"/><rect x="1.178" y="16.193" width="58.906" height="39.272" style="fill:#074ea2;fill-rule:nonzero;"/><path d="M29.376,24.75l1.243,-0.907l1.243,0.907l-0.473,-1.467l1.262,-0.907l-1.556,0l-0.476,-1.485l-0.477,1.486l-1.555,-0.001l1.262,0.907l-0.473,1.467Z" style="fill:#fff200;fill-rule:nonzero;"/><path d="M22.943,26.478l1.243,-0.907l1.242,0.907l-0.472,-1.467l1.262,-0.907l-1.556,0l-0.477,-1.486l-0.476,1.488l-1.555,-0.002l1.261,0.907l-0.472,1.467Z" style="fill:#fff200;fill-rule:nonzero;"/><path d="M19.479,27.335l-0.476,1.488l-1.555,-0.002l1.262,0.908l-0.473,1.466l1.242,-0.907l1.244,0.907l-0.474,-1.466l1.262,-0.908l-1.555,0l-0.477,-1.486Z" style="fill:#fff200;fill-rule:nonzero;"/><path d="M17.753,36.713l1.242,0.907l-0.472,-1.467l1.262,-0.907l-1.556,0l-0.476,-1.487l-0.476,1.49l-1.557,-0.003l1.263,0.907l-0.473,1.467l1.243,-0.907Z" style="fill:#fff200;fill-rule:nonzero;"/><path d="M19.956,41.69l-0.477,-1.487l-0.476,1.488l-1.555,-0.001l1.262,0.907l-0.473,1.467l1.242,-0.909l1.244,0.909l-0.474,-1.467l1.262,-0.907l-1.555,0Z" style="fill:#fff200;fill-rule:nonzero;"/><path d="M24.671,46.405l-0.476,-1.485l-0.475,1.487l-1.557,-0.002l1.262,0.907l-0.472,1.467l1.243,-0.907l1.242,0.907l-0.472,-1.467l1.262,-0.907l-1.557,0Z" style="fill:#fff200;fill-rule:nonzero;"/><path d="M31.096,48.114l-0.477,-1.487l-0.475,1.489l-1.556,-0.002l1.261,0.907l-0.472,1.467l1.243,-0.907l1.242,0.907l-0.473,-1.467l1.263,-0.907l-1.556,0Z" style="fill:#fff200;fill-rule:nonzero;"/><path d="M37.52,46.405l-0.475,-1.485l-0.477,1.487l-1.555,-0.002l1.261,0.907l-0.472,1.467l1.243,-0.907l1.243,0.907l-0.474,-1.467l1.262,-0.907l-1.556,0Z" style="fill:#fff200;fill-rule:nonzero;"/><path d="M42.237,41.69l-0.477,-1.487l-0.477,1.488l-1.554,-0.001l1.262,0.907l-0.474,1.467l1.243,-0.909l1.243,0.909l-0.474,-1.467l1.263,-0.907l-1.555,0Z" style="fill:#fff200;fill-rule:nonzero;"/><path d="M45.501,35.228l-1.557,0l-0.477,-1.487l-0.475,1.488l-1.556,-0.001l1.262,0.907l-0.472,1.467l1.241,-0.909l1.243,0.909l-0.472,-1.467l1.263,-0.907Z" style="fill:#fff200;fill-rule:nonzero;"/><path d="M40.517,31.176l1.243,-0.907l1.243,0.907l-0.474,-1.467l1.263,-0.905l-1.555,0l-0.477,-1.487l-0.477,1.488l-1.554,-0.001l1.262,0.905l-0.474,1.467Z" style="fill:#fff200;fill-rule:nonzero;"/><path d="M37.062,22.619l-0.475,1.488l-1.556,-0.003l1.261,0.909l-0.473,1.467l1.245,-0.909l1.242,0.909l-0.473,-1.467l1.263,-0.909l-1.558,0l-0.476,-1.485Z" style="fill:#fff200;fill-rule:nonzero;"/><path d="M71.982,6.051l-3.997,0l0,-5.525l3.997,0l0,1.068l-2.579,0l0,0.954l2.393,0l0,1.069l-2.393,0l0,1.366l2.579,0l0,1.068Z" style="fill:#231f20;fill-rule:nonzero;"/><path d="M77.254,6.051l-1.339,0l0,-0.46c-0.247,0.188 -0.473,0.331 -0.678,0.429c-0.205,0.098 -0.45,0.147 -0.734,0.147c-0.459,0 -0.814,-0.133 -1.062,-0.398c-0.248,-0.265 -0.372,-0.655 -0.372,-1.173l0,-2.712l1.34,0l0,2.067c0,0.211 0.007,0.385 0.019,0.525c0.014,0.14 0.046,0.256 0.095,0.347c0.047,0.092 0.118,0.158 0.214,0.2c0.095,0.043 0.228,0.063 0.398,0.063c0.115,0 0.241,-0.02 0.379,-0.063c0.139,-0.042 0.273,-0.104 0.401,-0.186l0,-2.953l1.339,0l0,4.167Z" style="fill:#231f20;fill-rule:nonzero;"/><path d="M81.537,3.157l-0.118,0c-0.057,-0.02 -0.149,-0.034 -0.275,-0.045c-0.126,-0.01 -0.23,-0.015 -0.314,-0.015c-0.191,0 -0.359,0.013 -0.504,0.037c-0.146,0.026 -0.302,0.068 -0.47,0.126l0,2.791l-1.34,0l0,-4.167l1.34,0l0,0.613c0.294,-0.253 0.549,-0.42 0.767,-0.503c0.216,-0.083 0.417,-0.125 0.599,-0.125c0.047,0 0.1,0.002 0.159,0.004c0.06,0.003 0.112,0.006 0.156,0.011l0,1.273Z" style="fill:#231f20;fill-rule:nonzero;"/><path d="M84.91,4.983c0.087,-0.106 0.151,-0.234 0.194,-0.385c0.044,-0.149 0.066,-0.356 0.066,-0.621c0,-0.245 -0.023,-0.45 -0.067,-0.616c-0.045,-0.166 -0.106,-0.298 -0.185,-0.398c-0.081,-0.1 -0.175,-0.172 -0.287,-0.214c-0.111,-0.042 -0.231,-0.064 -0.36,-0.064c-0.128,0 -0.243,0.018 -0.343,0.053c-0.1,0.034 -0.196,0.103 -0.288,0.207c-0.081,0.097 -0.146,0.229 -0.194,0.397c-0.049,0.168 -0.072,0.38 -0.072,0.635c0,0.228 0.02,0.425 0.062,0.592c0.042,0.167 0.105,0.301 0.186,0.402c0.079,0.097 0.173,0.167 0.284,0.212c0.11,0.044 0.235,0.067 0.377,0.067c0.121,0 0.236,-0.021 0.346,-0.062c0.111,-0.04 0.204,-0.109 0.281,-0.205Zm1.643,-1.014c0,0.686 -0.199,1.226 -0.598,1.62c-0.4,0.395 -0.961,0.592 -1.684,0.592c-0.722,0 -1.283,-0.197 -1.683,-0.592c-0.399,-0.394 -0.599,-0.934 -0.599,-1.62c0,-0.69 0.201,-1.231 0.603,-1.625c0.403,-0.393 0.962,-0.59 1.679,-0.59c0.728,0 1.29,0.198 1.687,0.594c0.397,0.396 0.595,0.937 0.595,1.621Z" style="fill:#231f20;fill-rule:nonzero;"/><path d="M90.484,3.938c0,-0.405 -0.069,-0.699 -0.208,-0.882c-0.138,-0.182 -0.356,-0.274 -0.655,-0.274c-0.126,0 -0.255,0.019 -0.389,0.057c-0.133,0.038 -0.26,0.094 -0.381,0.165l0,2.094c0.089,0.034 0.184,0.057 0.285,0.067c0.101,0.009 0.201,0.014 0.3,0.014c0.353,0 0.615,-0.103 0.788,-0.309c0.173,-0.206 0.26,-0.517 0.26,-0.932Zm1.377,-0.028c0,0.344 -0.053,0.657 -0.158,0.939c-0.105,0.282 -0.242,0.515 -0.413,0.697c-0.178,0.194 -0.379,0.339 -0.605,0.439c-0.224,0.099 -0.465,0.148 -0.723,0.148c-0.237,0 -0.438,-0.025 -0.603,-0.076c-0.166,-0.051 -0.335,-0.122 -0.508,-0.214l0,1.738l-1.34,0l0,-5.697l1.34,0l0,0.434c0.205,-0.163 0.414,-0.295 0.628,-0.397c0.214,-0.101 0.46,-0.152 0.739,-0.152c0.52,0 0.923,0.191 1.21,0.571c0.288,0.381 0.433,0.905 0.433,1.57Z" style="fill:#231f20;fill-rule:nonzero;"/><path d="M96.236,1.291l-1.102,0l0,-1.014l1.102,0l0,1.014Zm-0.887,3.67l0,-0.866c-0.18,0.016 -0.376,0.035 -0.586,0.062c-0.211,0.025 -0.37,0.055 -0.479,0.091c-0.133,0.042 -0.236,0.102 -0.306,0.182c-0.07,0.08 -0.105,0.186 -0.105,0.317c0,0.086 0.006,0.156 0.021,0.211c0.016,0.054 0.053,0.106 0.111,0.155c0.058,0.05 0.125,0.086 0.205,0.109c0.079,0.024 0.203,0.035 0.371,0.035c0.133,0 0.269,-0.027 0.407,-0.082c0.137,-0.053 0.258,-0.125 0.361,-0.214Zm-1.105,-3.67l-1.103,0l0,-1.014l1.103,0l0,1.014Zm1.105,4.319c-0.072,0.055 -0.161,0.12 -0.267,0.196c-0.107,0.077 -0.206,0.138 -0.3,0.182c-0.132,0.059 -0.268,0.103 -0.408,0.132c-0.142,0.028 -0.296,0.043 -0.464,0.043c-0.397,0 -0.728,-0.122 -0.995,-0.368c-0.267,-0.245 -0.401,-0.557 -0.401,-0.939c0,-0.304 0.068,-0.553 0.204,-0.745c0.136,-0.193 0.329,-0.346 0.579,-0.457c0.248,-0.111 0.554,-0.191 0.92,-0.237c0.367,-0.047 0.746,-0.082 1.14,-0.104l0,-0.022c0,-0.231 -0.095,-0.39 -0.282,-0.478c-0.189,-0.087 -0.466,-0.131 -0.831,-0.131c-0.221,0 -0.456,0.039 -0.705,0.116c-0.25,0.079 -0.43,0.139 -0.538,0.181l-0.123,0l0,-1.006c0.141,-0.037 0.371,-0.081 0.688,-0.132c0.318,-0.05 0.637,-0.076 0.956,-0.076c0.759,0 1.308,0.117 1.646,0.351c0.337,0.234 0.506,0.6 0.506,1.1l0,2.835l-1.325,0l0,-0.441Z" style="fill:#231f20;fill-rule:nonzero;"/><path d="M99.242,6.051l-1.34,0l0,-4.167l1.34,0l0,4.167Zm0.037,-4.76l-1.414,0l0,-1.014l1.414,0l0,1.014Z" style="fill:#231f20;fill-rule:nonzero;"/><path d="M104.122,4.73c0,0.431 -0.193,0.777 -0.579,1.041c-0.386,0.264 -0.914,0.396 -1.585,0.396c-0.371,0 -0.707,-0.036 -1.009,-0.105c-0.302,-0.068 -0.545,-0.145 -0.727,-0.229l0,-1.099l0.122,0c0.067,0.047 0.144,0.099 0.232,0.154c0.088,0.056 0.212,0.115 0.373,0.18c0.139,0.057 0.295,0.105 0.471,0.146c0.176,0.041 0.364,0.062 0.564,0.062c0.262,0 0.456,-0.029 0.583,-0.088c0.126,-0.058 0.189,-0.144 0.189,-0.258c0,-0.1 -0.037,-0.175 -0.111,-0.22c-0.075,-0.046 -0.215,-0.089 -0.423,-0.132c-0.099,-0.022 -0.234,-0.046 -0.403,-0.073c-0.17,-0.025 -0.323,-0.057 -0.462,-0.094c-0.378,-0.099 -0.659,-0.253 -0.842,-0.462c-0.183,-0.209 -0.275,-0.469 -0.275,-0.781c0,-0.401 0.19,-0.734 0.57,-1c0.379,-0.266 0.898,-0.399 1.556,-0.399c0.313,0 0.611,0.031 0.897,0.095c0.286,0.062 0.509,0.13 0.67,0.202l0,1.054l-0.116,0c-0.198,-0.136 -0.423,-0.247 -0.676,-0.332c-0.254,-0.086 -0.511,-0.128 -0.771,-0.128c-0.215,0 -0.396,0.029 -0.544,0.089c-0.146,0.059 -0.22,0.143 -0.22,0.252c0,0.099 0.034,0.174 0.1,0.226c0.066,0.052 0.224,0.105 0.472,0.156c0.136,0.028 0.282,0.054 0.439,0.08c0.157,0.026 0.315,0.059 0.473,0.098c0.351,0.092 0.611,0.236 0.779,0.433c0.169,0.196 0.253,0.442 0.253,0.736Z" style="fill:#231f20;fill-rule:nonzero;"/><path d="M107.18,6.163c-0.364,0 -0.697,-0.043 -0.996,-0.13c-0.301,-0.087 -0.563,-0.22 -0.786,-0.401c-0.22,-0.18 -0.39,-0.408 -0.511,-0.683c-0.122,-0.275 -0.183,-0.596 -0.183,-0.965c0,-0.388 0.066,-0.724 0.195,-1.005c0.13,-0.282 0.311,-0.517 0.544,-0.702c0.225,-0.175 0.485,-0.304 0.78,-0.386c0.294,-0.081 0.599,-0.122 0.916,-0.122c0.284,0 0.547,0.031 0.787,0.093c0.239,0.061 0.464,0.142 0.672,0.241l0,1.139l-0.19,0c-0.052,-0.044 -0.114,-0.096 -0.187,-0.156c-0.073,-0.059 -0.162,-0.117 -0.269,-0.174c-0.1,-0.054 -0.212,-0.1 -0.333,-0.136c-0.121,-0.035 -0.262,-0.054 -0.423,-0.054c-0.355,0 -0.629,0.113 -0.82,0.34c-0.191,0.227 -0.287,0.534 -0.287,0.922c0,0.401 0.098,0.705 0.294,0.913c0.197,0.208 0.475,0.312 0.836,0.312c0.168,0 0.319,-0.019 0.454,-0.058c0.135,-0.038 0.246,-0.083 0.335,-0.135c0.084,-0.05 0.158,-0.101 0.223,-0.156c0.064,-0.054 0.123,-0.108 0.177,-0.159l0.19,0l0,1.138c-0.211,0.1 -0.431,0.178 -0.659,0.237c-0.229,0.057 -0.482,0.087 -0.759,0.087Z" style="fill:#231f20;fill-rule:nonzero;"/><path d="M113.666,6.051l-1.339,0l0,-2.067c0,-0.168 -0.009,-0.335 -0.026,-0.503c-0.018,-0.166 -0.047,-0.289 -0.089,-0.369c-0.05,-0.091 -0.122,-0.158 -0.218,-0.2c-0.095,-0.042 -0.227,-0.063 -0.398,-0.063c-0.121,0 -0.244,0.02 -0.369,0.059c-0.125,0.04 -0.261,0.103 -0.407,0.189l0,2.954l-1.339,0l0,-5.774l1.339,0l0,2.067c0.238,-0.185 0.465,-0.328 0.684,-0.426c0.219,-0.099 0.461,-0.149 0.728,-0.149c0.45,0 0.801,0.131 1.054,0.394c0.254,0.261 0.38,0.654 0.38,1.175l0,2.713Z" style="fill:#231f20;fill-rule:nonzero;"/><path d="M117.67,3.431c-0.007,-0.279 -0.076,-0.489 -0.207,-0.631c-0.132,-0.14 -0.336,-0.211 -0.612,-0.211c-0.258,0 -0.47,0.067 -0.635,0.201c-0.166,0.133 -0.259,0.347 -0.278,0.641l1.732,0Zm1.329,0.783l-3.058,0c0.02,0.327 0.144,0.577 0.373,0.75c0.229,0.173 0.566,0.26 1.011,0.26c0.282,0 0.556,-0.051 0.821,-0.152c0.264,-0.102 0.473,-0.21 0.626,-0.327l0.149,0l0,1.073c-0.302,0.121 -0.586,0.209 -0.854,0.263c-0.267,0.054 -0.562,0.082 -0.886,0.082c-0.837,0 -1.478,-0.188 -1.923,-0.565c-0.445,-0.376 -0.668,-0.911 -0.668,-1.606c0,-0.688 0.211,-1.233 0.633,-1.635c0.422,-0.402 1,-0.603 1.735,-0.603c0.678,0 1.188,0.171 1.528,0.514c0.342,0.343 0.513,0.836 0.513,1.479l0,0.467Z" style="fill:#231f20;fill-rule:nonzero;"/><path d="M127.452,4.051c0,0.683 -0.208,1.206 -0.623,1.57c-0.416,0.364 -1.028,0.546 -1.837,0.546c-0.809,0 -1.421,-0.182 -1.835,-0.546c-0.415,-0.364 -0.622,-0.886 -0.622,-1.566l0,-3.529l1.433,0l0,3.447c0,0.384 0.08,0.669 0.241,0.858c0.161,0.187 0.422,0.282 0.783,0.282c0.357,0 0.616,-0.091 0.781,-0.272c0.165,-0.18 0.247,-0.469 0.247,-0.868l0,-3.447l1.432,0l0,3.525Z" style="fill:#231f20;fill-rule:nonzero;"/><path d="M132.896,6.051l-1.339,0l0,-2.067c0,-0.168 -0.009,-0.335 -0.027,-0.503c-0.017,-0.166 -0.047,-0.289 -0.089,-0.369c-0.049,-0.091 -0.122,-0.158 -0.217,-0.2c-0.095,-0.042 -0.228,-0.063 -0.399,-0.063c-0.122,0 -0.245,0.02 -0.37,0.059c-0.125,0.04 -0.26,0.103 -0.405,0.189l0,2.954l-1.34,0l0,-4.167l1.34,0l0,0.46c0.237,-0.185 0.465,-0.328 0.683,-0.426c0.218,-0.099 0.461,-0.149 0.729,-0.149c0.449,0 0.801,0.131 1.054,0.394c0.254,0.261 0.38,0.654 0.38,1.175l0,2.713Z" style="fill:#231f20;fill-rule:nonzero;"/><path d="M135.464,6.051l-1.34,0l0,-4.167l1.34,0l0,4.167Zm0.037,-4.76l-1.414,0l0,-1.014l1.414,0l0,1.014Z" style="fill:#231f20;fill-rule:nonzero;"/><path d="M139.338,4.983c0.087,-0.106 0.151,-0.234 0.194,-0.385c0.044,-0.149 0.066,-0.356 0.066,-0.621c0,-0.245 -0.023,-0.45 -0.067,-0.616c-0.045,-0.166 -0.106,-0.298 -0.185,-0.398c-0.08,-0.1 -0.175,-0.172 -0.286,-0.214c-0.112,-0.042 -0.232,-0.064 -0.361,-0.064c-0.128,0 -0.243,0.018 -0.343,0.053c-0.1,0.034 -0.196,0.103 -0.288,0.207c-0.081,0.097 -0.146,0.229 -0.194,0.397c-0.049,0.168 -0.072,0.38 -0.072,0.635c0,0.228 0.02,0.425 0.062,0.592c0.042,0.167 0.105,0.301 0.186,0.402c0.079,0.097 0.174,0.167 0.284,0.212c0.11,0.044 0.235,0.067 0.377,0.067c0.121,0 0.236,-0.021 0.347,-0.062c0.11,-0.04 0.203,-0.109 0.28,-0.205Zm1.643,-1.014c0,0.686 -0.199,1.226 -0.598,1.62c-0.4,0.395 -0.961,0.592 -1.684,0.592c-0.721,0 -1.283,-0.197 -1.682,-0.592c-0.4,-0.394 -0.6,-0.934 -0.6,-1.62c0,-0.69 0.201,-1.231 0.604,-1.625c0.402,-0.393 0.961,-0.59 1.678,-0.59c0.728,0 1.29,0.198 1.687,0.594c0.397,0.396 0.595,0.937 0.595,1.621Z" style="fill:#231f20;fill-rule:nonzero;"/><path d="M146.125,6.051l-1.339,0l0,-2.067c0,-0.168 -0.009,-0.335 -0.026,-0.503c-0.018,-0.166 -0.047,-0.289 -0.089,-0.369c-0.05,-0.091 -0.122,-0.158 -0.218,-0.2c-0.095,-0.042 -0.227,-0.063 -0.398,-0.063c-0.121,0 -0.244,0.02 -0.369,0.059c-0.125,0.04 -0.261,0.103 -0.407,0.189l0,2.954l-1.34,0l0,-4.167l1.34,0l0,0.46c0.238,-0.185 0.465,-0.328 0.684,-0.426c0.219,-0.099 0.461,-0.149 0.728,-0.149c0.45,0 0.801,0.131 1.054,0.394c0.254,0.261 0.38,0.654 0.38,1.175l0,2.713Z" style="fill:#231f20;fill-rule:nonzero;"/><path d="M71.982,15.171l-3.997,0l0,-5.525l3.997,0l0,1.068l-2.579,0l0,0.954l2.393,0l0,1.069l-2.393,0l0,1.366l2.579,0l0,1.068Z" style="fill:#231f20;fill-rule:nonzero;"/><path d="M77.299,11.004l-1.607,4.167l-1.514,0l-1.595,-4.167l1.41,0l0.968,2.869l0.955,-2.869l1.383,0Z" style="fill:#231f20;fill-rule:nonzero;"/><path d="M81.062,12.277l-0.118,0c-0.057,-0.02 -0.149,-0.034 -0.274,-0.045c-0.126,-0.01 -0.231,-0.015 -0.315,-0.015c-0.19,0 -0.358,0.013 -0.504,0.037c-0.145,0.026 -0.302,0.068 -0.47,0.126l0,2.791l-1.339,0l0,-4.167l1.339,0l0,0.613c0.294,-0.253 0.549,-0.42 0.767,-0.503c0.217,-0.083 0.417,-0.125 0.6,-0.125c0.047,0 0.099,0.002 0.159,0.004c0.059,0.003 0.111,0.007 0.155,0.011l0,1.273Z" style="fill:#231f20;fill-rule:nonzero;"/><path d="M84.435,14.103c0.087,-0.106 0.152,-0.234 0.194,-0.385c0.044,-0.149 0.066,-0.356 0.066,-0.621c0,-0.245 -0.023,-0.45 -0.067,-0.616c-0.044,-0.166 -0.106,-0.298 -0.185,-0.398c-0.08,-0.1 -0.175,-0.172 -0.286,-0.214c-0.112,-0.042 -0.232,-0.064 -0.361,-0.064c-0.127,0 -0.243,0.018 -0.342,0.053c-0.101,0.034 -0.197,0.103 -0.288,0.207c-0.081,0.097 -0.147,0.229 -0.195,0.397c-0.049,0.168 -0.072,0.38 -0.072,0.635c0,0.228 0.021,0.425 0.063,0.592c0.041,0.167 0.104,0.301 0.185,0.402c0.079,0.097 0.174,0.167 0.284,0.212c0.111,0.044 0.236,0.067 0.377,0.067c0.121,0 0.237,-0.021 0.347,-0.062c0.11,-0.04 0.203,-0.109 0.28,-0.205Zm1.644,-1.014c0,0.686 -0.2,1.226 -0.599,1.62c-0.399,0.395 -0.961,0.592 -1.684,0.592c-0.721,0 -1.283,-0.197 -1.682,-0.592c-0.4,-0.394 -0.6,-0.934 -0.6,-1.62c0,-0.69 0.201,-1.231 0.604,-1.625c0.402,-0.393 0.962,-0.589 1.678,-0.589c0.728,0 1.291,0.197 1.687,0.593c0.397,0.396 0.596,0.937 0.596,1.621Z" style="fill:#231f20;fill-rule:nonzero;"/><path d="M90.009,13.058c0,-0.405 -0.069,-0.699 -0.208,-0.882c-0.137,-0.182 -0.356,-0.274 -0.655,-0.274c-0.126,0 -0.255,0.019 -0.389,0.057c-0.132,0.039 -0.259,0.094 -0.38,0.166l0,2.093c0.088,0.035 0.183,0.057 0.285,0.067c0.1,0.009 0.201,0.014 0.3,0.014c0.352,0 0.615,-0.103 0.788,-0.309c0.172,-0.206 0.259,-0.517 0.259,-0.932Zm1.377,-0.028c0,0.345 -0.052,0.657 -0.158,0.939c-0.104,0.282 -0.242,0.515 -0.413,0.697c-0.178,0.194 -0.379,0.339 -0.604,0.439c-0.225,0.099 -0.465,0.148 -0.723,0.148c-0.237,0 -0.439,-0.025 -0.604,-0.076c-0.166,-0.051 -0.335,-0.122 -0.507,-0.214l0,1.738l-1.34,0l0,-5.697l1.34,0l0,0.434c0.205,-0.163 0.414,-0.295 0.627,-0.397c0.214,-0.101 0.46,-0.152 0.74,-0.152c0.519,0 0.923,0.191 1.21,0.572c0.288,0.38 0.432,0.904 0.432,1.569Z" style="fill:#231f20;fill-rule:nonzero;"/><path d="M95.973,13.85c0,0.431 -0.193,0.778 -0.579,1.041c-0.386,0.264 -0.914,0.396 -1.585,0.396c-0.371,0 -0.707,-0.036 -1.009,-0.105c-0.301,-0.068 -0.545,-0.145 -0.727,-0.229l0,-1.099l0.122,0c0.067,0.047 0.144,0.099 0.232,0.154c0.088,0.056 0.212,0.116 0.373,0.18c0.139,0.057 0.295,0.105 0.471,0.146c0.176,0.042 0.364,0.062 0.565,0.062c0.261,0 0.456,-0.029 0.583,-0.088c0.126,-0.057 0.188,-0.143 0.188,-0.258c0,-0.1 -0.037,-0.174 -0.111,-0.22c-0.075,-0.046 -0.215,-0.089 -0.423,-0.132c-0.099,-0.022 -0.234,-0.046 -0.403,-0.072c-0.169,-0.026 -0.323,-0.058 -0.461,-0.095c-0.379,-0.099 -0.66,-0.253 -0.843,-0.462c-0.183,-0.209 -0.275,-0.469 -0.275,-0.781c0,-0.401 0.19,-0.734 0.57,-1c0.38,-0.266 0.898,-0.399 1.556,-0.399c0.313,0 0.611,0.032 0.897,0.095c0.286,0.062 0.509,0.13 0.67,0.202l0,1.054l-0.115,0c-0.199,-0.136 -0.424,-0.247 -0.677,-0.332c-0.254,-0.086 -0.511,-0.128 -0.771,-0.128c-0.215,0 -0.396,0.029 -0.544,0.089c-0.146,0.059 -0.22,0.143 -0.22,0.252c0,0.099 0.034,0.175 0.1,0.226c0.067,0.052 0.224,0.105 0.472,0.156c0.136,0.028 0.282,0.054 0.439,0.08c0.158,0.026 0.315,0.059 0.473,0.098c0.352,0.092 0.611,0.237 0.779,0.433c0.169,0.196 0.253,0.442 0.253,0.736Z" style="fill:#231f20;fill-rule:nonzero;"/><path d="M101.284,15.171l-1.556,0l-1.168,-1.812l-0.36,0.444l0,1.368l-1.34,0l0,-5.774l1.34,0l0,3.444l1.434,-1.837l1.542,0l-1.498,1.796l1.606,2.371Z" style="fill:#231f20;fill-rule:nonzero;"/><path d="M104.482,14.082l0,-0.867c-0.18,0.016 -0.376,0.036 -0.585,0.062c-0.211,0.025 -0.371,0.056 -0.48,0.091c-0.133,0.042 -0.235,0.102 -0.306,0.182c-0.07,0.08 -0.105,0.186 -0.105,0.317c0,0.086 0.007,0.156 0.021,0.211c0.016,0.054 0.053,0.106 0.112,0.155c0.057,0.05 0.125,0.086 0.204,0.109c0.079,0.024 0.203,0.036 0.371,0.036c0.134,0 0.269,-0.028 0.407,-0.082c0.137,-0.054 0.258,-0.125 0.361,-0.214Zm0.713,-5.13l0,0.074l-1.306,1.385l-0.913,0l0.917,-1.459l1.302,0Zm-0.713,5.778c-0.072,0.055 -0.161,0.12 -0.267,0.196c-0.107,0.077 -0.206,0.138 -0.3,0.182c-0.132,0.06 -0.268,0.103 -0.408,0.132c-0.142,0.028 -0.296,0.043 -0.464,0.043c-0.396,0 -0.728,-0.122 -0.995,-0.367c-0.267,-0.245 -0.401,-0.558 -0.401,-0.94c0,-0.304 0.068,-0.553 0.205,-0.745c0.135,-0.193 0.329,-0.346 0.579,-0.457c0.247,-0.111 0.553,-0.191 0.92,-0.237c0.366,-0.047 0.746,-0.082 1.139,-0.104l0,-0.022c0,-0.231 -0.094,-0.39 -0.282,-0.478c-0.188,-0.087 -0.466,-0.131 -0.831,-0.131c-0.221,0 -0.456,0.039 -0.705,0.116c-0.25,0.079 -0.43,0.139 -0.538,0.181l-0.123,0l0,-1.006c0.141,-0.037 0.371,-0.081 0.688,-0.132c0.319,-0.05 0.637,-0.076 0.956,-0.076c0.759,0 1.308,0.118 1.646,0.351c0.338,0.234 0.507,0.6 0.507,1.1l0,2.835l-1.326,0l0,-0.441Z" style="fill:#231f20;fill-rule:nonzero;"/><path d="M113.785,15.171l-1.34,0l0,-0.46c-0.247,0.188 -0.472,0.332 -0.677,0.429c-0.205,0.098 -0.451,0.147 -0.735,0.147c-0.459,0 -0.813,-0.133 -1.061,-0.398c-0.248,-0.264 -0.372,-0.655 -0.372,-1.173l0,-2.712l1.339,0l0,2.067c0,0.211 0.007,0.386 0.02,0.525c0.014,0.14 0.046,0.256 0.095,0.347c0.047,0.092 0.118,0.158 0.214,0.2c0.094,0.043 0.228,0.064 0.398,0.064c0.114,0 0.24,-0.021 0.379,-0.064c0.139,-0.042 0.272,-0.103 0.4,-0.185l0,-2.954l1.34,0l0,4.167Z" style="fill:#231f20;fill-rule:nonzero;"/><path d="M119.232,15.171l-1.338,0l0,-2.067c0,-0.168 -0.009,-0.335 -0.027,-0.503c-0.017,-0.166 -0.047,-0.289 -0.089,-0.369c-0.049,-0.091 -0.122,-0.158 -0.217,-0.2c-0.095,-0.042 -0.228,-0.063 -0.399,-0.063c-0.121,0 -0.244,0.02 -0.369,0.059c-0.125,0.04 -0.261,0.103 -0.406,0.189l0,2.954l-1.34,0l0,-4.167l1.34,0l0,0.46c0.237,-0.185 0.465,-0.328 0.683,-0.426c0.219,-0.099 0.461,-0.149 0.729,-0.149c0.449,0 0.801,0.131 1.054,0.394c0.253,0.261 0.379,0.654 0.379,1.175l0,2.713Z" style="fill:#231f20;fill-rule:nonzero;"/><path d="M121.801,15.171l-1.34,0l0,-4.167l1.34,0l0,4.167Zm0.037,-4.76l-1.414,0l0,-1.014l1.414,0l0,1.014Z" style="fill:#231f20;fill-rule:nonzero;"/><path d="M125.834,12.551c-0.007,-0.279 -0.076,-0.489 -0.207,-0.63c-0.132,-0.141 -0.336,-0.212 -0.612,-0.212c-0.258,0 -0.47,0.067 -0.635,0.201c-0.166,0.133 -0.259,0.347 -0.278,0.641l1.732,0Zm1.329,0.783l-3.057,0c0.019,0.327 0.143,0.577 0.373,0.75c0.228,0.173 0.565,0.26 1.01,0.26c0.283,0 0.556,-0.051 0.821,-0.152c0.264,-0.102 0.473,-0.21 0.627,-0.327l0.148,0l0,1.073c-0.302,0.121 -0.586,0.209 -0.854,0.263c-0.267,0.054 -0.562,0.082 -0.886,0.082c-0.837,0 -1.478,-0.188 -1.923,-0.565c-0.445,-0.376 -0.668,-0.911 -0.668,-1.606c0,-0.688 0.211,-1.233 0.633,-1.635c0.422,-0.402 1,-0.602 1.735,-0.602c0.678,0 1.188,0.171 1.528,0.513c0.342,0.343 0.513,0.836 0.513,1.479l0,0.467Z" style="fill:#231f20;fill-rule:nonzero;"/><path d="M71.663,26.181l-3.641,0l0,-5.525l3.641,0l0,0.653l-2.907,0l0,1.514l2.907,0l0,0.653l-2.907,0l0,2.052l2.907,0l0,0.653Z" style="fill:#231f20;fill-rule:nonzero;"/><path d="M76.209,26.181l-0.699,0l0,-0.46c-0.234,0.186 -0.46,0.328 -0.674,0.427c-0.216,0.099 -0.454,0.148 -0.713,0.148c-0.436,0 -0.775,-0.132 -1.017,-0.399c-0.242,-0.266 -0.363,-0.656 -0.363,-1.171l0,-2.69l0.697,0l0,2.36c0,0.211 0.01,0.391 0.029,0.54c0.021,0.15 0.063,0.278 0.127,0.384c0.067,0.109 0.154,0.188 0.26,0.238c0.106,0.049 0.261,0.074 0.464,0.074c0.18,0 0.378,-0.046 0.592,-0.141c0.214,-0.094 0.413,-0.214 0.598,-0.36l0,-3.095l0.699,0l0,4.145Z" style="fill:#231f20;fill-rule:nonzero;"/><path d="M80.169,22.796l-0.038,0c-0.104,-0.024 -0.205,-0.042 -0.302,-0.053c-0.098,-0.011 -0.214,-0.017 -0.347,-0.017c-0.216,0 -0.424,0.048 -0.624,0.143c-0.2,0.095 -0.394,0.218 -0.579,0.37l0,2.942l-0.697,0l0,-4.145l0.697,0l0,0.612c0.277,-0.223 0.521,-0.38 0.733,-0.473c0.211,-0.092 0.427,-0.139 0.648,-0.139c0.121,0 0.209,0.004 0.263,0.009c0.054,0.006 0.136,0.018 0.246,0.036l0,0.715Z" style="fill:#231f20;fill-rule:nonzero;"/><path d="M83.637,24.111c0,-0.537 -0.104,-0.937 -0.315,-1.197c-0.21,-0.261 -0.502,-0.392 -0.875,-0.392c-0.379,0 -0.673,0.131 -0.882,0.392c-0.209,0.26 -0.313,0.66 -0.313,1.197c0,0.519 0.105,0.913 0.315,1.182c0.21,0.268 0.503,0.402 0.88,0.402c0.371,0 0.662,-0.133 0.873,-0.399c0.212,-0.266 0.317,-0.661 0.317,-1.185Zm0.721,0c0,0.675 -0.174,1.208 -0.52,1.599c-0.346,0.391 -0.81,0.586 -1.391,0.586c-0.587,0 -1.053,-0.195 -1.398,-0.586c-0.344,-0.391 -0.517,-0.924 -0.517,-1.599c0,-0.676 0.173,-1.21 0.517,-1.602c0.345,-0.392 0.811,-0.588 1.398,-0.588c0.581,0 1.045,0.196 1.391,0.588c0.346,0.392 0.52,0.926 0.52,1.602Z" style="fill:#231f20;fill-rule:nonzero;"/><path d="M88.365,24.077c0,-0.499 -0.085,-0.873 -0.256,-1.12c-0.171,-0.248 -0.433,-0.372 -0.787,-0.372c-0.2,0 -0.402,0.044 -0.605,0.13c-0.203,0.087 -0.397,0.201 -0.583,0.341l0,2.35c0.199,0.089 0.369,0.149 0.511,0.181c0.143,0.033 0.304,0.048 0.484,0.048c0.388,0 0.692,-0.131 0.91,-0.392c0.217,-0.263 0.326,-0.652 0.326,-1.166Zm0.72,-0.019c0,0.337 -0.048,0.645 -0.145,0.923c-0.097,0.278 -0.232,0.514 -0.408,0.707c-0.163,0.183 -0.356,0.324 -0.577,0.425c-0.221,0.099 -0.456,0.15 -0.703,0.15c-0.215,0 -0.411,-0.024 -0.584,-0.071c-0.175,-0.047 -0.353,-0.119 -0.534,-0.219l0,1.738l-0.697,0l0,-5.675l0.697,0l0,0.434c0.186,-0.156 0.395,-0.286 0.626,-0.391c0.232,-0.106 0.478,-0.158 0.741,-0.158c0.499,0 0.888,0.189 1.167,0.566c0.278,0.377 0.417,0.901 0.417,1.571Z" style="fill:#231f20;fill-rule:nonzero;"/><path d="M92.922,21.342l-0.738,0l0,-0.723l0.738,0l0,0.723Zm-1.533,0l-0.738,0l0,-0.723l0.738,0l0,0.723Zm1.311,3.819l0,-1.155c-0.213,0.013 -0.464,0.032 -0.752,0.056c-0.288,0.025 -0.517,0.061 -0.685,0.107c-0.2,0.058 -0.362,0.146 -0.486,0.266c-0.123,0.12 -0.186,0.285 -0.186,0.495c0,0.239 0.073,0.417 0.216,0.536c0.144,0.121 0.363,0.181 0.656,0.181c0.246,0 0.469,-0.048 0.672,-0.143c0.203,-0.095 0.391,-0.209 0.565,-0.343Zm0.693,1.02l-0.693,0l0,-0.441c-0.063,0.042 -0.146,0.1 -0.251,0.176c-0.105,0.076 -0.207,0.135 -0.306,0.18c-0.116,0.057 -0.25,0.105 -0.401,0.143c-0.151,0.038 -0.327,0.057 -0.53,0.057c-0.375,0 -0.691,-0.124 -0.951,-0.371c-0.259,-0.247 -0.389,-0.562 -0.389,-0.946c0,-0.314 0.067,-0.568 0.202,-0.763c0.135,-0.194 0.327,-0.346 0.577,-0.458c0.253,-0.111 0.556,-0.187 0.909,-0.226c0.354,-0.04 0.734,-0.07 1.14,-0.089l0,-0.109c0,-0.158 -0.029,-0.289 -0.084,-0.392c-0.056,-0.105 -0.135,-0.186 -0.239,-0.245c-0.099,-0.057 -0.218,-0.096 -0.357,-0.115c-0.139,-0.02 -0.283,-0.03 -0.433,-0.03c-0.184,0 -0.388,0.024 -0.613,0.073c-0.225,0.047 -0.458,0.118 -0.698,0.208l-0.037,0l0,-0.708c0.137,-0.037 0.333,-0.078 0.591,-0.123c0.257,-0.044 0.51,-0.066 0.76,-0.066c0.291,0 0.546,0.024 0.763,0.072c0.216,0.048 0.403,0.131 0.562,0.247c0.156,0.114 0.274,0.261 0.356,0.442c0.082,0.18 0.122,0.404 0.122,0.672l0,2.812Z" style="fill:#231f20;fill-rule:nonzero;"/><path d="M95.442,26.181l-0.697,0l0,-4.145l0.697,0l0,4.145Zm0.045,-4.839l-0.787,0l0,-0.723l0.787,0l0,0.723Z" style="fill:#231f20;fill-rule:nonzero;"/><path d="M99.784,24.986c0,0.379 -0.156,0.689 -0.469,0.932c-0.313,0.243 -0.74,0.364 -1.282,0.364c-0.307,0 -0.588,-0.037 -0.845,-0.111c-0.256,-0.072 -0.471,-0.152 -0.643,-0.239l0,-0.782l0.037,0c0.219,0.165 0.464,0.297 0.734,0.395c0.27,0.097 0.528,0.146 0.776,0.146c0.307,0 0.546,-0.049 0.72,-0.148c0.173,-0.099 0.26,-0.254 0.26,-0.467c0,-0.164 -0.047,-0.287 -0.142,-0.371c-0.093,-0.084 -0.274,-0.157 -0.541,-0.216c-0.099,-0.023 -0.228,-0.048 -0.387,-0.078c-0.161,-0.03 -0.306,-0.062 -0.437,-0.096c-0.363,-0.097 -0.622,-0.238 -0.773,-0.425c-0.153,-0.187 -0.229,-0.417 -0.229,-0.688c0,-0.171 0.035,-0.332 0.106,-0.483c0.071,-0.151 0.177,-0.286 0.321,-0.405c0.138,-0.116 0.314,-0.208 0.529,-0.276c0.214,-0.068 0.453,-0.102 0.718,-0.102c0.247,0 0.498,0.03 0.751,0.091c0.254,0.06 0.465,0.134 0.633,0.221l0,0.746l-0.037,0c-0.178,-0.131 -0.395,-0.243 -0.65,-0.332c-0.255,-0.091 -0.505,-0.136 -0.749,-0.136c-0.255,0 -0.471,0.049 -0.646,0.146c-0.176,0.098 -0.263,0.244 -0.263,0.437c0,0.17 0.053,0.299 0.159,0.386c0.104,0.087 0.273,0.157 0.505,0.211c0.128,0.03 0.272,0.059 0.433,0.089c0.159,0.03 0.292,0.057 0.398,0.081c0.324,0.075 0.574,0.203 0.75,0.383c0.175,0.183 0.263,0.425 0.263,0.727Z" style="fill:#231f20;fill-rule:nonzero;"/><path d="M103.849,25.921c-0.233,0.112 -0.453,0.199 -0.662,0.26c-0.21,0.062 -0.432,0.093 -0.667,0.093c-0.299,0 -0.574,-0.044 -0.824,-0.132c-0.25,-0.088 -0.464,-0.221 -0.642,-0.398c-0.181,-0.179 -0.321,-0.404 -0.419,-0.676c-0.099,-0.272 -0.149,-0.59 -0.149,-0.954c0,-0.678 0.187,-1.209 0.559,-1.596c0.372,-0.386 0.864,-0.578 1.475,-0.578c0.238,0 0.47,0.033 0.7,0.1c0.228,0.067 0.438,0.148 0.629,0.245l0,0.775l-0.037,0c-0.213,-0.165 -0.433,-0.293 -0.66,-0.382c-0.225,-0.089 -0.447,-0.134 -0.662,-0.134c-0.395,0 -0.708,0.133 -0.936,0.399c-0.23,0.266 -0.344,0.657 -0.344,1.171c0,0.5 0.112,0.884 0.336,1.152c0.224,0.269 0.538,0.404 0.944,0.404c0.141,0 0.284,-0.019 0.431,-0.056c0.145,-0.037 0.276,-0.086 0.393,-0.146c0.101,-0.051 0.197,-0.106 0.286,-0.165c0.089,-0.057 0.16,-0.107 0.212,-0.15l0.037,0l0,0.768Z" style="fill:#231f20;fill-rule:nonzero;"/><path d="M108.209,26.181l-0.697,0l0,-2.36c0,-0.191 -0.012,-0.369 -0.033,-0.536c-0.023,-0.167 -0.064,-0.297 -0.123,-0.392c-0.062,-0.103 -0.151,-0.181 -0.267,-0.231c-0.117,-0.051 -0.268,-0.077 -0.453,-0.077c-0.191,0 -0.39,0.047 -0.598,0.141c-0.208,0.095 -0.407,0.214 -0.598,0.361l0,3.094l-0.697,0l0,-5.774l0.697,0l0,2.09c0.218,-0.181 0.444,-0.323 0.676,-0.424c0.233,-0.101 0.472,-0.152 0.716,-0.152c0.448,0 0.789,0.135 1.024,0.405c0.236,0.269 0.353,0.658 0.353,1.165l0,2.69Z" style="fill:#231f20;fill-rule:nonzero;"/><path d="M112.344,23.647c-0.003,-0.366 -0.095,-0.649 -0.277,-0.851c-0.182,-0.2 -0.459,-0.299 -0.83,-0.299c-0.373,0 -0.671,0.109 -0.892,0.33c-0.221,0.219 -0.347,0.493 -0.376,0.82l2.375,0Zm0.678,0.534l-3.053,0c0,0.255 0.038,0.477 0.114,0.666c0.077,0.19 0.183,0.345 0.315,0.466c0.129,0.118 0.283,0.208 0.459,0.267c0.177,0.059 0.372,0.09 0.584,0.09c0.283,0 0.567,-0.057 0.852,-0.169c0.286,-0.114 0.489,-0.224 0.61,-0.332l0.037,0l0,0.76c-0.234,0.099 -0.474,0.182 -0.719,0.248c-0.245,0.068 -0.502,0.101 -0.772,0.101c-0.688,0 -1.224,-0.187 -1.61,-0.559c-0.387,-0.372 -0.579,-0.901 -0.579,-1.587c0,-0.677 0.184,-1.215 0.554,-1.614c0.371,-0.397 0.857,-0.597 1.46,-0.597c0.56,0 0.991,0.163 1.293,0.49c0.304,0.327 0.455,0.791 0.455,1.391l0,0.379Z" style="fill:#231f20;fill-rule:nonzero;"/><path d="M116.667,22.796l-0.037,0c-0.105,-0.024 -0.205,-0.042 -0.303,-0.053c-0.097,-0.011 -0.214,-0.017 -0.346,-0.017c-0.216,0 -0.424,0.048 -0.625,0.143c-0.2,0.095 -0.393,0.218 -0.579,0.37l0,2.942l-0.697,0l0,-4.145l0.697,0l0,0.612c0.278,-0.223 0.522,-0.38 0.734,-0.473c0.211,-0.092 0.427,-0.139 0.647,-0.139c0.121,0 0.209,0.004 0.264,0.009c0.054,0.006 0.136,0.018 0.245,0.036l0,0.715Z" style="fill:#231f20;fill-rule:nonzero;"/><path d="M123.58,21.309l-2.795,0l0,1.559l2.402,0l0,0.652l-2.402,0l0,2.661l-0.734,0l0,-5.525l3.529,0l0,0.653Z" style="fill:#231f20;fill-rule:nonzero;"/><path d="M126.99,24.111c0,-0.537 -0.104,-0.937 -0.315,-1.197c-0.21,-0.261 -0.502,-0.392 -0.875,-0.392c-0.379,0 -0.673,0.131 -0.882,0.392c-0.209,0.26 -0.313,0.66 -0.313,1.197c0,0.519 0.105,0.913 0.315,1.182c0.21,0.268 0.503,0.402 0.88,0.402c0.371,0 0.662,-0.133 0.873,-0.399c0.212,-0.266 0.317,-0.661 0.317,-1.185Zm0.721,0c0,0.675 -0.174,1.208 -0.52,1.599c-0.346,0.391 -0.81,0.586 -1.391,0.586c-0.587,0 -1.053,-0.195 -1.398,-0.586c-0.344,-0.391 -0.517,-0.924 -0.517,-1.599c0,-0.676 0.173,-1.21 0.517,-1.602c0.345,-0.392 0.811,-0.588 1.398,-0.588c0.581,0 1.045,0.196 1.391,0.588c0.346,0.392 0.52,0.926 0.52,1.602Z" style="fill:#231f20;fill-rule:nonzero;"/><path d="M132.256,26.181l-0.697,0l0,-2.36c0,-0.191 -0.012,-0.369 -0.034,-0.536c-0.022,-0.167 -0.063,-0.297 -0.123,-0.392c-0.061,-0.103 -0.15,-0.181 -0.266,-0.231c-0.117,-0.051 -0.268,-0.077 -0.453,-0.077c-0.191,0 -0.39,0.047 -0.598,0.141c-0.208,0.095 -0.408,0.214 -0.598,0.361l0,3.094l-0.698,0l0,-4.145l0.698,0l0,0.461c0.218,-0.181 0.444,-0.323 0.675,-0.424c0.234,-0.101 0.472,-0.152 0.717,-0.152c0.448,0 0.789,0.135 1.024,0.405c0.236,0.269 0.353,0.658 0.353,1.165l0,2.69Z" style="fill:#231f20;fill-rule:nonzero;"/><path d="M136.264,25.161l0,-2.379c-0.188,-0.084 -0.356,-0.142 -0.504,-0.174c-0.149,-0.032 -0.311,-0.049 -0.487,-0.049c-0.391,0 -0.695,0.137 -0.913,0.408c-0.217,0.273 -0.326,0.658 -0.326,1.158c0,0.493 0.084,0.867 0.252,1.123c0.168,0.256 0.438,0.384 0.809,0.384c0.198,0 0.398,-0.044 0.601,-0.131c0.203,-0.088 0.392,-0.202 0.568,-0.34Zm0.698,1.02l-0.698,0l0,-0.434c-0.2,0.174 -0.409,0.308 -0.627,0.405c-0.218,0.096 -0.454,0.144 -0.709,0.144c-0.494,0 -0.887,-0.19 -1.178,-0.571c-0.291,-0.381 -0.436,-0.909 -0.436,-1.585c0,-0.351 0.05,-0.664 0.15,-0.938c0.1,-0.276 0.236,-0.509 0.406,-0.702c0.169,-0.188 0.364,-0.332 0.589,-0.43c0.224,-0.1 0.455,-0.149 0.695,-0.149c0.218,0 0.411,0.023 0.579,0.069c0.168,0.046 0.345,0.117 0.531,0.213l0,-1.796l0.698,0l0,5.774Z" style="fill:#231f20;fill-rule:nonzero;"/><path d="M141.296,24.986c0,0.379 -0.156,0.689 -0.469,0.932c-0.313,0.243 -0.74,0.364 -1.282,0.364c-0.307,0 -0.588,-0.037 -0.845,-0.111c-0.256,-0.072 -0.47,-0.152 -0.643,-0.239l0,-0.782l0.037,0c0.22,0.165 0.465,0.297 0.734,0.395c0.27,0.097 0.528,0.146 0.777,0.146c0.306,0 0.545,-0.049 0.719,-0.148c0.173,-0.099 0.26,-0.254 0.26,-0.467c0,-0.164 -0.047,-0.287 -0.142,-0.371c-0.093,-0.084 -0.274,-0.157 -0.541,-0.216c-0.099,-0.023 -0.228,-0.048 -0.387,-0.078c-0.16,-0.03 -0.306,-0.062 -0.437,-0.096c-0.363,-0.097 -0.622,-0.238 -0.773,-0.425c-0.153,-0.187 -0.229,-0.417 -0.229,-0.688c0,-0.171 0.035,-0.332 0.106,-0.483c0.071,-0.151 0.177,-0.286 0.321,-0.405c0.139,-0.116 0.314,-0.208 0.529,-0.276c0.214,-0.068 0.453,-0.102 0.718,-0.102c0.247,0 0.498,0.03 0.751,0.091c0.254,0.06 0.465,0.134 0.633,0.221l0,0.746l-0.037,0c-0.178,-0.131 -0.395,-0.243 -0.65,-0.332c-0.255,-0.091 -0.505,-0.136 -0.749,-0.136c-0.255,0 -0.47,0.049 -0.646,0.146c-0.176,0.098 -0.263,0.244 -0.263,0.437c0,0.17 0.053,0.299 0.159,0.386c0.104,0.087 0.273,0.157 0.505,0.211c0.128,0.03 0.273,0.059 0.433,0.089c0.159,0.03 0.292,0.057 0.398,0.081c0.324,0.075 0.574,0.203 0.75,0.383c0.175,0.183 0.263,0.425 0.263,0.727Z" style="fill:#231f20;fill-rule:nonzero;"/><path d="M147.197,21.083l-0.037,0c-0.077,-0.023 -0.177,-0.045 -0.301,-0.07c-0.124,-0.023 -0.232,-0.035 -0.326,-0.035c-0.3,0 -0.516,0.066 -0.651,0.199c-0.135,0.132 -0.202,0.371 -0.202,0.718l0,0.141l1.258,0l0,0.587l-1.237,0l0,3.558l-0.697,0l0,-3.558l-0.472,0l0,-0.587l0.472,0l0,-0.137c0,-0.492 0.122,-0.87 0.367,-1.134c0.245,-0.264 0.599,-0.395 1.062,-0.395c0.156,0 0.296,0.007 0.421,0.022c0.125,0.015 0.239,0.032 0.343,0.052l0,0.639Z" style="fill:#231f20;fill-rule:nonzero;"/><path d="M150.496,21.342l-0.738,0l0,-0.723l0.738,0l0,0.723Zm-1.532,0l-0.739,0l0,-0.723l0.739,0l0,0.723Zm2.111,4.839l-0.698,0l0,-0.46c-0.234,0.186 -0.46,0.328 -0.675,0.427c-0.216,0.099 -0.453,0.148 -0.713,0.148c-0.435,0 -0.774,-0.132 -1.016,-0.399c-0.243,-0.266 -0.364,-0.656 -0.364,-1.171l0,-2.69l0.698,0l0,2.36c0,0.211 0.009,0.391 0.029,0.54c0.02,0.15 0.062,0.278 0.127,0.384c0.066,0.109 0.153,0.188 0.26,0.238c0.105,0.049 0.26,0.074 0.464,0.074c0.179,0 0.377,-0.046 0.591,-0.141c0.214,-0.094 0.413,-0.214 0.599,-0.36l0,-3.095l0.698,0l0,4.145Z" style="fill:#231f20;fill-rule:nonzero;"/><path d="M155.035,22.796l-0.037,0c-0.104,-0.024 -0.205,-0.042 -0.303,-0.053c-0.097,-0.011 -0.214,-0.017 -0.346,-0.017c-0.216,0 -0.424,0.048 -0.624,0.143c-0.201,0.095 -0.394,0.218 -0.579,0.37l0,2.942l-0.698,0l0,-4.145l0.698,0l0,0.612c0.277,-0.223 0.521,-0.38 0.733,-0.473c0.211,-0.092 0.427,-0.139 0.647,-0.139c0.121,0 0.209,0.004 0.264,0.009c0.054,0.006 0.136,0.018 0.245,0.036l0,0.715Z" style="fill:#231f20;fill-rule:nonzero;"/><path d="M70.553,31.917l-0.037,0c-0.104,-0.025 -0.205,-0.042 -0.303,-0.054c-0.097,-0.011 -0.213,-0.017 -0.346,-0.017c-0.216,0 -0.424,0.048 -0.624,0.143c-0.2,0.096 -0.394,0.219 -0.579,0.37l0,2.942l-0.698,0l0,-4.145l0.698,0l0,0.612c0.277,-0.222 0.521,-0.38 0.733,-0.472c0.211,-0.093 0.427,-0.14 0.648,-0.14c0.121,0 0.208,0.004 0.263,0.01c0.054,0.005 0.136,0.017 0.245,0.035l0,0.716Z" style="fill:#231f20;fill-rule:nonzero;"/><path d="M74.001,32.767c-0.003,-0.366 -0.095,-0.649 -0.277,-0.85c-0.182,-0.201 -0.459,-0.3 -0.83,-0.3c-0.373,0 -0.671,0.109 -0.892,0.33c-0.221,0.22 -0.347,0.493 -0.376,0.82l2.375,0Zm0.678,0.534l-3.053,0c0,0.255 0.038,0.477 0.114,0.666c0.077,0.19 0.182,0.345 0.315,0.466c0.129,0.118 0.282,0.208 0.459,0.267c0.177,0.059 0.371,0.09 0.584,0.09c0.282,0 0.567,-0.057 0.852,-0.169c0.286,-0.114 0.489,-0.224 0.61,-0.332l0.037,0l0,0.76c-0.234,0.099 -0.474,0.182 -0.719,0.248c-0.246,0.068 -0.502,0.101 -0.772,0.101c-0.688,0 -1.225,-0.186 -1.61,-0.559c-0.387,-0.372 -0.579,-0.901 -0.579,-1.586c0,-0.678 0.184,-1.216 0.554,-1.615c0.37,-0.397 0.857,-0.596 1.46,-0.596c0.56,0 0.99,0.163 1.293,0.489c0.304,0.327 0.455,0.791 0.455,1.391l0,0.379Z" style="fill:#231f20;fill-rule:nonzero;"/><path d="M78.401,34.162l0,-2.26c-0.186,-0.084 -0.357,-0.144 -0.518,-0.18c-0.159,-0.036 -0.318,-0.053 -0.476,-0.053c-0.384,0 -0.686,0.128 -0.905,0.385c-0.221,0.258 -0.331,0.631 -0.331,1.121c0,0.465 0.082,0.818 0.245,1.058c0.164,0.239 0.434,0.359 0.813,0.359c0.202,0 0.406,-0.039 0.61,-0.117c0.205,-0.077 0.392,-0.181 0.562,-0.313Zm0.698,0.668c0,0.703 -0.16,1.218 -0.478,1.548c-0.32,0.329 -0.811,0.493 -1.474,0.493c-0.221,0 -0.435,-0.015 -0.644,-0.046c-0.208,-0.031 -0.415,-0.075 -0.618,-0.132l0,-0.713l0.037,0c0.114,0.045 0.294,0.1 0.542,0.165c0.248,0.067 0.495,0.099 0.743,0.099c0.237,0 0.433,-0.029 0.589,-0.085c0.157,-0.058 0.278,-0.137 0.364,-0.238c0.087,-0.096 0.148,-0.213 0.185,-0.349c0.037,-0.136 0.056,-0.288 0.056,-0.456l0,-0.379c-0.21,0.169 -0.411,0.294 -0.603,0.377c-0.191,0.083 -0.436,0.124 -0.733,0.124c-0.494,0 -0.887,-0.179 -1.178,-0.536c-0.291,-0.358 -0.436,-0.862 -0.436,-1.512c0,-0.356 0.051,-0.664 0.15,-0.922c0.101,-0.259 0.237,-0.482 0.41,-0.67c0.161,-0.176 0.357,-0.312 0.587,-0.41c0.23,-0.098 0.458,-0.146 0.687,-0.146c0.239,0 0.44,0.023 0.602,0.072c0.162,0.048 0.333,0.122 0.514,0.221l0.045,-0.179l0.653,0l0,3.674Z" style="fill:#231f20;fill-rule:nonzero;"/><path d="M81.177,35.301l-0.697,0l0,-4.145l0.697,0l0,4.145Zm0.045,-4.839l-0.787,0l0,-0.723l0.787,0l0,0.723Z" style="fill:#231f20;fill-rule:nonzero;"/><path d="M85.371,33.231c0,-0.537 -0.105,-0.936 -0.316,-1.197c-0.21,-0.261 -0.502,-0.392 -0.875,-0.392c-0.379,0 -0.673,0.131 -0.882,0.392c-0.209,0.261 -0.313,0.66 -0.313,1.197c0,0.519 0.105,0.913 0.315,1.182c0.21,0.268 0.503,0.402 0.88,0.402c0.371,0 0.662,-0.133 0.873,-0.399c0.212,-0.266 0.318,-0.661 0.318,-1.185Zm0.72,0c0,0.675 -0.173,1.208 -0.519,1.599c-0.347,0.391 -0.811,0.586 -1.392,0.586c-0.587,0 -1.052,-0.195 -1.397,-0.586c-0.345,-0.391 -0.518,-0.924 -0.518,-1.599c0,-0.676 0.173,-1.21 0.518,-1.602c0.345,-0.392 0.81,-0.587 1.397,-0.587c0.581,0 1.045,0.195 1.392,0.587c0.346,0.392 0.519,0.926 0.519,1.602Z" style="fill:#231f20;fill-rule:nonzero;"/><path d="M90.636,35.301l-0.697,0l0,-2.36c0,-0.191 -0.012,-0.369 -0.033,-0.536c-0.023,-0.167 -0.064,-0.297 -0.123,-0.392c-0.062,-0.103 -0.151,-0.18 -0.267,-0.231c-0.117,-0.051 -0.267,-0.076 -0.453,-0.076c-0.19,0 -0.39,0.047 -0.598,0.14c-0.208,0.095 -0.407,0.214 -0.597,0.361l0,3.094l-0.698,0l0,-4.145l0.698,0l0,0.461c0.218,-0.181 0.443,-0.322 0.676,-0.424c0.232,-0.101 0.471,-0.151 0.715,-0.151c0.449,0 0.789,0.134 1.025,0.404c0.235,0.269 0.352,0.658 0.352,1.165l0,2.69Z" style="fill:#231f20;fill-rule:nonzero;"/><path d="M94.507,34.281l0,-1.154c-0.212,0.012 -0.463,0.031 -0.752,0.055c-0.288,0.026 -0.516,0.061 -0.684,0.108c-0.2,0.057 -0.362,0.145 -0.486,0.265c-0.123,0.12 -0.186,0.285 -0.186,0.495c0,0.239 0.072,0.417 0.216,0.537c0.143,0.12 0.362,0.18 0.656,0.18c0.245,0 0.469,-0.048 0.672,-0.143c0.203,-0.095 0.391,-0.209 0.564,-0.343Zm0.694,1.02l-0.694,0l0,-0.441c-0.062,0.042 -0.145,0.101 -0.251,0.176c-0.104,0.076 -0.207,0.135 -0.305,0.18c-0.116,0.057 -0.25,0.105 -0.402,0.143c-0.15,0.038 -0.327,0.057 -0.53,0.057c-0.374,0 -0.69,-0.124 -0.95,-0.37c-0.26,-0.248 -0.39,-0.563 -0.39,-0.947c0,-0.314 0.068,-0.568 0.202,-0.762c0.135,-0.195 0.328,-0.347 0.578,-0.458c0.253,-0.112 0.555,-0.188 0.909,-0.227c0.353,-0.04 0.733,-0.069 1.139,-0.089l0,-0.108c0,-0.159 -0.028,-0.289 -0.084,-0.393c-0.055,-0.104 -0.134,-0.185 -0.239,-0.245c-0.098,-0.057 -0.218,-0.096 -0.356,-0.115c-0.139,-0.02 -0.283,-0.03 -0.434,-0.03c-0.183,0 -0.388,0.024 -0.612,0.073c-0.226,0.048 -0.458,0.118 -0.698,0.209l-0.038,0l0,-0.708c0.137,-0.037 0.333,-0.078 0.591,-0.123c0.257,-0.044 0.511,-0.067 0.761,-0.067c0.291,0 0.546,0.025 0.763,0.073c0.216,0.047 0.403,0.13 0.561,0.247c0.156,0.113 0.275,0.26 0.357,0.441c0.082,0.181 0.122,0.404 0.122,0.672l0,2.812Z" style="fill:#231f20;fill-rule:nonzero;"/><rect x="96.552" y="29.527" width="0.698" height="5.774" style="fill:#231f20;fill-rule:nonzero;"/><path d="M101.422,32.767c-0.003,-0.366 -0.095,-0.649 -0.276,-0.85c-0.183,-0.201 -0.459,-0.3 -0.831,-0.3c-0.373,0 -0.671,0.109 -0.893,0.33c-0.22,0.22 -0.346,0.493 -0.376,0.82l2.376,0Zm0.679,0.534l-3.055,0c0,0.255 0.039,0.477 0.115,0.666c0.077,0.19 0.182,0.345 0.315,0.466c0.129,0.118 0.282,0.208 0.459,0.267c0.177,0.059 0.372,0.09 0.585,0.09c0.282,0 0.566,-0.057 0.851,-0.169c0.286,-0.114 0.489,-0.224 0.61,-0.332l0.038,0l0,0.76c-0.235,0.099 -0.475,0.182 -0.72,0.248c-0.245,0.068 -0.502,0.101 -0.772,0.101c-0.689,0 -1.225,-0.186 -1.61,-0.559c-0.387,-0.372 -0.58,-0.901 -0.58,-1.586c0,-0.678 0.185,-1.216 0.555,-1.615c0.37,-0.397 0.857,-0.596 1.461,-0.596c0.559,0 0.99,0.163 1.293,0.489c0.303,0.327 0.455,0.791 0.455,1.391l0,0.379Z" style="fill:#231f20;fill-rule:nonzero;"/><path d="M109.526,35.301l-3.64,0l0,-5.525l3.64,0l0,0.653l-2.906,0l0,1.514l2.906,0l0,0.653l-2.906,0l0,2.052l2.906,0l0,0.653Z" style="fill:#231f20;fill-rule:nonzero;"/><path d="M114.102,35.301l-0.698,0l0,-2.36c0,-0.191 -0.011,-0.369 -0.033,-0.536c-0.022,-0.167 -0.063,-0.297 -0.123,-0.392c-0.061,-0.103 -0.15,-0.18 -0.267,-0.231c-0.117,-0.051 -0.267,-0.076 -0.453,-0.076c-0.19,0 -0.389,0.047 -0.597,0.14c-0.208,0.095 -0.408,0.214 -0.598,0.361l0,3.094l-0.697,0l0,-4.145l0.697,0l0,0.461c0.218,-0.181 0.443,-0.322 0.676,-0.424c0.232,-0.101 0.472,-0.151 0.716,-0.151c0.448,0 0.789,0.134 1.024,0.404c0.235,0.269 0.353,0.658 0.353,1.165l0,2.69Z" style="fill:#231f20;fill-rule:nonzero;"/><path d="M117.598,35.264c-0.131,0.035 -0.275,0.064 -0.429,0.085c-0.154,0.023 -0.293,0.034 -0.414,0.034c-0.423,0 -0.744,-0.114 -0.965,-0.342c-0.22,-0.227 -0.33,-0.592 -0.33,-1.094l0,-2.204l-0.471,0l0,-0.587l0.471,0l0,-1.191l0.698,0l0,1.191l1.44,0l0,0.587l-1.44,0l0,1.888c0,0.218 0.005,0.388 0.015,0.51c0.01,0.123 0.044,0.238 0.103,0.344c0.055,0.098 0.13,0.171 0.225,0.217c0.096,0.046 0.24,0.069 0.437,0.069c0.113,0 0.232,-0.017 0.355,-0.051c0.124,-0.033 0.213,-0.06 0.268,-0.083l0.037,0l0,0.627Z" style="fill:#231f20;fill-rule:nonzero;"/><path d="M123.654,31.156l-1.08,4.145l-0.645,0l-1.066,-3.195l-1.057,3.195l-0.642,0l-1.091,-4.145l0.728,0l0.761,3.21l1.035,-3.21l0.575,0l1.061,3.21l0.72,-3.21l0.701,0Z" style="fill:#231f20;fill-rule:nonzero;"/><path d="M125.365,35.301l-0.697,0l0,-4.145l0.697,0l0,4.145Zm0.045,-4.839l-0.787,0l0,-0.723l0.787,0l0,0.723Z" style="fill:#231f20;fill-rule:nonzero;"/><path d="M129.812,35.041c-0.234,0.112 -0.454,0.199 -0.663,0.26c-0.211,0.062 -0.431,0.093 -0.668,0.093c-0.297,0 -0.572,-0.044 -0.822,-0.132c-0.25,-0.088 -0.464,-0.221 -0.642,-0.398c-0.181,-0.179 -0.321,-0.403 -0.419,-0.676c-0.099,-0.272 -0.149,-0.59 -0.149,-0.954c0,-0.678 0.187,-1.209 0.559,-1.596c0.372,-0.385 0.864,-0.578 1.473,-0.578c0.239,0 0.472,0.033 0.702,0.1c0.227,0.067 0.438,0.148 0.629,0.245l0,0.775l-0.038,0c-0.212,-0.165 -0.433,-0.293 -0.659,-0.382c-0.225,-0.088 -0.447,-0.133 -0.662,-0.133c-0.395,0 -0.708,0.132 -0.936,0.398c-0.23,0.267 -0.344,0.657 -0.344,1.171c0,0.5 0.112,0.884 0.336,1.152c0.223,0.269 0.538,0.404 0.944,0.404c0.14,0 0.284,-0.019 0.431,-0.056c0.145,-0.037 0.276,-0.086 0.392,-0.146c0.102,-0.051 0.198,-0.106 0.287,-0.165c0.088,-0.057 0.16,-0.107 0.211,-0.15l0.038,0l0,0.768Z" style="fill:#231f20;fill-rule:nonzero;"/><path d="M134.469,35.301l-0.92,0l-1.663,-1.814l-0.452,0.43l0,1.384l-0.699,0l0,-5.774l0.699,0l0,3.704l2.014,-2.075l0.88,0l-1.926,1.915l2.067,2.23Z" style="fill:#231f20;fill-rule:nonzero;"/><rect x="135.212" y="29.527" width="0.697" height="5.774" style="fill:#231f20;fill-rule:nonzero;"/><path d="M140.727,35.301l-0.699,0l0,-0.46c-0.234,0.186 -0.46,0.329 -0.674,0.427c-0.216,0.099 -0.454,0.148 -0.713,0.148c-0.436,0 -0.775,-0.132 -1.017,-0.399c-0.242,-0.265 -0.363,-0.656 -0.363,-1.171l0,-2.69l0.697,0l0,2.36c0,0.211 0.01,0.391 0.029,0.54c0.021,0.15 0.063,0.278 0.127,0.384c0.067,0.109 0.154,0.189 0.26,0.238c0.106,0.049 0.261,0.075 0.464,0.075c0.18,0 0.378,-0.047 0.592,-0.142c0.214,-0.094 0.413,-0.214 0.598,-0.359l0,-3.096l0.699,0l0,4.145Z" style="fill:#231f20;fill-rule:nonzero;"/><path d="M145.565,35.301l-0.697,0l0,-2.36c0,-0.191 -0.012,-0.369 -0.033,-0.536c-0.022,-0.167 -0.063,-0.297 -0.123,-0.392c-0.062,-0.103 -0.15,-0.18 -0.267,-0.231c-0.117,-0.051 -0.267,-0.076 -0.453,-0.076c-0.19,0 -0.389,0.047 -0.597,0.14c-0.208,0.095 -0.408,0.214 -0.598,0.361l0,3.094l-0.697,0l0,-4.145l0.697,0l0,0.461c0.218,-0.181 0.443,-0.322 0.676,-0.424c0.232,-0.101 0.471,-0.151 0.716,-0.151c0.448,0 0.789,0.134 1.024,0.404c0.235,0.269 0.352,0.658 0.352,1.165l0,2.69Z" style="fill:#231f20;fill-rule:nonzero;"/><path d="M149.573,34.162l0,-2.26c-0.185,-0.084 -0.357,-0.144 -0.517,-0.18c-0.159,-0.036 -0.319,-0.053 -0.477,-0.053c-0.384,0 -0.685,0.128 -0.905,0.385c-0.221,0.258 -0.33,0.631 -0.33,1.121c0,0.465 0.081,0.818 0.244,1.058c0.164,0.239 0.434,0.359 0.813,0.359c0.203,0 0.407,-0.039 0.611,-0.117c0.204,-0.077 0.391,-0.181 0.561,-0.313Zm0.699,0.668c0,0.703 -0.161,1.218 -0.479,1.548c-0.319,0.329 -0.811,0.493 -1.474,0.493c-0.22,0 -0.434,-0.015 -0.643,-0.046c-0.209,-0.031 -0.415,-0.075 -0.618,-0.132l0,-0.713l0.037,0c0.113,0.045 0.294,0.1 0.542,0.165c0.247,0.067 0.494,0.099 0.742,0.099c0.237,0 0.434,-0.029 0.59,-0.085c0.156,-0.058 0.277,-0.137 0.363,-0.238c0.087,-0.096 0.148,-0.213 0.186,-0.349c0.037,-0.136 0.055,-0.288 0.055,-0.456l0,-0.379c-0.21,0.169 -0.411,0.294 -0.602,0.377c-0.192,0.083 -0.437,0.124 -0.734,0.124c-0.494,0 -0.886,-0.179 -1.177,-0.536c-0.291,-0.358 -0.437,-0.862 -0.437,-1.512c0,-0.356 0.051,-0.664 0.15,-0.922c0.101,-0.259 0.238,-0.482 0.411,-0.67c0.161,-0.176 0.356,-0.312 0.587,-0.41c0.229,-0.098 0.458,-0.146 0.686,-0.146c0.239,0 0.44,0.023 0.603,0.072c0.162,0.048 0.333,0.122 0.513,0.221l0.045,-0.179l0.654,0l0,3.674Z" style="fill:#231f20;fill-rule:nonzero;"/><path d="M71.663,46.311l-3.641,0l0,-5.525l3.641,0l0,0.653l-2.907,0l0,1.514l2.907,0l0,0.653l-2.907,0l0,2.052l2.907,0l0,0.653Z" style="fill:#231f20;fill-rule:nonzero;"/><path d="M76.357,42.166l-1.678,4.145l-0.701,0l-1.666,-4.145l0.757,0l1.284,3.299l1.273,-3.299l0.731,0Z" style="fill:#231f20;fill-rule:nonzero;"/><path d="M79.857,42.926l-0.037,0c-0.105,-0.024 -0.205,-0.042 -0.303,-0.053c-0.097,-0.011 -0.214,-0.017 -0.347,-0.017c-0.215,0 -0.423,0.048 -0.624,0.143c-0.2,0.095 -0.393,0.218 -0.579,0.37l0,2.942l-0.697,0l0,-4.145l0.697,0l0,0.612c0.278,-0.223 0.522,-0.38 0.734,-0.473c0.211,-0.093 0.427,-0.139 0.647,-0.139c0.121,0 0.209,0.004 0.264,0.009c0.054,0.006 0.136,0.018 0.245,0.036l0,0.715Z" style="fill:#231f20;fill-rule:nonzero;"/><path d="M83.326,44.241c0,-0.537 -0.105,-0.937 -0.316,-1.197c-0.21,-0.261 -0.502,-0.392 -0.875,-0.392c-0.379,0 -0.673,0.131 -0.882,0.392c-0.208,0.26 -0.313,0.66 -0.313,1.197c0,0.519 0.105,0.913 0.315,1.181c0.21,0.269 0.503,0.403 0.88,0.403c0.371,0 0.662,-0.133 0.873,-0.399c0.212,-0.266 0.318,-0.661 0.318,-1.185Zm0.72,0c0,0.675 -0.173,1.208 -0.519,1.598c-0.347,0.392 -0.811,0.587 -1.392,0.587c-0.587,0 -1.052,-0.195 -1.397,-0.587c-0.345,-0.39 -0.518,-0.923 -0.518,-1.598c0,-0.676 0.173,-1.21 0.518,-1.602c0.345,-0.392 0.81,-0.588 1.397,-0.588c0.581,0 1.045,0.196 1.392,0.588c0.346,0.392 0.519,0.926 0.519,1.602Z" style="fill:#231f20;fill-rule:nonzero;"/><path d="M88.053,44.207c0,-0.499 -0.085,-0.874 -0.256,-1.12c-0.17,-0.248 -0.432,-0.372 -0.787,-0.372c-0.2,0 -0.401,0.043 -0.604,0.13c-0.203,0.087 -0.398,0.201 -0.583,0.341l0,2.35c0.198,0.089 0.368,0.149 0.511,0.181c0.142,0.033 0.303,0.048 0.484,0.048c0.388,0 0.691,-0.131 0.909,-0.392c0.218,-0.263 0.326,-0.652 0.326,-1.166Zm0.72,-0.019c0,0.337 -0.048,0.645 -0.145,0.923c-0.096,0.278 -0.232,0.514 -0.408,0.707c-0.163,0.182 -0.355,0.324 -0.577,0.425c-0.221,0.099 -0.456,0.15 -0.703,0.15c-0.215,0 -0.41,-0.024 -0.584,-0.071c-0.175,-0.047 -0.353,-0.119 -0.533,-0.219l0,1.737l-0.697,0l0,-5.674l0.697,0l0,0.434c0.185,-0.156 0.394,-0.286 0.626,-0.392c0.231,-0.105 0.477,-0.157 0.74,-0.157c0.499,0 0.889,0.189 1.167,0.566c0.278,0.377 0.417,0.901 0.417,1.571Z" style="fill:#231f20;fill-rule:nonzero;"/><path d="M92.822,45.116c0,0.379 -0.156,0.689 -0.469,0.931c-0.313,0.244 -0.74,0.365 -1.282,0.365c-0.307,0 -0.588,-0.037 -0.845,-0.111c-0.256,-0.072 -0.471,-0.152 -0.643,-0.239l0,-0.782l0.037,0c0.219,0.165 0.465,0.297 0.734,0.394c0.27,0.098 0.528,0.147 0.776,0.147c0.307,0 0.546,-0.049 0.72,-0.149c0.173,-0.098 0.26,-0.253 0.26,-0.466c0,-0.165 -0.047,-0.287 -0.142,-0.371c-0.093,-0.085 -0.274,-0.157 -0.541,-0.216c-0.099,-0.023 -0.228,-0.048 -0.387,-0.078c-0.161,-0.03 -0.306,-0.062 -0.437,-0.096c-0.363,-0.097 -0.622,-0.238 -0.773,-0.425c-0.153,-0.187 -0.229,-0.417 -0.229,-0.688c0,-0.171 0.035,-0.332 0.106,-0.483c0.071,-0.151 0.177,-0.286 0.321,-0.405c0.139,-0.116 0.314,-0.208 0.529,-0.277c0.214,-0.067 0.453,-0.101 0.718,-0.101c0.247,0 0.498,0.03 0.751,0.091c0.254,0.06 0.465,0.134 0.633,0.221l0,0.746l-0.037,0c-0.178,-0.131 -0.395,-0.243 -0.65,-0.333c-0.255,-0.09 -0.505,-0.135 -0.749,-0.135c-0.255,0 -0.47,0.049 -0.646,0.146c-0.176,0.098 -0.263,0.244 -0.263,0.437c0,0.17 0.053,0.299 0.159,0.386c0.104,0.087 0.273,0.157 0.505,0.211c0.128,0.03 0.273,0.059 0.433,0.089c0.159,0.03 0.292,0.057 0.398,0.081c0.324,0.075 0.574,0.202 0.75,0.383c0.175,0.183 0.263,0.425 0.263,0.727Z" style="fill:#231f20;fill-rule:nonzero;"/><path d="M97.584,46.311l-0.92,0l-1.663,-1.814l-0.453,0.43l0,1.384l-0.698,0l0,-5.774l0.698,0l0,3.704l2.015,-2.075l0.88,0l-1.926,1.915l2.067,2.23Z" style="fill:#231f20;fill-rule:nonzero;"/><path d="M101.076,40.091l-1.012,1.388l-0.554,0l0.665,-1.388l0.901,0Zm0.828,2.075l-2.42,5.674l-0.746,0l0.772,-1.729l-1.651,-3.945l0.757,0l1.272,3.073l1.285,-3.073l0.731,0Z" style="fill:#231f20;fill-rule:nonzero;"/><path d="M107.72,41.212l-0.037,0c-0.077,-0.022 -0.177,-0.045 -0.301,-0.069c-0.124,-0.023 -0.233,-0.035 -0.326,-0.035c-0.3,0 -0.517,0.066 -0.652,0.199c-0.134,0.132 -0.202,0.371 -0.202,0.718l0,0.141l1.258,0l0,0.587l-1.236,0l0,3.558l-0.698,0l0,-3.558l-0.471,0l0,-0.587l0.471,0l0,-0.137c0,-0.492 0.122,-0.87 0.368,-1.134c0.245,-0.264 0.598,-0.395 1.061,-0.395c0.156,0 0.296,0.007 0.421,0.022c0.125,0.015 0.239,0.032 0.344,0.052l0,0.638Z" style="fill:#231f20;fill-rule:nonzero;"/><path d="M110.974,44.241c0,-0.537 -0.105,-0.937 -0.316,-1.197c-0.21,-0.261 -0.502,-0.392 -0.875,-0.392c-0.379,0 -0.673,0.131 -0.882,0.392c-0.209,0.26 -0.313,0.66 -0.313,1.197c0,0.519 0.105,0.913 0.315,1.181c0.21,0.269 0.503,0.403 0.88,0.403c0.371,0 0.662,-0.133 0.873,-0.399c0.212,-0.266 0.318,-0.661 0.318,-1.185Zm0.72,0c0,0.675 -0.173,1.208 -0.519,1.598c-0.347,0.392 -0.811,0.587 -1.392,0.587c-0.587,0 -1.052,-0.195 -1.397,-0.587c-0.345,-0.39 -0.518,-0.923 -0.518,-1.598c0,-0.676 0.173,-1.21 0.518,-1.602c0.345,-0.392 0.81,-0.588 1.397,-0.588c0.581,0 1.045,0.196 1.392,0.588c0.346,0.392 0.519,0.926 0.519,1.602Z" style="fill:#231f20;fill-rule:nonzero;"/><path d="M116.239,46.311l-0.697,0l0,-2.36c0,-0.191 -0.012,-0.369 -0.033,-0.536c-0.023,-0.167 -0.064,-0.297 -0.123,-0.392c-0.062,-0.103 -0.151,-0.181 -0.267,-0.232c-0.117,-0.05 -0.267,-0.076 -0.453,-0.076c-0.19,0 -0.39,0.047 -0.598,0.141c-0.208,0.095 -0.407,0.214 -0.597,0.36l0,3.095l-0.698,0l0,-4.145l0.698,0l0,0.461c0.218,-0.181 0.443,-0.323 0.676,-0.424c0.232,-0.101 0.471,-0.152 0.715,-0.152c0.449,0 0.789,0.135 1.025,0.405c0.235,0.269 0.352,0.658 0.352,1.165l0,2.69Z" style="fill:#231f20;fill-rule:nonzero;"/><path d="M120.247,45.291l0,-2.379c-0.187,-0.084 -0.355,-0.142 -0.504,-0.174c-0.148,-0.032 -0.31,-0.049 -0.486,-0.049c-0.392,0 -0.695,0.137 -0.913,0.408c-0.218,0.273 -0.326,0.658 -0.326,1.158c0,0.493 0.084,0.867 0.252,1.123c0.168,0.255 0.437,0.384 0.808,0.384c0.198,0 0.399,-0.044 0.602,-0.132c0.203,-0.088 0.391,-0.201 0.567,-0.339Zm0.698,1.02l-0.698,0l0,-0.434c-0.2,0.173 -0.409,0.308 -0.627,0.405c-0.218,0.096 -0.454,0.144 -0.709,0.144c-0.494,0 -0.887,-0.19 -1.178,-0.571c-0.291,-0.381 -0.436,-0.909 -0.436,-1.585c0,-0.351 0.051,-0.664 0.15,-0.938c0.101,-0.276 0.237,-0.509 0.407,-0.703c0.168,-0.187 0.364,-0.331 0.588,-0.429c0.224,-0.1 0.455,-0.149 0.696,-0.149c0.218,0 0.411,0.023 0.579,0.069c0.168,0.046 0.345,0.117 0.53,0.213l0,-1.796l0.698,0l0,5.774Z" style="fill:#231f20;fill-rule:nonzero;"/><path d="M127.918,44.207c0,-0.499 -0.085,-0.874 -0.256,-1.12c-0.171,-0.248 -0.432,-0.372 -0.787,-0.372c-0.2,0 -0.401,0.043 -0.604,0.13c-0.204,0.087 -0.398,0.201 -0.583,0.341l0,2.35c0.198,0.089 0.368,0.149 0.51,0.181c0.143,0.033 0.304,0.048 0.485,0.048c0.387,0 0.691,-0.131 0.909,-0.392c0.218,-0.263 0.326,-0.652 0.326,-1.166Zm0.72,-0.019c0,0.337 -0.048,0.645 -0.145,0.923c-0.096,0.278 -0.232,0.514 -0.408,0.707c-0.163,0.182 -0.355,0.324 -0.577,0.425c-0.221,0.099 -0.456,0.15 -0.703,0.15c-0.215,0 -0.41,-0.024 -0.584,-0.071c-0.175,-0.047 -0.353,-0.119 -0.533,-0.219l0,1.737l-0.698,0l0,-5.674l0.698,0l0,0.434c0.185,-0.156 0.394,-0.286 0.626,-0.392c0.231,-0.105 0.477,-0.157 0.74,-0.157c0.499,0 0.888,0.189 1.166,0.566c0.278,0.377 0.418,0.901 0.418,1.571Z" style="fill:#231f20;fill-rule:nonzero;"/><path d="M132.313,42.926l-0.038,0c-0.104,-0.024 -0.205,-0.042 -0.302,-0.053c-0.098,-0.011 -0.214,-0.017 -0.347,-0.017c-0.216,0 -0.424,0.048 -0.624,0.143c-0.2,0.095 -0.394,0.218 -0.579,0.37l0,2.942l-0.697,0l0,-4.145l0.697,0l0,0.612c0.277,-0.223 0.521,-0.38 0.733,-0.473c0.211,-0.093 0.427,-0.139 0.648,-0.139c0.121,0 0.209,0.004 0.263,0.009c0.054,0.006 0.136,0.018 0.246,0.036l0,0.715Z" style="fill:#231f20;fill-rule:nonzero;"/><path d="M135.781,44.241c0,-0.537 -0.104,-0.937 -0.315,-1.197c-0.21,-0.261 -0.502,-0.392 -0.875,-0.392c-0.379,0 -0.673,0.131 -0.882,0.392c-0.209,0.26 -0.313,0.66 -0.313,1.197c0,0.519 0.105,0.913 0.315,1.181c0.21,0.269 0.503,0.403 0.88,0.403c0.371,0 0.662,-0.133 0.873,-0.399c0.212,-0.266 0.317,-0.661 0.317,-1.185Zm0.721,0c0,0.675 -0.174,1.208 -0.52,1.598c-0.346,0.392 -0.81,0.587 -1.391,0.587c-0.587,0 -1.053,-0.195 -1.398,-0.587c-0.344,-0.39 -0.517,-0.923 -0.517,-1.598c0,-0.676 0.173,-1.21 0.517,-1.602c0.345,-0.392 0.811,-0.588 1.398,-0.588c0.581,0 1.045,0.196 1.391,0.588c0.346,0.392 0.52,0.926 0.52,1.602Z" style="fill:#231f20;fill-rule:nonzero;"/><path d="M70.553,52.046l-0.037,0c-0.104,-0.024 -0.205,-0.042 -0.303,-0.053c-0.097,-0.011 -0.213,-0.017 -0.346,-0.017c-0.216,0 -0.424,0.048 -0.624,0.143c-0.2,0.095 -0.394,0.218 -0.579,0.37l0,2.942l-0.698,0l0,-4.145l0.698,0l0,0.612c0.277,-0.223 0.521,-0.38 0.733,-0.473c0.211,-0.092 0.427,-0.139 0.648,-0.139c0.121,0 0.208,0.004 0.263,0.01c0.054,0.005 0.136,0.017 0.245,0.035l0,0.715Z" style="fill:#231f20;fill-rule:nonzero;"/><path d="M74.001,52.897c-0.003,-0.366 -0.095,-0.649 -0.277,-0.851c-0.182,-0.2 -0.459,-0.299 -0.83,-0.299c-0.373,0 -0.671,0.109 -0.892,0.33c-0.221,0.219 -0.347,0.493 -0.376,0.82l2.375,0Zm0.678,0.534l-3.053,0c0,0.255 0.038,0.477 0.114,0.666c0.077,0.19 0.182,0.345 0.315,0.466c0.129,0.118 0.282,0.208 0.459,0.267c0.177,0.059 0.371,0.09 0.584,0.09c0.282,0 0.567,-0.057 0.852,-0.17c0.286,-0.113 0.489,-0.223 0.61,-0.331l0.037,0l0,0.76c-0.234,0.099 -0.474,0.182 -0.719,0.248c-0.246,0.068 -0.502,0.101 -0.772,0.101c-0.688,0 -1.225,-0.187 -1.61,-0.559c-0.387,-0.372 -0.579,-0.901 -0.579,-1.587c0,-0.677 0.184,-1.216 0.554,-1.614c0.37,-0.397 0.857,-0.597 1.46,-0.597c0.56,0 0.99,0.163 1.293,0.49c0.304,0.327 0.455,0.791 0.455,1.391l0,0.379Z" style="fill:#231f20;fill-rule:nonzero;"/><path d="M78.401,54.291l0,-2.259c-0.186,-0.084 -0.357,-0.144 -0.518,-0.18c-0.159,-0.036 -0.318,-0.054 -0.476,-0.054c-0.384,0 -0.686,0.129 -0.905,0.386c-0.221,0.258 -0.331,0.631 -0.331,1.121c0,0.465 0.082,0.818 0.245,1.058c0.164,0.239 0.434,0.359 0.813,0.359c0.202,0 0.406,-0.039 0.61,-0.117c0.205,-0.077 0.392,-0.182 0.562,-0.314Zm0.698,0.668c0,0.704 -0.16,1.219 -0.478,1.548c-0.32,0.33 -0.811,0.493 -1.474,0.493c-0.221,0 -0.435,-0.014 -0.644,-0.045c-0.208,-0.032 -0.415,-0.076 -0.618,-0.132l0,-0.713l0.037,0c0.114,0.045 0.294,0.099 0.542,0.165c0.248,0.066 0.495,0.099 0.743,0.099c0.237,0 0.433,-0.029 0.589,-0.085c0.157,-0.058 0.278,-0.137 0.364,-0.238c0.087,-0.096 0.148,-0.213 0.185,-0.349c0.037,-0.136 0.056,-0.288 0.056,-0.456l0,-0.379c-0.21,0.169 -0.411,0.294 -0.603,0.377c-0.191,0.083 -0.436,0.124 -0.733,0.124c-0.494,0 -0.887,-0.179 -1.178,-0.536c-0.291,-0.358 -0.436,-0.862 -0.436,-1.512c0,-0.357 0.051,-0.664 0.15,-0.922c0.101,-0.259 0.237,-0.482 0.41,-0.67c0.161,-0.176 0.357,-0.312 0.587,-0.41c0.23,-0.098 0.458,-0.147 0.687,-0.147c0.239,0 0.44,0.024 0.602,0.073c0.162,0.047 0.333,0.122 0.514,0.22l0.045,-0.178l0.653,0l0,3.673Z" style="fill:#231f20;fill-rule:nonzero;"/><path d="M81.177,55.431l-0.697,0l0,-4.145l0.697,0l0,4.145Zm0.045,-4.839l-0.787,0l0,-0.723l0.787,0l0,0.723Z" style="fill:#231f20;fill-rule:nonzero;"/><path d="M85.371,53.361c0,-0.537 -0.105,-0.937 -0.316,-1.197c-0.21,-0.261 -0.502,-0.392 -0.875,-0.392c-0.379,0 -0.673,0.131 -0.882,0.392c-0.209,0.26 -0.313,0.66 -0.313,1.197c0,0.519 0.105,0.913 0.315,1.181c0.21,0.269 0.503,0.403 0.88,0.403c0.371,0 0.662,-0.133 0.873,-0.399c0.212,-0.266 0.318,-0.661 0.318,-1.185Zm0.72,0c0,0.675 -0.173,1.208 -0.519,1.598c-0.347,0.392 -0.811,0.587 -1.392,0.587c-0.587,0 -1.052,-0.195 -1.397,-0.587c-0.345,-0.39 -0.518,-0.923 -0.518,-1.598c0,-0.676 0.173,-1.21 0.518,-1.602c0.345,-0.392 0.81,-0.588 1.397,-0.588c0.581,0 1.045,0.196 1.392,0.588c0.346,0.392 0.519,0.926 0.519,1.602Z" style="fill:#231f20;fill-rule:nonzero;"/><path d="M90.636,55.431l-0.697,0l0,-2.36c0,-0.191 -0.012,-0.369 -0.033,-0.536c-0.023,-0.167 -0.064,-0.297 -0.123,-0.392c-0.062,-0.103 -0.151,-0.181 -0.267,-0.231c-0.117,-0.051 -0.267,-0.076 -0.453,-0.076c-0.19,0 -0.39,0.046 -0.598,0.14c-0.208,0.095 -0.407,0.214 -0.597,0.361l0,3.094l-0.698,0l0,-4.145l0.698,0l0,0.461c0.218,-0.181 0.443,-0.323 0.676,-0.424c0.232,-0.101 0.471,-0.152 0.715,-0.152c0.449,0 0.789,0.135 1.025,0.405c0.235,0.269 0.352,0.658 0.352,1.165l0,2.69Z" style="fill:#231f20;fill-rule:nonzero;"/><path d="M94.759,49.212l-1.012,1.387l-0.553,0l0.664,-1.387l0.901,0Zm-0.252,5.199l0,-1.155c-0.212,0.013 -0.463,0.032 -0.752,0.056c-0.288,0.025 -0.516,0.061 -0.684,0.108c-0.2,0.057 -0.362,0.145 -0.486,0.265c-0.123,0.12 -0.186,0.285 -0.186,0.495c0,0.239 0.072,0.417 0.216,0.536c0.143,0.121 0.362,0.181 0.656,0.181c0.245,0 0.469,-0.048 0.672,-0.143c0.203,-0.095 0.391,-0.209 0.564,-0.343Zm0.694,1.02l-0.694,0l0,-0.441c-0.062,0.042 -0.145,0.1 -0.251,0.176c-0.104,0.076 -0.207,0.135 -0.305,0.18c-0.116,0.057 -0.25,0.105 -0.402,0.143c-0.15,0.038 -0.327,0.057 -0.53,0.057c-0.374,0 -0.69,-0.124 -0.95,-0.371c-0.26,-0.247 -0.39,-0.562 -0.39,-0.946c0,-0.314 0.068,-0.568 0.202,-0.763c0.135,-0.194 0.328,-0.346 0.578,-0.458c0.253,-0.111 0.555,-0.187 0.909,-0.226c0.353,-0.04 0.733,-0.07 1.139,-0.089l0,-0.108c0,-0.159 -0.028,-0.289 -0.084,-0.393c-0.055,-0.105 -0.134,-0.186 -0.239,-0.245c-0.098,-0.057 -0.218,-0.096 -0.356,-0.115c-0.139,-0.02 -0.283,-0.03 -0.434,-0.03c-0.183,0 -0.388,0.024 -0.612,0.073c-0.226,0.047 -0.458,0.118 -0.698,0.208l-0.038,0l0,-0.708c0.137,-0.037 0.333,-0.078 0.591,-0.122c0.257,-0.045 0.511,-0.067 0.761,-0.067c0.291,0 0.546,0.025 0.763,0.072c0.216,0.048 0.403,0.131 0.561,0.247c0.156,0.114 0.275,0.261 0.357,0.442c0.082,0.181 0.122,0.404 0.122,0.672l0,2.812Z" style="fill:#231f20;fill-rule:nonzero;"/><rect x="96.552" y="49.657" width="0.698" height="5.774" style="fill:#231f20;fill-rule:nonzero;"/><path d="M102.097,55.431l-0.698,0l0,-2.36c0,-0.191 -0.011,-0.369 -0.033,-0.536c-0.022,-0.167 -0.063,-0.297 -0.123,-0.392c-0.061,-0.103 -0.15,-0.181 -0.266,-0.231c-0.118,-0.051 -0.268,-0.076 -0.454,-0.076c-0.19,0 -0.389,0.046 -0.598,0.14c-0.208,0.095 -0.407,0.214 -0.597,0.361l0,3.094l-0.698,0l0,-4.145l0.698,0l0,0.461c0.217,-0.181 0.443,-0.323 0.676,-0.424c0.232,-0.101 0.472,-0.152 0.716,-0.152c0.448,0 0.789,0.135 1.024,0.405c0.236,0.269 0.353,0.658 0.353,1.165l0,2.69Z" style="fill:#231f20;fill-rule:nonzero;"/><path d="M104.146,55.431l-0.698,0l0,-4.145l0.698,0l0,4.145Zm0.768,-6.219l-1.014,1.387l-0.552,0l0.664,-1.387l0.902,0Z" style="fill:#231f20;fill-rule:nonzero;"/><path d="M110.785,52.046l-0.037,0c-0.104,-0.024 -0.205,-0.042 -0.303,-0.053c-0.097,-0.011 -0.214,-0.017 -0.346,-0.017c-0.216,0 -0.424,0.048 -0.624,0.143c-0.201,0.095 -0.394,0.218 -0.579,0.37l0,2.942l-0.698,0l0,-4.145l0.698,0l0,0.612c0.277,-0.223 0.521,-0.38 0.733,-0.473c0.211,-0.092 0.427,-0.139 0.647,-0.139c0.121,0 0.209,0.004 0.264,0.01c0.054,0.005 0.136,0.017 0.245,0.035l0,0.715Z" style="fill:#231f20;fill-rule:nonzero;"/><path d="M114.254,53.361c0,-0.537 -0.105,-0.937 -0.315,-1.197c-0.21,-0.261 -0.502,-0.392 -0.875,-0.392c-0.379,0 -0.673,0.131 -0.882,0.392c-0.209,0.26 -0.314,0.66 -0.314,1.197c0,0.519 0.106,0.913 0.316,1.181c0.21,0.269 0.503,0.403 0.88,0.403c0.371,0 0.662,-0.133 0.873,-0.399c0.211,-0.266 0.317,-0.661 0.317,-1.185Zm0.721,0c0,0.675 -0.174,1.208 -0.52,1.598c-0.347,0.392 -0.81,0.587 -1.391,0.587c-0.587,0 -1.053,-0.195 -1.398,-0.587c-0.345,-0.39 -0.518,-0.923 -0.518,-1.598c0,-0.676 0.173,-1.21 0.518,-1.602c0.345,-0.392 0.811,-0.588 1.398,-0.588c0.581,0 1.044,0.196 1.391,0.588c0.346,0.392 0.52,0.926 0.52,1.602Z" style="fill:#231f20;fill-rule:nonzero;"/><path d="M119.06,55.431l-3.348,0l0,-0.515l2.416,-3.047l-2.363,0l0,-0.583l3.231,0l0,0.498l-2.427,3.057l2.491,0l0,0.59Z" style="fill:#231f20;fill-rule:nonzero;"/><path d="M123.632,51.286l-1.678,4.145l-0.701,0l-1.666,-4.145l0.757,0l1.284,3.3l1.272,-3.3l0.732,0Z" style="fill:#231f20;fill-rule:nonzero;"/><path d="M127.291,53.361c0,-0.537 -0.104,-0.937 -0.315,-1.197c-0.21,-0.261 -0.502,-0.392 -0.875,-0.392c-0.379,0 -0.673,0.131 -0.882,0.392c-0.209,0.26 -0.314,0.66 -0.314,1.197c0,0.519 0.106,0.913 0.316,1.181c0.21,0.269 0.503,0.403 0.88,0.403c0.371,0 0.662,-0.133 0.873,-0.399c0.212,-0.266 0.317,-0.661 0.317,-1.185Zm0.72,0c0,0.675 -0.173,1.208 -0.519,1.598c-0.346,0.392 -0.81,0.587 -1.391,0.587c-0.587,0 -1.053,-0.195 -1.398,-0.587c-0.345,-0.39 -0.517,-0.923 -0.517,-1.598c0,-0.676 0.172,-1.21 0.517,-1.602c0.345,-0.392 0.811,-0.588 1.398,-0.588c0.581,0 1.045,0.196 1.391,0.588c0.346,0.392 0.519,0.926 0.519,1.602Z" style="fill:#231f20;fill-rule:nonzero;"/><path d="M130.382,50.592l-0.787,0l0,-0.723l0.787,0l0,0.723Zm-0.044,4.94c0,0.484 -0.124,0.85 -0.372,1.097c-0.248,0.249 -0.578,0.371 -0.994,0.371c-0.099,0 -0.23,-0.009 -0.392,-0.029c-0.161,-0.019 -0.297,-0.045 -0.407,-0.074l0,-0.664l0.038,0c0.069,0.027 0.162,0.058 0.28,0.093c0.117,0.034 0.233,0.052 0.344,0.052c0.178,0 0.321,-0.025 0.431,-0.075c0.107,-0.049 0.189,-0.124 0.243,-0.222c0.054,-0.099 0.091,-0.219 0.107,-0.359c0.016,-0.139 0.024,-0.309 0.024,-0.51l0,-3.339l-0.866,0l0,-0.587l1.564,0l0,4.246Z" style="fill:#231f20;fill-rule:nonzero;"/></g></svg>