<svg xmlns="http://www.w3.org/2000/svg" viewBox="0 0 32 32" fill="#FFF" stroke-miterlimit="10" stroke-width="2">
  <g transform="matrix(0.38090983,0,0,0.38090983,-2.2836718,-2.2836718)">
    <path stroke="#979593" d="M 67.1716,7 H 27 c -1.1046,0 -2,0.8954 -2,2 v 78 c 0,1.1046 0.8954,2 2,2 h 58 c 1.1046,0 2,-0.8954 2,-2 V 26.8284 C 87,26.298 86.7893,25.7893 86.4142,25.4142 L 68.5858,7.5858 C 68.2107,7.2107 67.702,7 67.1716,7 Z" />
    <path fill="none" stroke="#979593" d="m 67,7 v 18 c 0,1.1046 0.8954,2 2,2 h 18" />
    <path fill="#C8C6C4" d="M 79,61 H 48 v -2 h 31 c 0.5523,0 1,0.4477 1,1 v 0 c 0,0.5523 -0.4477,1 -1,1 z m 0,-6 H 48 v -2 h 31 c 0.5523,0 1,0.4477 1,1 v 0 c 0,0.5523 -0.4477,1 -1,1 z m 0,-6 H 48 v -2 h 31 c 0.5523,0 1,0.4477 1,1 v 0 c 0,0.5523 -0.4477,1 -1,1 z m 0,-6 H 48 v -2 h 31 c 0.5523,0 1,0.4477 1,1 v 0 c 0,0.5523 -0.4477,1 -1,1 z m 0,24 H 48 v -2 h 31 c 0.5523,0 1,0.4477 1,1 v 0 c 0,0.5523 -0.4477,1 -1,1 z" />
    <path fill="#185ABD" d="m 12,74 h 32 c 2.2091,0 4,-1.7909 4,-4 V 38 c 0,-2.2091 -1.7909,-4 -4,-4 H 12 c -2.2091,0 -4,1.7909 -4,4 v 32 c 0,2.2091 1.7909,4 4,4 z" />
    <path d="m 21.6245,60.6455 c 0.0661,0.522 0.109,0.9769 0.1296,1.3657 h 0.0762 c 0.0306,-0.3685 0.0889,-0.8129 0.1751,-1.3349 0.0862,-0.5211 0.1703,-0.961 0.2517,-1.319 L 25.7911,44 h 4.5702 l 3.6562,15.1272 c 0.183,0.7468 0.3353,1.6973 0.457,2.8532 h 0.0608 c 0.0508,-0.7979 0.1777,-1.7184 0.3809,-2.7615 L 37.8413,44 H 42 l -5.1183,22 h -4.86 L 28.5332,51.4256 c -0.1016,-0.4197 -0.2158,-0.9663 -0.3428,-1.6417 -0.127,-0.6745 -0.2057,-1.1656 -0.236,-1.4724 h -0.0608 c -0.0407,0.358 -0.1195,0.8896 -0.2364,1.595 -0.1169,0.7062 -0.211,1.2273 -0.2819,1.565 L 24.1,66 H 19.1643 L 14,44 h 4.2349 l 3.1843,15.3882 c 0.0709,0.3165 0.1392,0.7362 0.2053,1.2573 z"/>
  </g>
</svg>