<svg aria-hidden="true" role="img" xmlns="http://www.w3.org/2000/svg" viewBox="0 0 32 24"><path fill="currentColor" d="M 31.39375,7.9249998 C 31.6375,7.7312498 32,7.9124998 32,8.2187498 V 21 c 0,1.65625 -1.34375,3 -3,3 H 2.9999999 C 1.3437499,24 -4.5000001e-8,22.65625 -4.5000001e-8,21 V 8.2249998 c 0,-0.3125 0.356249995000001,-0.4875 0.606249995000001,-0.29375 C 2.0062499,9.0187498 3.8624999,10.4 10.2375,15.03125 c 1.31875,0.9625 3.54375,2.9875 5.7625,2.975 2.23125,0.01875 4.5,-2.05 5.76875,-2.975 6.375,-4.63125 8.225,-6.0187502 9.625,-7.1062502 z M 16,16 c 1.45,0.025 3.5375,-1.825 4.5875,-2.5875 C 28.88125,7.3937498 29.5125,6.8687498 31.425,5.3687496 31.7875,5.0874996 32,4.6499996 32,4.1874996 v -1.1875 C 32,1.3437496 30.65625,-3.4e-7 29,-3.4e-7 H 2.9999999 C 1.3437499,-3.4e-7 -4.5000001e-8,1.3437496 -4.5000001e-8,2.9999996 v 1.1875 c 0,0.4625 0.212499995000001,0.89375 0.574999995000001,1.18125 C 2.4874999,6.8624998 3.1187499,7.3937498 11.4125,13.4125 12.4625,14.175 14.55,16.025 16,16 Z"></path></svg>
