<svg aria-hidden="true" role="img" xmlns="http://www.w3.org/2000/svg" viewBox="0 0 32 32"><path fill="currentColor" d="m 27,20 h -2 a 1,1 0 0 0 -1,1 v 7 H 4 V 8 h 9 A 1,1 0 0 0 14,7 V 5 A 1,1 0 0 0 13,4 H 3 A 3,3 0 0 0 0,7 v 22 a 3,3 0 0 0 3,3 h 22 a 3,3 0 0 0 3,-3 V 21 A 1,1 0 0 0 27,20 Z M 30.5,0 h -8 C 21.164375,0 20.496875,1.619375 21.4375,2.5625 L 23.670625,4.795625 8.4375,20.023125 a 1.5,1.5 0 0 0 0,2.125 L 9.854375,23.5625 a 1.5,1.5 0 0 0 2.125,0 L 27.205,8.3325 l 2.2325,2.23 C 30.375,11.5 32,10.84375 32,9.5 v -8 A 1.5,1.5 0 0 0 30.5,0 Z"></path></svg>
