<svg aria-hidden="true" role="img" xmlns="http://www.w3.org/2000/svg" viewBox="0 0 32 32"><path fill="currentColor" d="m 31.087414,22.621431 -7.000121,-3.000053 a 1.500026,1.5000266 0 0 0 -1.750031,0.431258 l -3.100054,3.787567 A 23.166652,23.166661 0 0 1 8.1626412,12.765631 L 11.950207,9.6655764 A 1.496276,1.4962766 0 0 0 12.381464,7.9155453 L 9.3814123,0.91542098 A 1.5100262,1.5100268 0 0 0 7.6626325,0.04665555 L 1.1625196,1.5466822 A 1.500026,1.5000266 0 0 0 -5.6732557e-7,3.0085832 C -5.6732557e-7,19.040118 12.993975,32.009098 29.000503,32.009098 a 1.500026,1.5000266 0 0 0 1.462525,-1.16252 l 1.500026,-6.500116 a 1.5181514,1.518152 0 0 0 -0.87564,-1.725031 z"></path></svg>
