<?xml version="1.0" encoding="UTF-8" standalone="no"?><!DOCTYPE svg PUBLIC "-//W3C//DTD SVG 1.1//EN" "http://www.w3.org/Graphics/SVG/1.1/DTD/svg11.dtd"><svg width="100%" height="100%" viewBox="0 0 172 59" version="1.1" xmlns="http://www.w3.org/2000/svg" xmlns:xlink="http://www.w3.org/1999/xlink" xml:space="preserve" xmlns:serif="http://www.serif.com/" style="fill-rule:evenodd;clip-rule:evenodd;stroke-miterlimit:1.41421;"><g><rect x="32.938" y="30.043" width="24.196" height="16.051" style="fill:#fff;fill-rule:nonzero;"/><rect x="3.473" y="30.043" width="24.572" height="16.051" style="fill:#fff;fill-rule:nonzero;"/><rect x="32.938" y="38.036" width="24.196" height="8.058" style="fill:#ee282a;fill-rule:nonzero;"/><path d="M7.164,34.237l6.117,1.727l-2.384,-5.895l-0.091,-0.026l-5.338,0l1.696,4.194l-3.691,-1.043l0,5.221l6.075,1.716l-2.384,-5.894Z" style="fill:#0098d4;fill-rule:nonzero;"/><path d="M17.014,31.796l-0.709,-1.753l-5.418,0l0.01,0.026l6.117,1.727Z" style="fill:#0098d4;fill-rule:nonzero;"/><path d="M3.473,38.508l0,5.128l2.342,0.661l-2.342,-5.789Z" style="fill:#0098d4;fill-rule:nonzero;"/><path d="M17.015,31.796l2.384,5.895l6.117,1.727l-2.384,-5.894l4.913,1.388l0,-2.637l-0.902,-2.232l-5.419,0l1.407,3.481l-6.116,-1.728Z" style="fill:#0098d4;fill-rule:nonzero;"/><path d="M9.548,40.131l2.384,5.894l-6.117,-1.727l0.727,1.796l5.419,0l-0.028,-0.069l0.245,0.069l5.201,0l-1.713,-4.236l-6.118,-1.727Z" style="fill:#0098d4;fill-rule:nonzero;"/><path d="M27.9,45.312l-6.117,-1.727l1.015,2.509l5.247,0l0,-0.422l-0.145,-0.359l0.145,0.041l0,-5.222l-2.529,-0.714l2.384,5.894Z" style="fill:#0098d4;fill-rule:nonzero;"/><path d="M19.399,37.691l-6.118,-1.727l2.385,5.894l6.117,1.727l-2.384,-5.894Z" style="fill:#0098d4;fill-rule:nonzero;"/><path d="M30.678,19.847c13.175,0.011 22.514,2.198 30.678,6.688c-5.992,-5.424 -18.389,-8.072 -30.678,-8.072c-12.29,0 -24.687,2.648 -30.678,8.072c8.164,-4.49 17.503,-6.677 30.678,-6.688Z" style="fill:#004471;fill-rule:nonzero;"/><path d="M30.678,56.116c13.175,-0.011 22.514,-2.198 30.678,-6.688c-5.992,5.425 -18.389,8.072 -30.678,8.072c-12.29,0 -24.687,-2.647 -30.678,-8.072c8.164,4.49 17.503,6.677 30.678,6.688Z" style="fill:#004471;fill-rule:nonzero;"/><path d="M32.938,30.043l10.359,7.993l-10.359,8.058l0,-16.051Z" style="fill:#004471;fill-rule:nonzero;"/><rect x="32.938" y="30.043" width="24.196" height="16.051" style="fill:none;stroke:#004471;stroke-width:0.24px;"/><rect x="3.473" y="30.043" width="24.572" height="16.051" style="fill:none;stroke:#0098d4;stroke-width:0.24px;"/><path d="M20.269,27.682l-3.525,0l0,-0.794l2.091,-2.624l-1.989,0l0,-0.82l3.31,0l0,0.809l-2.089,2.609l2.202,0l0,0.82Z" style="fill:#004471;fill-rule:nonzero;"/><path d="M23.286,27.682l-2.456,0l0,-0.751l0.687,0l0,-2.735l-0.687,0l0,-0.752l2.456,0l0,0.752l-0.687,0l0,2.735l0.687,0l0,0.751Z" style="fill:#004471;fill-rule:nonzero;"/><path d="M27.203,27.682l-3.035,0l0,-4.238l3.035,0l0,0.82l-1.958,0l0,0.731l1.817,0l0,0.82l-1.817,0l0,1.047l1.958,0l0,0.82Z" style="fill:#004471;fill-rule:nonzero;"/><path d="M31.136,27.682l-3.026,0l0,-4.238l1.082,0l0,3.418l1.944,0l0,0.82Z" style="fill:#004471;fill-rule:nonzero;"/><path d="M36.793,27.682l-3.034,0l0,-4.238l3.034,0l0,0.82l-1.958,0l0,0.731l1.817,0l0,0.82l-1.817,0l0,1.047l1.958,0l0,0.82Z" style="fill:#004471;fill-rule:nonzero;"/><path d="M40.983,24.264l-1.31,0l0,3.418l-1.082,0l0,-3.418l-1.31,0l0,-0.82l3.702,0l0,0.82Z" style="fill:#004471;fill-rule:nonzero;"/><path d="M44.876,27.682l-3.524,0l0,-0.794l2.09,-2.624l-1.989,0l0,-0.82l3.311,0l0,0.809l-2.09,2.609l2.202,0l0,0.82Z" style="fill:#004471;fill-rule:nonzero;"/><path d="M20.392,53.189c-0.312,0 -0.6,-0.046 -0.863,-0.139c-0.264,-0.093 -0.491,-0.231 -0.681,-0.415c-0.19,-0.184 -0.337,-0.414 -0.441,-0.689c-0.104,-0.275 -0.156,-0.593 -0.156,-0.953c0,-0.336 0.05,-0.641 0.149,-0.914c0.1,-0.273 0.244,-0.507 0.434,-0.703c0.182,-0.188 0.408,-0.333 0.678,-0.435c0.269,-0.103 0.564,-0.154 0.883,-0.154c0.176,0 0.335,0.01 0.477,0.03c0.142,0.02 0.273,0.046 0.393,0.078c0.126,0.036 0.24,0.076 0.343,0.121c0.102,0.045 0.192,0.086 0.269,0.124l0,1.027l-0.124,0c-0.053,-0.045 -0.119,-0.099 -0.199,-0.161c-0.08,-0.062 -0.17,-0.124 -0.272,-0.184c-0.103,-0.061 -0.215,-0.112 -0.335,-0.153c-0.12,-0.042 -0.249,-0.062 -0.386,-0.062c-0.152,0 -0.297,0.024 -0.434,0.072c-0.137,0.048 -0.264,0.128 -0.38,0.24c-0.111,0.108 -0.201,0.251 -0.269,0.429c-0.069,0.178 -0.103,0.394 -0.103,0.647c0,0.265 0.037,0.487 0.111,0.665c0.074,0.178 0.168,0.318 0.281,0.42c0.114,0.104 0.242,0.179 0.383,0.223c0.141,0.045 0.28,0.067 0.417,0.067c0.131,0 0.261,-0.02 0.39,-0.06c0.129,-0.039 0.247,-0.093 0.356,-0.161c0.092,-0.055 0.178,-0.113 0.257,-0.176c0.079,-0.062 0.143,-0.116 0.194,-0.161l0.113,0l0,1.013c-0.105,0.048 -0.206,0.092 -0.302,0.134c-0.095,0.042 -0.196,0.078 -0.301,0.108c-0.137,0.04 -0.266,0.07 -0.386,0.091c-0.12,0.021 -0.286,0.031 -0.496,0.031Z" style="fill:#004471;fill-rule:nonzero;"/><path d="M24.706,47.276l0,0.057l-0.992,1.061l-0.693,0l0.696,-1.118l0.989,0Zm0.233,5.831l-2.456,0l0,-0.751l0.687,0l0,-2.735l-0.687,0l0,-0.751l2.456,0l0,0.751l-0.687,0l0,2.735l0.687,0l0,0.751Z" style="fill:#004471;fill-rule:nonzero;"/><path d="M28.847,53.107l-3.026,0l0,-4.237l1.082,0l0,3.417l1.944,0l0,0.82Z" style="fill:#004471;fill-rule:nonzero;"/><path d="M34.504,53.107l-3.034,0l0,-4.237l3.034,0l0,0.819l-1.958,0l0,0.731l1.818,0l0,0.82l-1.818,0l0,1.047l1.958,0l0,0.82Z" style="fill:#004471;fill-rule:nonzero;"/><path d="M38.046,47.276l0,0.057l-0.992,1.061l-0.693,0l0.696,-1.118l0.989,0Zm1.04,4.297c0,0.524 -0.158,0.925 -0.474,1.204c-0.315,0.279 -0.78,0.418 -1.394,0.418c-0.615,0 -1.079,-0.139 -1.394,-0.418c-0.314,-0.279 -0.472,-0.679 -0.472,-1.201l0,-2.706l1.088,0l0,2.643c0,0.294 0.061,0.514 0.183,0.658c0.122,0.144 0.32,0.216 0.595,0.216c0.27,0 0.468,-0.069 0.593,-0.208c0.124,-0.138 0.187,-0.36 0.187,-0.666l0,-2.643l1.088,0l0,2.703Z" style="fill:#004471;fill-rule:nonzero;"/><path d="M43.415,51.775c0,0.418 -0.175,0.757 -0.525,1.017c-0.351,0.261 -0.827,0.392 -1.428,0.392c-0.347,0 -0.65,-0.031 -0.908,-0.093c-0.258,-0.061 -0.5,-0.14 -0.726,-0.234l0,-1.016l0.119,0c0.223,0.18 0.473,0.318 0.751,0.415c0.277,0.097 0.543,0.145 0.798,0.145c0.066,0 0.152,-0.005 0.259,-0.017c0.108,-0.011 0.195,-0.03 0.262,-0.057c0.083,-0.034 0.151,-0.077 0.205,-0.128c0.053,-0.051 0.08,-0.127 0.08,-0.228c0,-0.092 -0.039,-0.173 -0.117,-0.24c-0.078,-0.067 -0.192,-0.119 -0.342,-0.155c-0.158,-0.038 -0.325,-0.074 -0.5,-0.107c-0.176,-0.033 -0.341,-0.075 -0.495,-0.126c-0.353,-0.116 -0.607,-0.273 -0.762,-0.471c-0.155,-0.199 -0.232,-0.445 -0.232,-0.739c0,-0.394 0.175,-0.717 0.525,-0.966c0.35,-0.25 0.801,-0.374 1.351,-0.374c0.276,0 0.549,0.027 0.819,0.081c0.269,0.054 0.502,0.122 0.7,0.203l0,0.976l-0.116,0c-0.169,-0.136 -0.376,-0.25 -0.621,-0.343c-0.245,-0.092 -0.495,-0.138 -0.751,-0.138c-0.09,0 -0.18,0.007 -0.269,0.019c-0.089,0.012 -0.175,0.036 -0.258,0.07c-0.073,0.028 -0.136,0.071 -0.189,0.129c-0.052,0.058 -0.078,0.124 -0.078,0.198c0,0.112 0.042,0.198 0.126,0.257c0.085,0.06 0.245,0.115 0.479,0.164c0.154,0.032 0.302,0.064 0.444,0.094c0.142,0.03 0.294,0.072 0.458,0.125c0.321,0.107 0.558,0.251 0.711,0.434c0.153,0.183 0.23,0.421 0.23,0.713Z" style="fill:#004471;fill-rule:nonzero;"/><path d="M73.207,8.037l-4.642,0l0,-1.036l2.753,-3.421l-2.619,0l0,-1.069l4.36,0l0,1.054l-2.752,3.403l2.9,0l0,1.069Z" style="fill:#231f20;fill-rule:nonzero;"/><path d="M75.46,8.037l-1.34,0l0,-4.167l1.34,0l0,4.167Zm0.037,-4.761l-1.414,0l0,-1.014l1.414,0l0,1.014Z" style="fill:#231f20;fill-rule:nonzero;"/><path d="M79.494,5.416c-0.007,-0.279 -0.077,-0.489 -0.208,-0.63c-0.131,-0.141 -0.335,-0.211 -0.612,-0.211c-0.258,0 -0.47,0.066 -0.635,0.2c-0.166,0.134 -0.258,0.348 -0.278,0.641l1.733,0Zm1.329,0.784l-3.058,0c0.02,0.326 0.144,0.576 0.373,0.75c0.229,0.173 0.565,0.259 1.011,0.259c0.282,0 0.555,-0.05 0.82,-0.152c0.265,-0.101 0.474,-0.21 0.627,-0.327l0.148,0l0,1.073c-0.301,0.121 -0.585,0.209 -0.853,0.263c-0.268,0.055 -0.563,0.082 -0.887,0.082c-0.837,0 -1.477,-0.188 -1.923,-0.565c-0.445,-0.375 -0.668,-0.911 -0.668,-1.606c0,-0.687 0.211,-1.232 0.633,-1.635c0.422,-0.402 1,-0.602 1.736,-0.602c0.677,0 1.187,0.171 1.528,0.513c0.342,0.343 0.513,0.836 0.513,1.479l0,0.468Z" style="fill:#231f20;fill-rule:nonzero;"/><rect x="81.765" y="2.262" width="1.34" height="5.775" style="fill:#231f20;fill-rule:nonzero;"/><path d="M91.032,8.037l-3.997,0l0,-5.526l3.997,0l0,1.069l-2.58,0l0,0.954l2.394,0l0,1.068l-2.394,0l0,1.366l2.58,0l0,1.069Z" style="fill:#231f20;fill-rule:nonzero;"/><path d="M96.549,3.58l-1.725,0l0,4.457l-1.425,0l0,-4.457l-1.726,0l0,-1.069l4.876,0l0,1.069Z" style="fill:#231f20;fill-rule:nonzero;"/><path d="M101.679,8.037l-4.644,0l0,-1.036l2.753,-3.421l-2.619,0l0,-1.069l4.361,0l0,1.054l-2.752,3.403l2.901,0l0,1.069Z" style="fill:#231f20;fill-rule:nonzero;"/><rect x="104.936" y="2.262" width="0.804" height="5.775" style="fill:#231f20;fill-rule:nonzero;"/><path d="M111.916,8.144c-0.41,0 -0.789,-0.061 -1.137,-0.182c-0.348,-0.121 -0.646,-0.301 -0.896,-0.542c-0.25,-0.239 -0.444,-0.539 -0.581,-0.897c-0.137,-0.359 -0.206,-0.773 -0.206,-1.243c0,-0.439 0.065,-0.835 0.197,-1.192c0.131,-0.356 0.321,-0.662 0.571,-0.917c0.24,-0.245 0.537,-0.433 0.893,-0.567c0.354,-0.134 0.742,-0.2 1.163,-0.2c0.232,0 0.442,0.012 0.629,0.039c0.187,0.025 0.359,0.059 0.517,0.101c0.166,0.047 0.317,0.1 0.451,0.159c0.135,0.057 0.253,0.111 0.355,0.161l0,1.34l-0.163,0c-0.07,-0.06 -0.156,-0.13 -0.262,-0.211c-0.105,-0.081 -0.225,-0.161 -0.358,-0.241c-0.136,-0.078 -0.284,-0.144 -0.442,-0.199c-0.158,-0.053 -0.328,-0.081 -0.509,-0.081c-0.2,0 -0.39,0.031 -0.571,0.095c-0.18,0.062 -0.347,0.167 -0.501,0.312c-0.145,0.141 -0.263,0.328 -0.354,0.56c-0.09,0.231 -0.135,0.514 -0.135,0.844c0,0.345 0.049,0.634 0.146,0.867c0.098,0.231 0.221,0.415 0.37,0.548c0.15,0.135 0.319,0.232 0.504,0.291c0.186,0.057 0.369,0.087 0.549,0.087c0.173,0 0.345,-0.027 0.514,-0.078c0.17,-0.051 0.326,-0.122 0.47,-0.21c0.121,-0.072 0.233,-0.148 0.338,-0.229c0.103,-0.082 0.189,-0.151 0.255,-0.211l0.149,0l0,1.321c-0.139,0.062 -0.271,0.121 -0.398,0.174c-0.126,0.055 -0.257,0.102 -0.396,0.142c-0.181,0.052 -0.351,0.091 -0.509,0.118c-0.158,0.027 -0.376,0.041 -0.653,0.041Z" style="fill:#231f20;fill-rule:nonzero;"/><path d="M116.184,8.037l-1.339,0l0,-4.167l1.339,0l0,4.167Zm0.638,-6.22l0,0.074l-1.306,1.385l-0.913,0l0.917,-1.459l1.302,0Z" style="fill:#231f20;fill-rule:nonzero;"/><rect x="117.442" y="2.262" width="1.34" height="5.775" style="fill:#231f20;fill-rule:nonzero;"/><path d="M126.709,8.037l-3.997,0l0,-5.526l3.997,0l0,1.069l-2.579,0l0,0.954l2.393,0l0,1.068l-2.393,0l0,1.366l2.579,0l0,1.069Z" style="fill:#231f20;fill-rule:nonzero;"/><path d="M131.373,0.433l0,0.074l-1.308,1.384l-0.911,0l0.916,-1.458l1.303,0Zm1.369,5.604c0,0.682 -0.208,1.206 -0.623,1.569c-0.416,0.364 -1.028,0.546 -1.837,0.546c-0.81,0 -1.422,-0.182 -1.835,-0.546c-0.415,-0.363 -0.622,-0.886 -0.622,-1.565l0,-3.53l1.432,0l0,3.447c0,0.384 0.081,0.669 0.241,0.858c0.162,0.187 0.423,0.282 0.784,0.282c0.356,0 0.615,-0.091 0.781,-0.271c0.164,-0.181 0.246,-0.47 0.246,-0.869l0,-3.447l1.433,0l0,3.526Z" style="fill:#231f20;fill-rule:nonzero;"/><path d="M138.498,6.3c0,0.544 -0.232,0.987 -0.693,1.326c-0.461,0.34 -1.087,0.511 -1.879,0.511c-0.458,0 -0.857,-0.041 -1.197,-0.121c-0.341,-0.08 -0.659,-0.183 -0.956,-0.306l0,-1.325l0.157,0c0.293,0.236 0.624,0.416 0.988,0.542c0.365,0.126 0.716,0.19 1.053,0.19c0.085,0 0.2,-0.008 0.34,-0.023c0.142,-0.014 0.257,-0.04 0.346,-0.074c0.108,-0.045 0.198,-0.101 0.269,-0.167c0.07,-0.067 0.106,-0.166 0.106,-0.297c0,-0.121 -0.052,-0.225 -0.154,-0.313c-0.103,-0.088 -0.253,-0.156 -0.451,-0.202c-0.208,-0.05 -0.427,-0.097 -0.659,-0.14c-0.231,-0.043 -0.449,-0.099 -0.651,-0.165c-0.466,-0.151 -0.8,-0.356 -1.004,-0.614c-0.204,-0.259 -0.307,-0.58 -0.307,-0.963c0,-0.515 0.232,-0.935 0.693,-1.26c0.462,-0.325 1.055,-0.488 1.779,-0.488c0.364,0 0.724,0.035 1.078,0.106c0.356,0.07 0.662,0.158 0.922,0.265l0,1.273l-0.151,0c-0.223,-0.179 -0.496,-0.327 -0.819,-0.447c-0.323,-0.12 -0.653,-0.181 -0.989,-0.181c-0.119,0 -0.237,0.009 -0.354,0.025c-0.118,0.016 -0.231,0.047 -0.34,0.09c-0.096,0.038 -0.179,0.094 -0.248,0.169c-0.07,0.076 -0.105,0.162 -0.105,0.258c0,0.147 0.056,0.258 0.167,0.336c0.112,0.078 0.323,0.15 0.631,0.214c0.203,0.042 0.399,0.083 0.585,0.122c0.187,0.04 0.388,0.094 0.603,0.163c0.423,0.139 0.735,0.327 0.937,0.567c0.201,0.238 0.303,0.548 0.303,0.929Z" style="fill:#231f20;fill-rule:nonzero;"/><path d="M72.502,13.285l-2.795,0l0,1.558l2.402,0l0,0.653l-2.402,0l0,2.661l-0.734,0l0,-5.526l3.529,0l0,0.654Z" style="fill:#231f20;fill-rule:nonzero;"/><path d="M75.872,14.772l-0.037,0c-0.104,-0.024 -0.205,-0.042 -0.302,-0.054c-0.098,-0.011 -0.214,-0.016 -0.347,-0.016c-0.216,0 -0.424,0.047 -0.624,0.142c-0.2,0.096 -0.394,0.219 -0.579,0.37l0,2.943l-0.698,0l0,-4.146l0.698,0l0,0.612c0.277,-0.222 0.521,-0.379 0.733,-0.472c0.211,-0.093 0.427,-0.14 0.648,-0.14c0.121,0 0.209,0.004 0.263,0.01c0.054,0.006 0.136,0.018 0.245,0.035l0,0.716Z" style="fill:#231f20;fill-rule:nonzero;"/><path d="M79.32,15.623c-0.003,-0.367 -0.095,-0.65 -0.277,-0.851c-0.182,-0.2 -0.459,-0.3 -0.83,-0.3c-0.373,0 -0.671,0.109 -0.892,0.33c-0.221,0.22 -0.347,0.493 -0.376,0.821l2.375,0Zm0.678,0.534l-3.053,0c0,0.255 0.038,0.476 0.114,0.666c0.077,0.189 0.183,0.344 0.315,0.466c0.129,0.118 0.283,0.208 0.459,0.266c0.177,0.06 0.371,0.09 0.584,0.09c0.283,0 0.567,-0.057 0.852,-0.169c0.286,-0.113 0.489,-0.224 0.61,-0.332l0.037,0l0,0.761c-0.234,0.098 -0.474,0.181 -0.719,0.248c-0.245,0.067 -0.502,0.1 -0.772,0.1c-0.688,0 -1.224,-0.186 -1.61,-0.558c-0.387,-0.372 -0.579,-0.902 -0.579,-1.587c0,-0.678 0.184,-1.216 0.554,-1.614c0.37,-0.398 0.857,-0.597 1.46,-0.597c0.56,0 0.991,0.163 1.293,0.489c0.304,0.327 0.455,0.791 0.455,1.392l0,0.379Z" style="fill:#231f20;fill-rule:nonzero;"/><path d="M81.761,18.157l-0.697,0l0,-4.146l0.697,0l0,4.146Zm0.045,-4.839l-0.787,0l0,-0.724l0.787,0l0,0.724Z" style="fill:#231f20;fill-rule:nonzero;"/><path d="M86.103,16.961c0,0.379 -0.156,0.69 -0.469,0.932c-0.313,0.243 -0.74,0.364 -1.282,0.364c-0.307,0 -0.588,-0.037 -0.845,-0.11c-0.256,-0.072 -0.471,-0.152 -0.643,-0.239l0,-0.783l0.037,0c0.219,0.165 0.465,0.297 0.734,0.395c0.27,0.098 0.528,0.146 0.776,0.146c0.307,0 0.546,-0.048 0.72,-0.148c0.173,-0.099 0.26,-0.254 0.26,-0.467c0,-0.164 -0.047,-0.287 -0.142,-0.371c-0.093,-0.084 -0.274,-0.156 -0.541,-0.216c-0.099,-0.022 -0.228,-0.048 -0.387,-0.078c-0.161,-0.029 -0.306,-0.061 -0.437,-0.096c-0.363,-0.096 -0.622,-0.238 -0.773,-0.424c-0.153,-0.188 -0.229,-0.417 -0.229,-0.689c0,-0.171 0.035,-0.332 0.106,-0.482c0.071,-0.152 0.177,-0.286 0.321,-0.406c0.139,-0.116 0.314,-0.208 0.529,-0.276c0.214,-0.067 0.453,-0.101 0.718,-0.101c0.247,0 0.498,0.03 0.751,0.09c0.254,0.061 0.465,0.134 0.633,0.221l0,0.746l-0.037,0c-0.178,-0.131 -0.395,-0.242 -0.65,-0.332c-0.255,-0.091 -0.505,-0.136 -0.749,-0.136c-0.255,0 -0.47,0.049 -0.646,0.147c-0.176,0.098 -0.263,0.243 -0.263,0.436c0,0.17 0.053,0.299 0.159,0.386c0.104,0.087 0.273,0.157 0.505,0.211c0.128,0.03 0.273,0.06 0.433,0.09c0.159,0.029 0.292,0.057 0.398,0.081c0.324,0.074 0.574,0.202 0.75,0.383c0.175,0.182 0.263,0.425 0.263,0.726Z" style="fill:#231f20;fill-rule:nonzero;"/><path d="M89.254,18.12c-0.131,0.035 -0.274,0.063 -0.428,0.085c-0.155,0.022 -0.293,0.034 -0.415,0.034c-0.422,0 -0.744,-0.115 -0.964,-0.342c-0.22,-0.228 -0.33,-0.593 -0.33,-1.095l0,-2.204l-0.471,0l0,-0.587l0.471,0l0,-1.19l0.698,0l0,1.19l1.439,0l0,0.587l-1.439,0l0,1.889c0,0.218 0.005,0.387 0.014,0.51c0.01,0.123 0.044,0.237 0.104,0.343c0.055,0.099 0.13,0.171 0.225,0.217c0.095,0.046 0.24,0.069 0.436,0.069c0.113,0 0.233,-0.016 0.356,-0.05c0.124,-0.034 0.212,-0.061 0.267,-0.083l0.037,0l0,0.627Z" style="fill:#231f20;fill-rule:nonzero;"/><path d="M92.624,17.136l0,-1.154c-0.213,0.013 -0.464,0.031 -0.752,0.056c-0.288,0.025 -0.516,0.06 -0.684,0.107c-0.2,0.058 -0.362,0.145 -0.486,0.266c-0.124,0.12 -0.186,0.285 -0.186,0.495c0,0.238 0.072,0.417 0.216,0.536c0.143,0.12 0.362,0.181 0.656,0.181c0.245,0 0.469,-0.048 0.672,-0.144c0.203,-0.095 0.391,-0.209 0.564,-0.343Zm0.694,1.021l-0.694,0l0,-0.442c-0.062,0.042 -0.145,0.101 -0.251,0.176c-0.104,0.076 -0.207,0.136 -0.305,0.181c-0.116,0.056 -0.25,0.104 -0.402,0.142c-0.15,0.038 -0.327,0.058 -0.53,0.058c-0.374,0 -0.69,-0.124 -0.95,-0.371c-0.26,-0.247 -0.39,-0.563 -0.39,-0.946c0,-0.315 0.068,-0.569 0.202,-0.763c0.135,-0.194 0.328,-0.347 0.578,-0.458c0.252,-0.111 0.555,-0.188 0.909,-0.227c0.353,-0.04 0.733,-0.069 1.139,-0.089l0,-0.108c0,-0.158 -0.028,-0.289 -0.084,-0.393c-0.055,-0.104 -0.134,-0.185 -0.239,-0.245c-0.099,-0.056 -0.218,-0.095 -0.356,-0.115c-0.139,-0.019 -0.284,-0.029 -0.434,-0.029c-0.184,0 -0.388,0.023 -0.612,0.072c-0.226,0.048 -0.458,0.118 -0.698,0.209l-0.038,0l0,-0.708c0.137,-0.037 0.333,-0.078 0.591,-0.123c0.257,-0.044 0.511,-0.066 0.761,-0.066c0.291,0 0.546,0.024 0.763,0.072c0.216,0.048 0.403,0.131 0.561,0.247c0.156,0.113 0.275,0.261 0.357,0.441c0.082,0.181 0.122,0.405 0.122,0.672l0,2.813Z" style="fill:#231f20;fill-rule:nonzero;"/><path d="M97.189,17.136l0,-1.154c-0.213,0.013 -0.464,0.031 -0.752,0.056c-0.288,0.025 -0.517,0.06 -0.685,0.107c-0.2,0.058 -0.362,0.145 -0.486,0.266c-0.123,0.12 -0.186,0.285 -0.186,0.495c0,0.238 0.073,0.417 0.216,0.536c0.144,0.12 0.363,0.181 0.656,0.181c0.246,0 0.469,-0.048 0.672,-0.144c0.203,-0.095 0.391,-0.209 0.565,-0.343Zm0.693,1.021l-0.693,0l0,-0.442c-0.063,0.042 -0.146,0.101 -0.251,0.176c-0.105,0.076 -0.207,0.136 -0.306,0.181c-0.116,0.056 -0.25,0.104 -0.401,0.142c-0.151,0.038 -0.327,0.058 -0.53,0.058c-0.374,0 -0.691,-0.124 -0.951,-0.371c-0.259,-0.247 -0.389,-0.563 -0.389,-0.946c0,-0.315 0.067,-0.569 0.202,-0.763c0.135,-0.194 0.327,-0.347 0.577,-0.458c0.253,-0.111 0.556,-0.188 0.909,-0.227c0.354,-0.04 0.734,-0.069 1.14,-0.089l0,-0.108c0,-0.158 -0.029,-0.289 -0.084,-0.393c-0.056,-0.104 -0.135,-0.185 -0.239,-0.245c-0.099,-0.056 -0.218,-0.095 -0.357,-0.115c-0.139,-0.019 -0.283,-0.029 -0.433,-0.029c-0.184,0 -0.388,0.023 -0.613,0.072c-0.225,0.048 -0.458,0.118 -0.698,0.209l-0.037,0l0,-0.708c0.137,-0.037 0.333,-0.078 0.591,-0.123c0.257,-0.044 0.51,-0.066 0.76,-0.066c0.291,0 0.546,0.024 0.763,0.072c0.216,0.048 0.403,0.131 0.562,0.247c0.156,0.113 0.274,0.261 0.356,0.441c0.082,0.181 0.122,0.405 0.122,0.672l0,2.813Z" style="fill:#231f20;fill-rule:nonzero;"/><path d="M101.379,18.12c-0.131,0.035 -0.275,0.063 -0.429,0.085c-0.154,0.022 -0.293,0.034 -0.414,0.034c-0.423,0 -0.745,-0.115 -0.965,-0.342c-0.22,-0.228 -0.33,-0.593 -0.33,-1.095l0,-2.204l-0.471,0l0,-0.587l0.471,0l0,-1.19l0.698,0l0,1.19l1.44,0l0,0.587l-1.44,0l0,1.889c0,0.218 0.005,0.387 0.014,0.51c0.01,0.123 0.044,0.237 0.104,0.343c0.055,0.099 0.13,0.171 0.225,0.217c0.096,0.046 0.24,0.069 0.437,0.069c0.113,0 0.232,-0.016 0.355,-0.05c0.124,-0.034 0.213,-0.061 0.268,-0.083l0.037,0l0,0.627Z" style="fill:#231f20;fill-rule:nonzero;"/><path d="M108.352,16.487c0,-0.223 -0.034,-0.4 -0.1,-0.531c-0.067,-0.131 -0.189,-0.243 -0.364,-0.333c-0.119,-0.063 -0.263,-0.103 -0.432,-0.122c-0.17,-0.018 -0.376,-0.027 -0.618,-0.027l-1.155,0l0,2.056l0.973,0c0.321,0 0.585,-0.017 0.79,-0.051c0.206,-0.033 0.374,-0.094 0.505,-0.184c0.139,-0.095 0.24,-0.206 0.305,-0.33c0.064,-0.123 0.096,-0.283 0.096,-0.478Zm-0.471,-2.52c0,-0.134 -0.023,-0.246 -0.067,-0.338c-0.045,-0.091 -0.117,-0.166 -0.216,-0.222c-0.116,-0.067 -0.256,-0.109 -0.422,-0.124c-0.166,-0.017 -0.371,-0.025 -0.617,-0.025l-0.876,0l0,1.596l0.951,0c0.23,0 0.413,-0.012 0.549,-0.035c0.136,-0.024 0.262,-0.072 0.378,-0.147c0.117,-0.074 0.199,-0.17 0.247,-0.288c0.048,-0.117 0.073,-0.256 0.073,-0.417Zm1.235,2.49c0,0.275 -0.052,0.517 -0.155,0.727c-0.105,0.211 -0.244,0.384 -0.42,0.52c-0.207,0.164 -0.436,0.28 -0.685,0.349c-0.248,0.07 -0.564,0.104 -0.948,0.104l-1.959,0l0,-5.526l1.637,0c0.403,0 0.705,0.015 0.905,0.044c0.2,0.031 0.392,0.092 0.575,0.186c0.203,0.106 0.35,0.243 0.442,0.41c0.091,0.167 0.137,0.367 0.137,0.6c0,0.262 -0.067,0.485 -0.2,0.669c-0.134,0.185 -0.312,0.333 -0.535,0.444l0,0.029c0.374,0.077 0.668,0.241 0.884,0.492c0.215,0.251 0.322,0.569 0.322,0.952Z" style="fill:#231f20;fill-rule:nonzero;"/><path d="M112.631,17.136l0,-1.154c-0.213,0.013 -0.464,0.031 -0.752,0.056c-0.288,0.025 -0.517,0.06 -0.685,0.107c-0.2,0.058 -0.362,0.145 -0.486,0.266c-0.123,0.12 -0.186,0.285 -0.186,0.495c0,0.238 0.073,0.417 0.216,0.536c0.144,0.12 0.362,0.181 0.656,0.181c0.245,0 0.469,-0.048 0.672,-0.144c0.203,-0.095 0.391,-0.209 0.565,-0.343Zm0.693,1.021l-0.693,0l0,-0.442c-0.063,0.042 -0.146,0.101 -0.251,0.176c-0.105,0.076 -0.207,0.136 -0.306,0.181c-0.116,0.056 -0.25,0.104 -0.401,0.142c-0.151,0.038 -0.327,0.058 -0.531,0.058c-0.374,0 -0.69,-0.124 -0.95,-0.371c-0.26,-0.247 -0.389,-0.563 -0.389,-0.946c0,-0.315 0.067,-0.569 0.202,-0.763c0.134,-0.194 0.327,-0.347 0.577,-0.458c0.253,-0.111 0.556,-0.188 0.909,-0.227c0.354,-0.04 0.733,-0.069 1.14,-0.089l0,-0.108c0,-0.158 -0.029,-0.289 -0.084,-0.393c-0.056,-0.104 -0.135,-0.185 -0.24,-0.245c-0.098,-0.056 -0.217,-0.095 -0.356,-0.115c-0.139,-0.019 -0.283,-0.029 -0.434,-0.029c-0.183,0 -0.387,0.023 -0.612,0.072c-0.225,0.048 -0.458,0.118 -0.698,0.209l-0.037,0l0,-0.708c0.136,-0.037 0.333,-0.078 0.591,-0.123c0.256,-0.044 0.51,-0.066 0.76,-0.066c0.291,0 0.546,0.024 0.763,0.072c0.216,0.048 0.403,0.131 0.562,0.247c0.156,0.113 0.274,0.261 0.356,0.441c0.082,0.181 0.122,0.405 0.122,0.672l0,2.813Z" style="fill:#231f20;fill-rule:nonzero;"/><path d="M118.193,14.011l-2.42,5.675l-0.746,0l0.773,-1.73l-1.652,-3.945l0.757,0l1.273,3.073l1.284,-3.073l0.731,0Z" style="fill:#231f20;fill-rule:nonzero;"/><path d="M121.831,15.623c-0.003,-0.367 -0.095,-0.65 -0.276,-0.851c-0.183,-0.2 -0.459,-0.3 -0.831,-0.3c-0.373,0 -0.67,0.109 -0.892,0.33c-0.221,0.22 -0.347,0.493 -0.376,0.821l2.375,0Zm0.679,0.534l-3.054,0c0,0.255 0.038,0.476 0.114,0.666c0.077,0.189 0.183,0.344 0.316,0.466c0.128,0.118 0.282,0.208 0.459,0.266c0.176,0.06 0.371,0.09 0.584,0.09c0.282,0 0.566,-0.057 0.851,-0.169c0.286,-0.113 0.489,-0.224 0.61,-0.332l0.038,0l0,0.761c-0.235,0.098 -0.475,0.181 -0.72,0.248c-0.245,0.067 -0.502,0.1 -0.772,0.1c-0.688,0 -1.224,-0.186 -1.61,-0.558c-0.387,-0.372 -0.579,-0.902 -0.579,-1.587c0,-0.678 0.184,-1.216 0.555,-1.614c0.37,-0.398 0.856,-0.597 1.46,-0.597c0.559,0 0.99,0.163 1.293,0.489c0.303,0.327 0.455,0.791 0.455,1.392l0,0.379Z" style="fill:#231f20;fill-rule:nonzero;"/><path d="M126.154,14.772l-0.037,0c-0.104,-0.024 -0.205,-0.042 -0.303,-0.054c-0.097,-0.011 -0.214,-0.016 -0.346,-0.016c-0.216,0 -0.424,0.047 -0.624,0.142c-0.201,0.096 -0.394,0.219 -0.58,0.37l0,2.943l-0.697,0l0,-4.146l0.697,0l0,0.612c0.278,-0.222 0.522,-0.379 0.734,-0.472c0.211,-0.093 0.427,-0.14 0.647,-0.14c0.121,0 0.209,0.004 0.264,0.01c0.054,0.006 0.136,0.018 0.245,0.035l0,0.716Z" style="fill:#231f20;fill-rule:nonzero;"/><path d="M130.276,18.157l-0.698,0l0,-2.361c0,-0.19 -0.011,-0.369 -0.032,-0.536c-0.024,-0.167 -0.065,-0.297 -0.123,-0.391c-0.063,-0.104 -0.151,-0.181 -0.267,-0.232c-0.117,-0.051 -0.268,-0.076 -0.453,-0.076c-0.19,0 -0.39,0.047 -0.599,0.141c-0.207,0.094 -0.406,0.213 -0.596,0.36l0,3.095l-0.698,0l0,-4.146l0.698,0l0,0.461c0.217,-0.181 0.443,-0.322 0.675,-0.424c0.233,-0.1 0.472,-0.151 0.716,-0.151c0.448,0 0.789,0.135 1.024,0.404c0.236,0.27 0.353,0.658 0.353,1.165l0,2.691Z" style="fill:#231f20;fill-rule:nonzero;"/><rect x="134.173" y="15.44" width="3.696" height="0.594" style="fill:#231f20;fill-rule:nonzero;"/><path d="M72.914,22.405l-1.974,0l0,4.872l-0.735,0l0,-4.872l-1.974,0l0,-0.654l4.683,0l0,0.654Z" style="fill:#231f20;fill-rule:nonzero;"/><path d="M75.894,26.081c0,0.379 -0.156,0.69 -0.469,0.932c-0.313,0.243 -0.74,0.364 -1.282,0.364c-0.307,0 -0.588,-0.037 -0.845,-0.11c-0.256,-0.072 -0.471,-0.152 -0.643,-0.239l0,-0.782l0.037,0c0.219,0.165 0.465,0.296 0.734,0.394c0.27,0.098 0.528,0.147 0.776,0.147c0.307,0 0.546,-0.049 0.72,-0.149c0.173,-0.099 0.26,-0.254 0.26,-0.467c0,-0.164 -0.047,-0.287 -0.142,-0.371c-0.093,-0.084 -0.274,-0.156 -0.541,-0.216c-0.099,-0.022 -0.228,-0.047 -0.387,-0.078c-0.16,-0.029 -0.306,-0.061 -0.437,-0.095c-0.363,-0.097 -0.622,-0.239 -0.773,-0.425c-0.153,-0.188 -0.229,-0.417 -0.229,-0.689c0,-0.171 0.035,-0.332 0.106,-0.482c0.071,-0.151 0.177,-0.286 0.321,-0.405c0.139,-0.117 0.314,-0.208 0.529,-0.277c0.214,-0.067 0.453,-0.101 0.718,-0.101c0.247,0 0.498,0.03 0.751,0.091c0.254,0.06 0.465,0.133 0.633,0.22l0,0.746l-0.037,0c-0.178,-0.131 -0.395,-0.242 -0.65,-0.332c-0.255,-0.091 -0.505,-0.135 -0.749,-0.135c-0.255,0 -0.47,0.048 -0.646,0.146c-0.176,0.098 -0.263,0.243 -0.263,0.437c0,0.169 0.053,0.298 0.159,0.385c0.104,0.087 0.273,0.158 0.505,0.211c0.128,0.03 0.273,0.06 0.433,0.09c0.159,0.029 0.292,0.057 0.398,0.081c0.324,0.074 0.574,0.202 0.75,0.383c0.175,0.183 0.263,0.425 0.263,0.726Z" style="fill:#231f20;fill-rule:nonzero;"/><path d="M79.958,27.017c-0.232,0.111 -0.453,0.198 -0.662,0.26c-0.21,0.061 -0.431,0.093 -0.667,0.093c-0.299,0 -0.573,-0.044 -0.823,-0.132c-0.25,-0.088 -0.464,-0.221 -0.643,-0.399c-0.18,-0.178 -0.32,-0.403 -0.419,-0.675c-0.098,-0.273 -0.148,-0.59 -0.148,-0.955c0,-0.677 0.187,-1.209 0.559,-1.595c0.372,-0.386 0.864,-0.578 1.474,-0.578c0.239,0 0.471,0.033 0.7,0.099c0.229,0.068 0.439,0.149 0.629,0.245l0,0.776l-0.037,0c-0.213,-0.165 -0.432,-0.293 -0.659,-0.382c-0.226,-0.089 -0.447,-0.134 -0.662,-0.134c-0.396,0 -0.708,0.133 -0.937,0.399c-0.229,0.266 -0.343,0.657 -0.343,1.17c0,0.5 0.112,0.884 0.336,1.153c0.223,0.268 0.538,0.403 0.944,0.403c0.141,0 0.284,-0.018 0.431,-0.056c0.145,-0.037 0.276,-0.086 0.393,-0.145c0.101,-0.052 0.196,-0.107 0.285,-0.165c0.089,-0.058 0.16,-0.108 0.212,-0.151l0.037,0l0,0.769Z" style="fill:#231f20;fill-rule:nonzero;"/><path d="M84.319,27.277l-0.698,0l0,-2.361c0,-0.19 -0.011,-0.369 -0.033,-0.536c-0.022,-0.167 -0.063,-0.297 -0.123,-0.391c-0.061,-0.104 -0.15,-0.181 -0.266,-0.232c-0.118,-0.051 -0.268,-0.076 -0.454,-0.076c-0.19,0 -0.389,0.047 -0.597,0.141c-0.208,0.094 -0.407,0.214 -0.598,0.36l0,3.095l-0.697,0l0,-5.775l0.697,0l0,2.09c0.218,-0.18 0.444,-0.322 0.676,-0.424c0.232,-0.1 0.472,-0.151 0.716,-0.151c0.448,0 0.789,0.135 1.024,0.404c0.236,0.27 0.353,0.659 0.353,1.165l0,2.691Z" style="fill:#231f20;fill-rule:nonzero;"/><path d="M88.453,24.743c-0.002,-0.367 -0.094,-0.65 -0.276,-0.851c-0.183,-0.2 -0.459,-0.3 -0.83,-0.3c-0.373,0 -0.671,0.11 -0.893,0.33c-0.22,0.22 -0.346,0.493 -0.376,0.821l2.375,0Zm0.679,0.534l-3.054,0c0,0.255 0.039,0.476 0.115,0.666c0.077,0.189 0.182,0.345 0.315,0.466c0.129,0.118 0.282,0.208 0.459,0.266c0.177,0.06 0.371,0.09 0.584,0.09c0.282,0 0.567,-0.057 0.852,-0.169c0.286,-0.113 0.489,-0.223 0.61,-0.332l0.037,0l0,0.761c-0.234,0.098 -0.474,0.181 -0.72,0.248c-0.245,0.067 -0.502,0.1 -0.771,0.1c-0.689,0 -1.225,-0.186 -1.61,-0.558c-0.387,-0.372 -0.58,-0.901 -0.58,-1.587c0,-0.678 0.185,-1.216 0.555,-1.614c0.37,-0.398 0.857,-0.597 1.46,-0.597c0.56,0 0.99,0.163 1.293,0.489c0.304,0.327 0.455,0.791 0.455,1.392l0,0.379Z" style="fill:#231f20;fill-rule:nonzero;"/><path d="M93.255,27.017c-0.232,0.111 -0.453,0.198 -0.662,0.26c-0.21,0.061 -0.432,0.093 -0.667,0.093c-0.299,0 -0.573,-0.044 -0.823,-0.132c-0.25,-0.088 -0.464,-0.221 -0.643,-0.399c-0.18,-0.178 -0.32,-0.403 -0.419,-0.675c-0.098,-0.273 -0.148,-0.59 -0.148,-0.955c0,-0.677 0.186,-1.209 0.559,-1.595c0.372,-0.386 0.864,-0.578 1.474,-0.578c0.238,0 0.471,0.033 0.7,0.099c0.229,0.068 0.439,0.149 0.629,0.245l0,0.776l-0.037,0c-0.213,-0.165 -0.433,-0.293 -0.659,-0.382c-0.226,-0.089 -0.447,-0.134 -0.662,-0.134c-0.396,0 -0.708,0.133 -0.937,0.399c-0.229,0.266 -0.343,0.657 -0.343,1.17c0,0.5 0.112,0.884 0.335,1.153c0.224,0.268 0.539,0.403 0.945,0.403c0.14,0 0.284,-0.018 0.43,-0.056c0.146,-0.037 0.277,-0.086 0.394,-0.145c0.101,-0.052 0.196,-0.107 0.285,-0.165c0.089,-0.058 0.16,-0.108 0.212,-0.151l0.037,0l0,0.769Z" style="fill:#231f20;fill-rule:nonzero;"/><path d="M97.616,27.277l-0.698,0l0,-2.361c0,-0.19 -0.011,-0.369 -0.033,-0.536c-0.022,-0.167 -0.063,-0.297 -0.123,-0.391c-0.061,-0.104 -0.15,-0.181 -0.267,-0.232c-0.117,-0.051 -0.267,-0.076 -0.453,-0.076c-0.19,0 -0.389,0.047 -0.597,0.141c-0.208,0.094 -0.408,0.214 -0.598,0.36l0,3.095l-0.697,0l0,-5.775l0.697,0l0,2.09c0.218,-0.18 0.443,-0.322 0.676,-0.424c0.232,-0.1 0.471,-0.151 0.716,-0.151c0.448,0 0.789,0.135 1.024,0.404c0.235,0.27 0.353,0.659 0.353,1.165l0,2.691Z" style="fill:#231f20;fill-rule:nonzero;"/><path d="M99.664,27.277l-0.697,0l0,-4.146l0.697,0l0,4.146Zm0.045,-4.839l-0.787,0l0,-0.724l0.787,0l0,0.724Z" style="fill:#231f20;fill-rule:nonzero;"/><path d="M104.007,26.081c0,0.379 -0.157,0.69 -0.469,0.932c-0.314,0.243 -0.74,0.364 -1.282,0.364c-0.307,0 -0.588,-0.037 -0.845,-0.11c-0.256,-0.072 -0.471,-0.152 -0.644,-0.239l0,-0.782l0.038,0c0.219,0.165 0.464,0.296 0.734,0.394c0.269,0.098 0.528,0.147 0.776,0.147c0.307,0 0.546,-0.049 0.72,-0.149c0.173,-0.099 0.26,-0.254 0.26,-0.467c0,-0.164 -0.047,-0.287 -0.142,-0.371c-0.094,-0.084 -0.274,-0.156 -0.541,-0.216c-0.099,-0.022 -0.228,-0.047 -0.388,-0.078c-0.16,-0.029 -0.305,-0.061 -0.436,-0.095c-0.363,-0.097 -0.622,-0.239 -0.774,-0.425c-0.152,-0.188 -0.228,-0.417 -0.228,-0.689c0,-0.171 0.035,-0.332 0.105,-0.482c0.072,-0.151 0.178,-0.286 0.322,-0.405c0.138,-0.117 0.314,-0.208 0.529,-0.277c0.214,-0.067 0.453,-0.101 0.718,-0.101c0.247,0 0.498,0.03 0.751,0.091c0.254,0.06 0.465,0.133 0.633,0.22l0,0.746l-0.038,0c-0.177,-0.131 -0.394,-0.242 -0.649,-0.332c-0.255,-0.091 -0.505,-0.135 -0.749,-0.135c-0.255,0 -0.471,0.048 -0.646,0.146c-0.176,0.098 -0.263,0.243 -0.263,0.437c0,0.169 0.053,0.298 0.159,0.385c0.104,0.087 0.272,0.158 0.505,0.211c0.128,0.03 0.272,0.06 0.433,0.09c0.159,0.029 0.292,0.057 0.398,0.081c0.324,0.074 0.574,0.202 0.75,0.383c0.175,0.183 0.263,0.425 0.263,0.726Z" style="fill:#231f20;fill-rule:nonzero;"/><path d="M108.071,27.017c-0.232,0.111 -0.453,0.198 -0.662,0.26c-0.21,0.061 -0.432,0.093 -0.667,0.093c-0.299,0 -0.573,-0.044 -0.823,-0.132c-0.25,-0.088 -0.464,-0.221 -0.643,-0.399c-0.18,-0.178 -0.32,-0.403 -0.419,-0.675c-0.098,-0.273 -0.148,-0.59 -0.148,-0.955c0,-0.677 0.186,-1.209 0.558,-1.595c0.372,-0.386 0.865,-0.578 1.475,-0.578c0.238,0 0.471,0.033 0.7,0.099c0.229,0.068 0.439,0.149 0.629,0.245l0,0.776l-0.037,0c-0.213,-0.165 -0.433,-0.293 -0.659,-0.382c-0.226,-0.089 -0.447,-0.134 -0.662,-0.134c-0.396,0 -0.708,0.133 -0.937,0.399c-0.229,0.266 -0.344,0.657 -0.344,1.17c0,0.5 0.113,0.884 0.336,1.153c0.224,0.268 0.538,0.403 0.945,0.403c0.14,0 0.284,-0.018 0.43,-0.056c0.146,-0.037 0.277,-0.086 0.394,-0.145c0.101,-0.052 0.196,-0.107 0.285,-0.165c0.089,-0.058 0.16,-0.108 0.212,-0.151l0.037,0l0,0.769Z" style="fill:#231f20;fill-rule:nonzero;"/><path d="M112.431,27.277l-0.697,0l0,-2.361c0,-0.19 -0.012,-0.369 -0.033,-0.536c-0.022,-0.167 -0.063,-0.297 -0.123,-0.391c-0.062,-0.104 -0.15,-0.181 -0.267,-0.232c-0.117,-0.051 -0.267,-0.076 -0.453,-0.076c-0.19,0 -0.389,0.047 -0.597,0.141c-0.208,0.094 -0.408,0.214 -0.598,0.36l0,3.095l-0.697,0l0,-5.775l0.697,0l0,2.09c0.218,-0.18 0.443,-0.322 0.676,-0.424c0.232,-0.1 0.471,-0.151 0.716,-0.151c0.448,0 0.789,0.135 1.024,0.404c0.235,0.27 0.352,0.659 0.352,1.165l0,2.691Z" style="fill:#231f20;fill-rule:nonzero;"/><path d="M116.566,24.743c-0.003,-0.367 -0.095,-0.65 -0.276,-0.851c-0.183,-0.2 -0.459,-0.3 -0.83,-0.3c-0.373,0 -0.671,0.11 -0.893,0.33c-0.221,0.22 -0.346,0.493 -0.376,0.821l2.375,0Zm0.679,0.534l-3.054,0c0,0.255 0.038,0.476 0.114,0.666c0.078,0.189 0.183,0.345 0.316,0.466c0.129,0.118 0.282,0.208 0.459,0.266c0.177,0.06 0.371,0.09 0.584,0.09c0.282,0 0.566,-0.057 0.851,-0.169c0.287,-0.113 0.49,-0.223 0.611,-0.332l0.037,0l0,0.761c-0.234,0.098 -0.475,0.181 -0.72,0.248c-0.245,0.067 -0.502,0.1 -0.771,0.1c-0.689,0 -1.225,-0.186 -1.611,-0.558c-0.386,-0.372 -0.579,-0.901 -0.579,-1.587c0,-0.678 0.185,-1.216 0.555,-1.614c0.37,-0.398 0.856,-0.597 1.46,-0.597c0.559,0 0.99,0.163 1.293,0.489c0.304,0.327 0.455,0.791 0.455,1.392l0,0.379Z" style="fill:#231f20;fill-rule:nonzero;"/><path d="M123.884,23.306c0,-0.158 -0.028,-0.299 -0.083,-0.421c-0.056,-0.123 -0.149,-0.225 -0.277,-0.31c-0.106,-0.072 -0.233,-0.121 -0.379,-0.15c-0.146,-0.029 -0.318,-0.043 -0.515,-0.043l-0.866,0l0,2.085l0.743,0c0.232,0 0.435,-0.02 0.609,-0.06c0.173,-0.041 0.32,-0.118 0.441,-0.229c0.112,-0.103 0.194,-0.223 0.247,-0.358c0.053,-0.135 0.08,-0.306 0.08,-0.514Zm1.718,3.971l-0.954,0l-1.847,-2.197l-1.037,0l0,2.197l-0.734,0l0,-5.526l1.548,0c0.334,0 0.612,0.022 0.835,0.065c0.223,0.044 0.423,0.121 0.6,0.232c0.201,0.126 0.358,0.285 0.47,0.477c0.113,0.191 0.169,0.434 0.169,0.729c0,0.399 -0.1,0.732 -0.301,1c-0.2,0.269 -0.476,0.471 -0.827,0.607l2.078,2.416Z" style="fill:#231f20;fill-rule:nonzero;"/><path d="M128.864,24.743c-0.004,-0.367 -0.095,-0.65 -0.276,-0.851c-0.183,-0.2 -0.459,-0.3 -0.83,-0.3c-0.373,0 -0.671,0.11 -0.893,0.33c-0.221,0.22 -0.347,0.493 -0.376,0.821l2.375,0Zm0.679,0.534l-3.054,0c0,0.255 0.038,0.476 0.114,0.666c0.077,0.189 0.183,0.345 0.316,0.466c0.129,0.118 0.282,0.208 0.459,0.266c0.177,0.06 0.371,0.09 0.584,0.09c0.282,0 0.566,-0.057 0.851,-0.169c0.286,-0.113 0.489,-0.223 0.61,-0.332l0.038,0l0,0.761c-0.235,0.098 -0.476,0.181 -0.72,0.248c-0.245,0.067 -0.502,0.1 -0.771,0.1c-0.689,0 -1.225,-0.186 -1.611,-0.558c-0.387,-0.372 -0.579,-0.901 -0.579,-1.587c0,-0.678 0.185,-1.216 0.555,-1.614c0.37,-0.398 0.856,-0.597 1.46,-0.597c0.559,0 0.99,0.163 1.293,0.489c0.303,0.327 0.455,0.791 0.455,1.392l0,0.379Z" style="fill:#231f20;fill-rule:nonzero;"/><path d="M133.528,25.172c0,-0.499 -0.085,-0.873 -0.256,-1.12c-0.171,-0.247 -0.432,-0.371 -0.787,-0.371c-0.2,0 -0.401,0.043 -0.604,0.13c-0.203,0.087 -0.398,0.2 -0.583,0.341l0,2.349c0.198,0.089 0.368,0.15 0.51,0.182c0.143,0.032 0.304,0.048 0.485,0.048c0.387,0 0.691,-0.131 0.909,-0.393c0.218,-0.262 0.326,-0.651 0.326,-1.166Zm0.72,-0.018c0,0.337 -0.048,0.644 -0.145,0.923c-0.096,0.278 -0.232,0.513 -0.408,0.707c-0.163,0.182 -0.355,0.324 -0.577,0.424c-0.221,0.1 -0.456,0.151 -0.703,0.151c-0.215,0 -0.41,-0.025 -0.584,-0.071c-0.175,-0.047 -0.353,-0.12 -0.533,-0.219l0,1.737l-0.698,0l0,-5.675l0.698,0l0,0.435c0.185,-0.156 0.394,-0.286 0.626,-0.392c0.231,-0.105 0.477,-0.157 0.74,-0.157c0.499,0 0.889,0.189 1.167,0.565c0.278,0.377 0.417,0.902 0.417,1.572Z" style="fill:#231f20;fill-rule:nonzero;"/><path d="M138.772,27.277l-0.698,0l0,-0.46c-0.234,0.185 -0.46,0.328 -0.675,0.427c-0.216,0.098 -0.453,0.148 -0.713,0.148c-0.435,0 -0.774,-0.133 -1.016,-0.399c-0.242,-0.266 -0.364,-0.657 -0.364,-1.171l0,-2.691l0.698,0l0,2.361c0,0.211 0.009,0.39 0.029,0.54c0.021,0.149 0.063,0.278 0.127,0.383c0.066,0.11 0.153,0.189 0.26,0.239c0.105,0.049 0.26,0.074 0.464,0.074c0.179,0 0.378,-0.047 0.591,-0.142c0.214,-0.093 0.413,-0.213 0.599,-0.359l0,-3.096l0.698,0l0,4.146Z" style="fill:#231f20;fill-rule:nonzero;"/><path d="M143.073,25.191c0,-0.494 -0.081,-0.87 -0.245,-1.126c-0.163,-0.256 -0.427,-0.384 -0.79,-0.384c-0.203,0 -0.408,0.044 -0.616,0.132c-0.208,0.088 -0.401,0.201 -0.579,0.339l0,2.375c0.198,0.09 0.368,0.151 0.51,0.185c0.143,0.036 0.304,0.053 0.485,0.053c0.385,0 0.688,-0.127 0.907,-0.381c0.219,-0.254 0.328,-0.651 0.328,-1.193Zm0.72,-0.019c0,0.347 -0.049,0.659 -0.147,0.936c-0.097,0.277 -0.229,0.51 -0.394,0.697c-0.176,0.196 -0.369,0.343 -0.579,0.441c-0.211,0.097 -0.442,0.146 -0.695,0.146c-0.235,0 -0.44,-0.028 -0.616,-0.084c-0.176,-0.056 -0.349,-0.13 -0.519,-0.225l-0.044,0.194l-0.654,0l0,-5.775l0.698,0l0,2.064c0.195,-0.161 0.403,-0.293 0.624,-0.396c0.219,-0.102 0.467,-0.153 0.742,-0.153c0.489,0 0.876,0.188 1.159,0.564c0.283,0.375 0.425,0.907 0.425,1.591Z" style="fill:#231f20;fill-rule:nonzero;"/><rect x="144.888" y="21.502" width="0.698" height="5.775" style="fill:#231f20;fill-rule:nonzero;"/><path d="M147.672,27.277l-0.698,0l0,-4.146l0.698,0l0,4.146Zm0.045,-4.839l-0.787,0l0,-0.724l0.787,0l0,0.724Z" style="fill:#231f20;fill-rule:nonzero;"/><path d="M152.815,27.277l-0.92,0l-1.663,-1.815l-0.452,0.431l0,1.384l-0.698,0l0,-5.775l0.698,0l0,3.704l2.015,-2.075l0.88,0l-1.926,1.915l2.066,2.231Z" style="fill:#231f20;fill-rule:nonzero;"/><path d="M72.525,30.21l-0.847,1.407l-0.842,0l-0.846,-1.407l0.589,0l0.687,0.951l0.684,-0.951l0.575,0Zm0.716,7.204c-0.136,0.058 -0.259,0.114 -0.37,0.167c-0.11,0.051 -0.253,0.106 -0.432,0.163c-0.151,0.046 -0.315,0.087 -0.491,0.12c-0.177,0.034 -0.372,0.05 -0.585,0.05c-0.401,0 -0.765,-0.056 -1.093,-0.168c-0.328,-0.114 -0.613,-0.29 -0.856,-0.53c-0.237,-0.234 -0.422,-0.533 -0.556,-0.896c-0.134,-0.363 -0.2,-0.783 -0.2,-1.263c0,-0.455 0.064,-0.862 0.193,-1.222c0.128,-0.358 0.313,-0.661 0.557,-0.909c0.234,-0.239 0.518,-0.423 0.851,-0.549c0.332,-0.126 0.701,-0.189 1.108,-0.189c0.296,0 0.592,0.036 0.888,0.107c0.296,0.073 0.624,0.199 0.986,0.379l0,0.872l-0.056,0c-0.305,-0.255 -0.607,-0.44 -0.905,-0.556c-0.3,-0.117 -0.62,-0.175 -0.961,-0.175c-0.281,0 -0.532,0.046 -0.756,0.136c-0.224,0.09 -0.424,0.23 -0.599,0.421c-0.171,0.185 -0.304,0.419 -0.399,0.704c-0.095,0.283 -0.143,0.61 -0.143,0.981c0,0.388 0.053,0.722 0.157,1.002c0.106,0.279 0.242,0.507 0.407,0.683c0.174,0.182 0.376,0.318 0.607,0.406c0.232,0.088 0.476,0.132 0.733,0.132c0.353,0 0.685,-0.061 0.995,-0.182c0.308,-0.121 0.598,-0.304 0.868,-0.546l0.052,0l0,0.862Z" style="fill:#231f20;fill-rule:nonzero;"/><path d="M77.015,35.28c-0.003,-0.366 -0.095,-0.65 -0.276,-0.851c-0.183,-0.2 -0.459,-0.3 -0.83,-0.3c-0.374,0 -0.671,0.11 -0.893,0.33c-0.221,0.22 -0.347,0.494 -0.376,0.821l2.375,0Zm0.679,0.534l-3.054,0c0,0.255 0.038,0.476 0.114,0.666c0.077,0.189 0.183,0.345 0.316,0.466c0.129,0.118 0.282,0.208 0.459,0.266c0.176,0.06 0.371,0.09 0.584,0.09c0.282,0 0.566,-0.056 0.851,-0.169c0.286,-0.113 0.489,-0.223 0.611,-0.332l0.037,0l0,0.761c-0.235,0.099 -0.475,0.182 -0.72,0.248c-0.245,0.067 -0.502,0.101 -0.772,0.101c-0.688,0 -1.224,-0.187 -1.61,-0.559c-0.387,-0.372 -0.579,-0.901 -0.579,-1.587c0,-0.678 0.185,-1.216 0.555,-1.614c0.37,-0.398 0.856,-0.597 1.46,-0.597c0.559,0 0.99,0.163 1.293,0.489c0.303,0.328 0.455,0.791 0.455,1.392l0,0.379Z" style="fill:#231f20;fill-rule:nonzero;"/><path d="M81.712,36.619c0,0.379 -0.156,0.689 -0.468,0.931c-0.314,0.243 -0.741,0.364 -1.283,0.364c-0.306,0 -0.588,-0.037 -0.844,-0.11c-0.256,-0.072 -0.471,-0.152 -0.644,-0.239l0,-0.782l0.037,0c0.22,0.165 0.465,0.297 0.734,0.394c0.27,0.098 0.529,0.147 0.777,0.147c0.306,0 0.546,-0.049 0.72,-0.149c0.172,-0.098 0.259,-0.254 0.259,-0.467c0,-0.164 -0.047,-0.287 -0.141,-0.371c-0.094,-0.084 -0.275,-0.156 -0.541,-0.215c-0.1,-0.023 -0.229,-0.048 -0.388,-0.079c-0.16,-0.029 -0.306,-0.061 -0.436,-0.095c-0.364,-0.097 -0.623,-0.239 -0.774,-0.425c-0.152,-0.188 -0.228,-0.417 -0.228,-0.689c0,-0.17 0.035,-0.332 0.105,-0.482c0.071,-0.151 0.178,-0.286 0.321,-0.405c0.139,-0.116 0.315,-0.208 0.53,-0.277c0.213,-0.067 0.453,-0.101 0.717,-0.101c0.247,0 0.498,0.03 0.751,0.091c0.254,0.06 0.465,0.133 0.633,0.22l0,0.746l-0.037,0c-0.178,-0.13 -0.394,-0.242 -0.649,-0.332c-0.255,-0.09 -0.505,-0.135 -0.749,-0.135c-0.255,0 -0.471,0.048 -0.647,0.146c-0.176,0.098 -0.263,0.243 -0.263,0.437c0,0.17 0.053,0.298 0.16,0.385c0.103,0.087 0.272,0.158 0.505,0.211c0.127,0.031 0.272,0.06 0.432,0.09c0.159,0.029 0.292,0.057 0.399,0.081c0.324,0.074 0.574,0.202 0.75,0.383c0.174,0.183 0.262,0.425 0.262,0.727Z" style="fill:#231f20;fill-rule:nonzero;"/><path d="M86.474,37.814l-0.92,0l-1.663,-1.815l-0.452,0.431l0,1.384l-0.698,0l0,-5.775l0.698,0l0,3.705l2.014,-2.076l0.88,0l-1.925,1.915l2.066,2.231Z" style="fill:#231f20;fill-rule:nonzero;"/><path d="M89.989,31.594l-1.013,1.388l-0.553,0l0.664,-1.388l0.902,0Zm-0.252,5.199l0,-1.154c-0.213,0.013 -0.464,0.031 -0.752,0.056c-0.288,0.025 -0.517,0.06 -0.685,0.107c-0.2,0.058 -0.362,0.146 -0.486,0.266c-0.123,0.12 -0.186,0.285 -0.186,0.495c0,0.238 0.073,0.417 0.216,0.536c0.144,0.12 0.362,0.181 0.656,0.181c0.245,0 0.469,-0.048 0.672,-0.144c0.203,-0.095 0.391,-0.209 0.565,-0.343Zm0.693,1.021l-0.693,0l0,-0.441c-0.063,0.041 -0.146,0.1 -0.251,0.175c-0.105,0.076 -0.207,0.136 -0.306,0.181c-0.116,0.057 -0.25,0.104 -0.401,0.143c-0.151,0.038 -0.327,0.057 -0.531,0.057c-0.374,0 -0.69,-0.124 -0.95,-0.371c-0.26,-0.247 -0.389,-0.562 -0.389,-0.946c0,-0.315 0.067,-0.569 0.202,-0.763c0.134,-0.194 0.327,-0.347 0.577,-0.458c0.253,-0.111 0.556,-0.187 0.909,-0.227c0.354,-0.04 0.733,-0.069 1.14,-0.088l0,-0.109c0,-0.158 -0.029,-0.289 -0.084,-0.392c-0.056,-0.105 -0.135,-0.186 -0.24,-0.245c-0.098,-0.057 -0.217,-0.096 -0.356,-0.116c-0.139,-0.019 -0.283,-0.029 -0.434,-0.029c-0.183,0 -0.387,0.023 -0.612,0.072c-0.226,0.048 -0.458,0.118 -0.698,0.209l-0.037,0l0,-0.708c0.136,-0.037 0.333,-0.078 0.591,-0.123c0.256,-0.044 0.51,-0.066 0.76,-0.066c0.291,0 0.546,0.024 0.763,0.072c0.216,0.048 0.403,0.131 0.562,0.247c0.156,0.113 0.274,0.261 0.356,0.442c0.082,0.18 0.122,0.404 0.122,0.671l0,2.813Z" style="fill:#231f20;fill-rule:nonzero;"/><path d="M97.033,34.429l-0.038,0c-0.104,-0.024 -0.205,-0.042 -0.302,-0.054c-0.098,-0.01 -0.214,-0.016 -0.347,-0.016c-0.216,0 -0.424,0.048 -0.624,0.142c-0.2,0.096 -0.394,0.219 -0.579,0.371l0,2.942l-0.697,0l0,-4.146l0.697,0l0,0.613c0.277,-0.223 0.521,-0.38 0.733,-0.473c0.211,-0.093 0.427,-0.14 0.648,-0.14c0.121,0 0.209,0.004 0.263,0.01c0.054,0.006 0.136,0.018 0.246,0.035l0,0.716Z" style="fill:#231f20;fill-rule:nonzero;"/><path d="M100.48,35.28c-0.003,-0.366 -0.094,-0.65 -0.276,-0.851c-0.183,-0.2 -0.46,-0.3 -0.831,-0.3c-0.373,0 -0.671,0.11 -0.892,0.33c-0.221,0.22 -0.347,0.494 -0.376,0.821l2.375,0Zm0.679,0.534l-3.054,0c0,0.255 0.038,0.476 0.114,0.666c0.077,0.189 0.183,0.345 0.316,0.466c0.128,0.118 0.282,0.208 0.459,0.266c0.176,0.06 0.371,0.09 0.583,0.09c0.283,0 0.567,-0.056 0.853,-0.169c0.286,-0.113 0.489,-0.223 0.61,-0.332l0.037,0l0,0.761c-0.234,0.099 -0.475,0.182 -0.72,0.248c-0.245,0.067 -0.502,0.101 -0.772,0.101c-0.688,0 -1.224,-0.187 -1.61,-0.559c-0.387,-0.372 -0.579,-0.901 -0.579,-1.587c0,-0.678 0.184,-1.216 0.555,-1.614c0.37,-0.398 0.856,-0.597 1.459,-0.597c0.56,0 0.991,0.163 1.294,0.489c0.304,0.328 0.455,0.791 0.455,1.392l0,0.379Z" style="fill:#231f20;fill-rule:nonzero;"/><path d="M105.144,35.709c0,-0.499 -0.085,-0.873 -0.256,-1.12c-0.17,-0.247 -0.432,-0.371 -0.787,-0.371c-0.2,0 -0.401,0.043 -0.604,0.13c-0.203,0.087 -0.398,0.2 -0.583,0.341l0,2.35c0.198,0.088 0.368,0.149 0.511,0.181c0.142,0.032 0.303,0.048 0.484,0.048c0.388,0 0.691,-0.131 0.909,-0.393c0.218,-0.262 0.326,-0.651 0.326,-1.166Zm0.72,-0.018c0,0.337 -0.048,0.644 -0.144,0.923c-0.097,0.278 -0.233,0.513 -0.409,0.707c-0.163,0.182 -0.355,0.324 -0.577,0.425c-0.221,0.099 -0.456,0.15 -0.703,0.15c-0.215,0 -0.41,-0.024 -0.584,-0.071c-0.175,-0.047 -0.352,-0.119 -0.533,-0.219l0,1.737l-0.697,0l0,-5.675l0.697,0l0,0.435c0.185,-0.156 0.394,-0.286 0.626,-0.392c0.231,-0.105 0.477,-0.157 0.74,-0.157c0.499,0 0.889,0.189 1.167,0.566c0.278,0.377 0.417,0.901 0.417,1.571Z" style="fill:#231f20;fill-rule:nonzero;"/><path d="M110.388,37.814l-0.698,0l0,-0.46c-0.234,0.185 -0.46,0.328 -0.675,0.427c-0.215,0.098 -0.453,0.148 -0.712,0.148c-0.436,0 -0.775,-0.133 -1.017,-0.399c-0.242,-0.266 -0.363,-0.657 -0.363,-1.171l0,-2.691l0.697,0l0,2.361c0,0.211 0.01,0.39 0.029,0.54c0.021,0.149 0.063,0.278 0.127,0.384c0.067,0.109 0.154,0.188 0.26,0.238c0.105,0.049 0.261,0.074 0.464,0.074c0.18,0 0.378,-0.047 0.592,-0.142c0.213,-0.093 0.413,-0.213 0.598,-0.359l0,-3.096l0.698,0l0,4.146Z" style="fill:#231f20;fill-rule:nonzero;"/><path d="M114.689,35.728c0,-0.494 -0.081,-0.87 -0.245,-1.126c-0.163,-0.256 -0.427,-0.384 -0.79,-0.384c-0.203,0 -0.408,0.044 -0.616,0.132c-0.208,0.088 -0.4,0.201 -0.579,0.339l0,2.375c0.198,0.09 0.368,0.151 0.511,0.185c0.142,0.036 0.303,0.053 0.484,0.053c0.386,0 0.688,-0.127 0.907,-0.381c0.219,-0.254 0.328,-0.651 0.328,-1.193Zm0.72,-0.019c0,0.347 -0.049,0.659 -0.146,0.936c-0.098,0.277 -0.23,0.51 -0.395,0.697c-0.176,0.197 -0.369,0.343 -0.579,0.441c-0.211,0.097 -0.442,0.146 -0.694,0.146c-0.236,0 -0.441,-0.028 -0.617,-0.084c-0.175,-0.056 -0.348,-0.13 -0.519,-0.224l-0.044,0.193l-0.653,0l0,-5.775l0.697,0l0,2.064c0.195,-0.161 0.403,-0.293 0.624,-0.396c0.22,-0.102 0.468,-0.153 0.742,-0.153c0.489,0 0.876,0.188 1.159,0.564c0.283,0.376 0.425,0.907 0.425,1.591Z" style="fill:#231f20;fill-rule:nonzero;"/><rect x="116.505" y="32.039" width="0.697" height="5.775" style="fill:#231f20;fill-rule:nonzero;"/><path d="M119.288,37.814l-0.697,0l0,-4.146l0.697,0l0,4.146Zm0.045,-4.839l-0.787,0l0,-0.724l0.787,0l0,0.724Z" style="fill:#231f20;fill-rule:nonzero;"/><path d="M124.431,37.814l-0.919,0l-1.664,-1.815l-0.452,0.431l0,1.384l-0.698,0l0,-5.775l0.698,0l0,3.705l2.015,-2.076l0.88,0l-1.926,1.915l2.066,2.231Z" style="fill:#231f20;fill-rule:nonzero;"/><path d="M127.694,36.793l0,-1.154c-0.213,0.013 -0.464,0.031 -0.752,0.056c-0.288,0.025 -0.516,0.06 -0.684,0.107c-0.201,0.058 -0.363,0.146 -0.487,0.266c-0.123,0.12 -0.185,0.285 -0.185,0.495c0,0.238 0.072,0.417 0.216,0.536c0.143,0.12 0.362,0.181 0.656,0.181c0.245,0 0.469,-0.048 0.672,-0.144c0.203,-0.095 0.39,-0.209 0.564,-0.343Zm0.694,1.021l-0.694,0l0,-0.441c-0.062,0.041 -0.145,0.1 -0.251,0.175c-0.104,0.076 -0.207,0.136 -0.305,0.181c-0.117,0.057 -0.25,0.104 -0.402,0.143c-0.15,0.038 -0.327,0.057 -0.53,0.057c-0.374,0 -0.691,-0.124 -0.95,-0.371c-0.26,-0.247 -0.39,-0.562 -0.39,-0.946c0,-0.315 0.067,-0.569 0.202,-0.763c0.135,-0.194 0.327,-0.347 0.577,-0.458c0.253,-0.111 0.556,-0.187 0.91,-0.227c0.353,-0.04 0.733,-0.069 1.139,-0.088l0,-0.109c0,-0.158 -0.028,-0.289 -0.084,-0.392c-0.055,-0.105 -0.135,-0.186 -0.239,-0.245c-0.099,-0.057 -0.218,-0.096 -0.357,-0.116c-0.138,-0.019 -0.283,-0.029 -0.433,-0.029c-0.184,0 -0.388,0.023 -0.612,0.072c-0.226,0.048 -0.458,0.118 -0.699,0.209l-0.037,0l0,-0.708c0.137,-0.037 0.333,-0.078 0.591,-0.123c0.257,-0.044 0.511,-0.066 0.761,-0.066c0.291,0 0.546,0.024 0.762,0.072c0.216,0.048 0.404,0.131 0.562,0.247c0.156,0.113 0.274,0.261 0.356,0.442c0.082,0.18 0.123,0.404 0.123,0.671l0,2.813Z" style="fill:#231f20;fill-rule:nonzero;"/><rect x="132.284" y="35.097" width="3.696" height="0.594" style="fill:#231f20;fill-rule:nonzero;"/><path d="M72.989,45.357c0,0.215 -0.051,0.428 -0.151,0.639c-0.1,0.21 -0.241,0.387 -0.422,0.534c-0.197,0.158 -0.427,0.282 -0.691,0.371c-0.264,0.089 -0.581,0.134 -0.952,0.134c-0.399,0 -0.757,-0.037 -1.074,-0.112c-0.319,-0.074 -0.642,-0.184 -0.971,-0.331l0,-0.92l0.052,0c0.28,0.233 0.602,0.412 0.968,0.538c0.367,0.126 0.71,0.19 1.033,0.19c0.455,0 0.809,-0.086 1.062,-0.256c0.254,-0.171 0.381,-0.398 0.381,-0.684c0,-0.244 -0.061,-0.424 -0.181,-0.541c-0.119,-0.116 -0.301,-0.207 -0.547,-0.271c-0.185,-0.049 -0.386,-0.09 -0.603,-0.122c-0.216,-0.032 -0.445,-0.073 -0.688,-0.123c-0.49,-0.104 -0.853,-0.281 -1.089,-0.532c-0.237,-0.251 -0.355,-0.579 -0.355,-0.982c0,-0.463 0.195,-0.842 0.587,-1.138c0.391,-0.295 0.887,-0.443 1.488,-0.443c0.388,0 0.744,0.037 1.069,0.111c0.324,0.075 0.611,0.166 0.861,0.275l0,0.869l-0.053,0c-0.21,-0.179 -0.486,-0.326 -0.829,-0.443c-0.343,-0.119 -0.693,-0.177 -1.052,-0.177c-0.393,0 -0.71,0.082 -0.948,0.245c-0.239,0.163 -0.358,0.373 -0.358,0.631c0,0.229 0.059,0.41 0.178,0.542c0.119,0.131 0.328,0.231 0.627,0.3c0.159,0.035 0.383,0.077 0.675,0.127c0.292,0.048 0.54,0.099 0.742,0.151c0.412,0.109 0.721,0.273 0.928,0.494c0.208,0.22 0.313,0.528 0.313,0.924Z" style="fill:#231f20;fill-rule:nonzero;"/><path d="M77.586,42.789l-1.677,4.145l-0.702,0l-1.666,-4.145l0.757,0l1.284,3.299l1.273,-3.299l0.731,0Z" style="fill:#231f20;fill-rule:nonzero;"/><path d="M81.245,44.864c0,-0.537 -0.104,-0.937 -0.315,-1.198c-0.21,-0.26 -0.502,-0.391 -0.875,-0.391c-0.379,0 -0.673,0.131 -0.882,0.391c-0.209,0.261 -0.313,0.661 -0.313,1.198c0,0.519 0.105,0.913 0.315,1.181c0.21,0.269 0.503,0.403 0.88,0.403c0.371,0 0.662,-0.133 0.873,-0.399c0.212,-0.266 0.317,-0.661 0.317,-1.185Zm0.721,0c0,0.675 -0.174,1.208 -0.519,1.598c-0.347,0.392 -0.811,0.587 -1.392,0.587c-0.587,0 -1.053,-0.195 -1.397,-0.587c-0.345,-0.39 -0.518,-0.923 -0.518,-1.598c0,-0.676 0.173,-1.21 0.518,-1.602c0.344,-0.392 0.81,-0.588 1.397,-0.588c0.581,0 1.045,0.196 1.392,0.588c0.345,0.392 0.519,0.926 0.519,1.602Z" style="fill:#231f20;fill-rule:nonzero;"/><path d="M85.973,44.848c0,-0.494 -0.081,-0.87 -0.245,-1.126c-0.163,-0.256 -0.427,-0.384 -0.79,-0.384c-0.203,0 -0.408,0.044 -0.616,0.132c-0.208,0.088 -0.401,0.201 -0.579,0.339l0,2.375c0.198,0.09 0.368,0.151 0.51,0.186c0.143,0.035 0.304,0.052 0.485,0.052c0.385,0 0.688,-0.127 0.907,-0.381c0.219,-0.253 0.328,-0.651 0.328,-1.193Zm0.72,-0.018c0,0.346 -0.049,0.658 -0.147,0.935c-0.097,0.277 -0.229,0.51 -0.394,0.697c-0.176,0.197 -0.369,0.343 -0.579,0.441c-0.211,0.097 -0.442,0.146 -0.695,0.146c-0.235,0 -0.44,-0.028 -0.616,-0.084c-0.176,-0.055 -0.349,-0.13 -0.519,-0.224l-0.044,0.193l-0.654,0l0,-5.774l0.698,0l0,2.063c0.195,-0.161 0.403,-0.293 0.624,-0.395c0.219,-0.103 0.467,-0.154 0.742,-0.154c0.489,0 0.876,0.188 1.159,0.564c0.283,0.376 0.425,0.907 0.425,1.592Z" style="fill:#231f20;fill-rule:nonzero;"/><path d="M90.593,44.864c0,-0.537 -0.104,-0.937 -0.315,-1.198c-0.21,-0.26 -0.502,-0.391 -0.875,-0.391c-0.379,0 -0.673,0.131 -0.882,0.391c-0.209,0.261 -0.314,0.661 -0.314,1.198c0,0.519 0.106,0.913 0.316,1.181c0.21,0.269 0.503,0.403 0.88,0.403c0.371,0 0.662,-0.133 0.873,-0.399c0.212,-0.266 0.317,-0.661 0.317,-1.185Zm0.721,0c0,0.675 -0.174,1.208 -0.52,1.598c-0.346,0.392 -0.81,0.587 -1.391,0.587c-0.587,0 -1.053,-0.195 -1.398,-0.587c-0.345,-0.39 -0.517,-0.923 -0.517,-1.598c0,-0.676 0.172,-1.21 0.517,-1.602c0.345,-0.392 0.811,-0.588 1.398,-0.588c0.581,0 1.045,0.196 1.391,0.588c0.346,0.392 0.52,0.926 0.52,1.602Z" style="fill:#231f20;fill-rule:nonzero;"/><path d="M95.057,45.914l0,-2.379c-0.188,-0.084 -0.355,-0.142 -0.504,-0.174c-0.148,-0.032 -0.31,-0.049 -0.486,-0.049c-0.392,0 -0.696,0.137 -0.913,0.408c-0.218,0.273 -0.327,0.658 -0.327,1.158c0,0.493 0.084,0.867 0.252,1.122c0.168,0.256 0.438,0.385 0.809,0.385c0.198,0 0.398,-0.044 0.602,-0.132c0.203,-0.088 0.391,-0.201 0.567,-0.339Zm0.698,1.02l-0.698,0l0,-0.435c-0.2,0.174 -0.409,0.309 -0.627,0.406c-0.218,0.095 -0.454,0.144 -0.709,0.144c-0.494,0 -0.887,-0.19 -1.178,-0.571c-0.291,-0.381 -0.436,-0.909 -0.436,-1.585c0,-0.352 0.051,-0.664 0.15,-0.938c0.101,-0.276 0.237,-0.509 0.406,-0.703c0.169,-0.187 0.365,-0.331 0.589,-0.429c0.224,-0.1 0.455,-0.149 0.696,-0.149c0.217,0 0.411,0.023 0.579,0.069c0.168,0.046 0.344,0.117 0.53,0.213l0,-1.796l0.698,0l0,5.774Z" style="fill:#231f20;fill-rule:nonzero;"/><path d="M100.595,46.934l-0.698,0l0,-2.36c0,-0.191 -0.012,-0.369 -0.033,-0.536c-0.023,-0.167 -0.064,-0.297 -0.123,-0.392c-0.062,-0.104 -0.151,-0.181 -0.267,-0.232c-0.117,-0.05 -0.268,-0.076 -0.453,-0.076c-0.191,0 -0.39,0.047 -0.598,0.141c-0.208,0.095 -0.407,0.214 -0.597,0.36l0,3.095l-0.698,0l0,-4.145l0.698,0l0,0.46c0.217,-0.18 0.443,-0.322 0.675,-0.423c0.233,-0.101 0.472,-0.152 0.716,-0.152c0.448,0 0.79,0.135 1.025,0.405c0.235,0.269 0.353,0.658 0.353,1.165l0,2.69Z" style="fill:#231f20;fill-rule:nonzero;"/><path d="M104.695,40.714l-1.013,1.388l-0.552,0l0.664,-1.388l0.901,0Zm0.828,2.075l-2.42,5.674l-0.746,0l0.773,-1.729l-1.652,-3.945l0.757,0l1.273,3.073l1.284,-3.073l0.731,0Z" style="fill:#231f20;fill-rule:nonzero;"/><path d="M112.069,45.739c0,0.379 -0.156,0.689 -0.469,0.931c-0.313,0.244 -0.74,0.365 -1.282,0.365c-0.306,0 -0.588,-0.037 -0.845,-0.111c-0.255,-0.072 -0.47,-0.152 -0.643,-0.239l0,-0.782l0.037,0c0.22,0.165 0.465,0.297 0.734,0.394c0.27,0.098 0.529,0.147 0.777,0.147c0.306,0 0.546,-0.049 0.719,-0.149c0.173,-0.098 0.26,-0.254 0.26,-0.466c0,-0.165 -0.047,-0.288 -0.141,-0.372c-0.094,-0.084 -0.275,-0.156 -0.541,-0.215c-0.1,-0.023 -0.229,-0.048 -0.388,-0.078c-0.16,-0.03 -0.306,-0.062 -0.437,-0.096c-0.363,-0.097 -0.622,-0.238 -0.773,-0.425c-0.152,-0.187 -0.229,-0.417 -0.229,-0.688c0,-0.171 0.036,-0.332 0.106,-0.483c0.071,-0.151 0.178,-0.286 0.321,-0.405c0.139,-0.116 0.315,-0.208 0.53,-0.277c0.213,-0.067 0.453,-0.101 0.717,-0.101c0.247,0 0.498,0.03 0.751,0.091c0.254,0.06 0.465,0.134 0.633,0.22l0,0.747l-0.037,0c-0.178,-0.131 -0.395,-0.243 -0.649,-0.333c-0.255,-0.09 -0.505,-0.135 -0.749,-0.135c-0.255,0 -0.471,0.049 -0.647,0.146c-0.176,0.098 -0.263,0.243 -0.263,0.437c0,0.17 0.053,0.299 0.16,0.386c0.103,0.086 0.272,0.157 0.504,0.21c0.128,0.031 0.273,0.06 0.433,0.09c0.159,0.03 0.292,0.057 0.398,0.081c0.325,0.075 0.575,0.202 0.75,0.383c0.175,0.183 0.263,0.425 0.263,0.727Z" style="fill:#231f20;fill-rule:nonzero;"/><path d="M115.221,46.897c-0.131,0.035 -0.275,0.063 -0.429,0.085c-0.154,0.022 -0.293,0.034 -0.414,0.034c-0.423,0 -0.744,-0.114 -0.965,-0.342c-0.22,-0.227 -0.33,-0.593 -0.33,-1.094l0,-2.205l-0.471,0l0,-0.586l0.471,0l0,-1.191l0.698,0l0,1.191l1.44,0l0,0.586l-1.44,0l0,1.889c0,0.218 0.005,0.388 0.015,0.51c0.009,0.123 0.044,0.237 0.103,0.344c0.055,0.098 0.13,0.171 0.225,0.216c0.096,0.046 0.24,0.07 0.436,0.07c0.114,0 0.233,-0.017 0.356,-0.051c0.124,-0.033 0.213,-0.061 0.267,-0.083l0.038,0l0,0.627Z" style="fill:#231f20;fill-rule:nonzero;"/><path d="M118.843,40.714l-1.013,1.388l-0.553,0l0.664,-1.388l0.902,0Zm-0.252,5.2l0,-1.155c-0.213,0.013 -0.464,0.031 -0.752,0.056c-0.288,0.025 -0.517,0.06 -0.685,0.107c-0.2,0.058 -0.362,0.146 -0.486,0.266c-0.123,0.12 -0.186,0.285 -0.186,0.495c0,0.238 0.073,0.417 0.216,0.536c0.144,0.12 0.362,0.181 0.656,0.181c0.245,0 0.469,-0.048 0.672,-0.144c0.203,-0.094 0.391,-0.209 0.565,-0.342Zm0.693,1.02l-0.693,0l0,-0.441c-0.063,0.042 -0.146,0.1 -0.251,0.175c-0.105,0.077 -0.207,0.136 -0.306,0.181c-0.116,0.057 -0.25,0.105 -0.401,0.143c-0.151,0.038 -0.328,0.057 -0.531,0.057c-0.374,0 -0.69,-0.124 -0.95,-0.371c-0.26,-0.247 -0.389,-0.562 -0.389,-0.946c0,-0.315 0.067,-0.568 0.202,-0.763c0.134,-0.194 0.327,-0.346 0.577,-0.458c0.253,-0.111 0.555,-0.187 0.909,-0.226c0.354,-0.04 0.733,-0.07 1.14,-0.089l0,-0.109c0,-0.158 -0.029,-0.289 -0.084,-0.392c-0.056,-0.105 -0.135,-0.186 -0.24,-0.245c-0.098,-0.057 -0.217,-0.096 -0.356,-0.116c-0.139,-0.019 -0.283,-0.029 -0.434,-0.029c-0.183,0 -0.387,0.024 -0.612,0.072c-0.226,0.048 -0.458,0.119 -0.698,0.209l-0.037,0l0,-0.708c0.136,-0.037 0.333,-0.078 0.591,-0.123c0.256,-0.044 0.51,-0.066 0.76,-0.066c0.291,0 0.546,0.024 0.763,0.072c0.216,0.048 0.403,0.131 0.561,0.247c0.157,0.114 0.275,0.261 0.357,0.442c0.082,0.18 0.122,0.404 0.122,0.672l0,2.812Z" style="fill:#231f20;fill-rule:nonzero;"/><path d="M122.78,46.897c-0.131,0.035 -0.274,0.063 -0.429,0.085c-0.154,0.022 -0.293,0.034 -0.414,0.034c-0.423,0 -0.744,-0.114 -0.965,-0.342c-0.219,-0.227 -0.33,-0.593 -0.33,-1.094l0,-2.205l-0.47,0l0,-0.586l0.47,0l0,-1.191l0.699,0l0,1.191l1.439,0l0,0.586l-1.439,0l0,1.889c0,0.218 0.005,0.388 0.014,0.51c0.01,0.123 0.044,0.237 0.104,0.344c0.054,0.098 0.13,0.171 0.224,0.216c0.096,0.046 0.241,0.07 0.437,0.07c0.113,0 0.232,-0.017 0.355,-0.051c0.124,-0.033 0.213,-0.061 0.268,-0.083l0.037,0l0,0.627Z" style="fill:#231f20;fill-rule:nonzero;"/><path d="M129.754,45.264c0,-0.223 -0.034,-0.399 -0.101,-0.53c-0.066,-0.132 -0.188,-0.243 -0.364,-0.334c-0.118,-0.063 -0.263,-0.103 -0.433,-0.121c-0.169,-0.019 -0.375,-0.028 -0.617,-0.028l-1.154,0l0,2.056l0.972,0c0.322,0 0.585,-0.017 0.79,-0.051c0.207,-0.033 0.373,-0.093 0.505,-0.183c0.139,-0.096 0.241,-0.206 0.305,-0.33c0.063,-0.123 0.097,-0.284 0.097,-0.479Zm-0.472,-2.519c0,-0.134 -0.023,-0.247 -0.066,-0.338c-0.045,-0.092 -0.118,-0.166 -0.216,-0.223c-0.116,-0.066 -0.257,-0.108 -0.424,-0.124c-0.166,-0.017 -0.371,-0.024 -0.615,-0.024l-0.876,0l0,1.595l0.95,0c0.23,0 0.413,-0.011 0.55,-0.035c0.135,-0.023 0.26,-0.072 0.378,-0.146c0.115,-0.075 0.197,-0.17 0.247,-0.288c0.047,-0.118 0.072,-0.256 0.072,-0.417Zm1.235,2.49c0,0.274 -0.051,0.516 -0.155,0.726c-0.105,0.211 -0.244,0.384 -0.42,0.52c-0.207,0.164 -0.435,0.28 -0.685,0.35c-0.248,0.069 -0.565,0.103 -0.948,0.103l-1.959,0l0,-5.525l1.637,0c0.403,0 0.705,0.014 0.905,0.044c0.201,0.03 0.392,0.091 0.576,0.185c0.203,0.107 0.349,0.243 0.441,0.41c0.092,0.167 0.138,0.367 0.138,0.6c0,0.263 -0.068,0.485 -0.202,0.67c-0.132,0.184 -0.311,0.332 -0.534,0.443l0,0.029c0.374,0.078 0.668,0.242 0.884,0.493c0.215,0.251 0.322,0.568 0.322,0.952Z" style="fill:#231f20;fill-rule:nonzero;"/><path d="M134.032,45.914l0,-1.155c-0.213,0.013 -0.464,0.031 -0.752,0.056c-0.288,0.025 -0.517,0.06 -0.684,0.107c-0.201,0.058 -0.363,0.146 -0.487,0.266c-0.123,0.12 -0.185,0.285 -0.185,0.495c0,0.238 0.072,0.417 0.215,0.536c0.144,0.12 0.363,0.181 0.657,0.181c0.245,0 0.468,-0.048 0.672,-0.144c0.203,-0.094 0.39,-0.209 0.564,-0.342Zm0.693,1.02l-0.693,0l0,-0.441c-0.062,0.042 -0.145,0.1 -0.251,0.175c-0.104,0.077 -0.207,0.136 -0.306,0.181c-0.116,0.057 -0.25,0.105 -0.401,0.143c-0.15,0.038 -0.327,0.057 -0.53,0.057c-0.374,0 -0.691,-0.124 -0.95,-0.371c-0.26,-0.247 -0.39,-0.562 -0.39,-0.946c0,-0.315 0.067,-0.568 0.202,-0.763c0.135,-0.194 0.327,-0.346 0.577,-0.458c0.253,-0.111 0.556,-0.187 0.909,-0.226c0.354,-0.04 0.734,-0.07 1.14,-0.089l0,-0.109c0,-0.158 -0.028,-0.289 -0.084,-0.392c-0.056,-0.105 -0.135,-0.186 -0.239,-0.245c-0.099,-0.057 -0.218,-0.096 -0.357,-0.116c-0.138,-0.019 -0.283,-0.029 -0.433,-0.029c-0.184,0 -0.388,0.024 -0.613,0.072c-0.225,0.048 -0.458,0.119 -0.698,0.209l-0.037,0l0,-0.708c0.137,-0.037 0.333,-0.078 0.591,-0.123c0.257,-0.044 0.511,-0.066 0.761,-0.066c0.291,0 0.546,0.024 0.762,0.072c0.216,0.048 0.404,0.131 0.562,0.247c0.156,0.114 0.274,0.261 0.356,0.442c0.082,0.18 0.122,0.404 0.122,0.672l0,2.812Z" style="fill:#231f20;fill-rule:nonzero;"/><path d="M139.595,42.789l-1.678,4.145l-0.701,0l-1.666,-4.145l0.756,0l1.285,3.299l1.272,-3.299l0.732,0Z" style="fill:#231f20;fill-rule:nonzero;"/><path d="M143.253,44.864c0,-0.537 -0.105,-0.937 -0.316,-1.198c-0.21,-0.26 -0.502,-0.391 -0.875,-0.391c-0.379,0 -0.673,0.131 -0.882,0.391c-0.209,0.261 -0.313,0.661 -0.313,1.198c0,0.519 0.105,0.913 0.315,1.181c0.21,0.269 0.503,0.403 0.88,0.403c0.371,0 0.662,-0.133 0.873,-0.399c0.212,-0.266 0.318,-0.661 0.318,-1.185Zm0.72,0c0,0.675 -0.173,1.208 -0.519,1.598c-0.347,0.392 -0.811,0.587 -1.392,0.587c-0.587,0 -1.052,-0.195 -1.397,-0.587c-0.345,-0.39 -0.518,-0.923 -0.518,-1.598c0,-0.676 0.173,-1.21 0.518,-1.602c0.345,-0.392 0.81,-0.588 1.397,-0.588c0.581,0 1.045,0.196 1.392,0.588c0.346,0.392 0.519,0.926 0.519,1.602Z" style="fill:#231f20;fill-rule:nonzero;"/><path d="M147.639,43.549l-0.037,0c-0.104,-0.024 -0.205,-0.042 -0.302,-0.053c-0.098,-0.011 -0.214,-0.017 -0.347,-0.017c-0.216,0 -0.424,0.048 -0.624,0.143c-0.2,0.095 -0.394,0.218 -0.579,0.37l0,2.942l-0.697,0l0,-4.145l0.697,0l0,0.612c0.277,-0.223 0.521,-0.38 0.733,-0.473c0.211,-0.093 0.427,-0.139 0.648,-0.139c0.121,0 0.209,0.003 0.263,0.009c0.054,0.006 0.136,0.018 0.245,0.035l0,0.716Z" style="fill:#231f20;fill-rule:nonzero;"/><path d="M151.257,45.739c0,0.379 -0.157,0.689 -0.469,0.931c-0.314,0.244 -0.74,0.365 -1.282,0.365c-0.307,0 -0.588,-0.037 -0.845,-0.111c-0.256,-0.072 -0.471,-0.152 -0.644,-0.239l0,-0.782l0.038,0c0.219,0.165 0.464,0.297 0.734,0.394c0.269,0.098 0.528,0.147 0.776,0.147c0.307,0 0.546,-0.049 0.72,-0.149c0.173,-0.098 0.26,-0.254 0.26,-0.466c0,-0.165 -0.047,-0.288 -0.142,-0.372c-0.094,-0.084 -0.274,-0.156 -0.541,-0.215c-0.099,-0.023 -0.228,-0.048 -0.388,-0.078c-0.16,-0.03 -0.305,-0.062 -0.436,-0.096c-0.363,-0.097 -0.622,-0.238 -0.774,-0.425c-0.152,-0.187 -0.228,-0.417 -0.228,-0.688c0,-0.171 0.035,-0.332 0.105,-0.483c0.072,-0.151 0.178,-0.286 0.322,-0.405c0.138,-0.116 0.314,-0.208 0.529,-0.277c0.214,-0.067 0.453,-0.101 0.718,-0.101c0.247,0 0.498,0.03 0.751,0.091c0.254,0.06 0.465,0.134 0.633,0.22l0,0.747l-0.038,0c-0.177,-0.131 -0.394,-0.243 -0.649,-0.333c-0.255,-0.09 -0.505,-0.135 -0.749,-0.135c-0.255,0 -0.471,0.049 -0.646,0.146c-0.176,0.098 -0.263,0.243 -0.263,0.437c0,0.17 0.053,0.299 0.159,0.386c0.104,0.086 0.272,0.157 0.505,0.21c0.128,0.031 0.272,0.06 0.433,0.09c0.159,0.03 0.292,0.057 0.398,0.081c0.324,0.075 0.574,0.202 0.75,0.383c0.175,0.183 0.263,0.425 0.263,0.727Z" style="fill:#231f20;fill-rule:nonzero;"/><path d="M156.018,46.934l-0.92,0l-1.663,-1.814l-0.452,0.43l0,1.384l-0.698,0l0,-5.774l0.698,0l0,3.704l2.015,-2.075l0.88,0l-1.926,1.915l2.066,2.23Z" style="fill:#231f20;fill-rule:nonzero;"/><path d="M159.492,44.864c0,-0.537 -0.104,-0.937 -0.315,-1.198c-0.21,-0.26 -0.502,-0.391 -0.875,-0.391c-0.379,0 -0.673,0.131 -0.882,0.391c-0.209,0.261 -0.314,0.661 -0.314,1.198c0,0.519 0.106,0.913 0.316,1.181c0.21,0.269 0.503,0.403 0.88,0.403c0.371,0 0.662,-0.133 0.873,-0.399c0.212,-0.266 0.317,-0.661 0.317,-1.185Zm0.721,0c0,0.675 -0.174,1.208 -0.52,1.598c-0.347,0.392 -0.81,0.587 -1.391,0.587c-0.587,0 -1.053,-0.195 -1.398,-0.587c-0.345,-0.39 -0.517,-0.923 -0.517,-1.598c0,-0.676 0.172,-1.21 0.517,-1.602c0.345,-0.392 0.811,-0.588 1.398,-0.588c0.581,0 1.044,0.196 1.391,0.588c0.346,0.392 0.52,0.926 0.52,1.602Z" style="fill:#231f20;fill-rule:nonzero;"/><path d="M72.569,57.471l-3.741,0l0,-0.775c0.26,-0.223 0.52,-0.446 0.782,-0.668c0.26,-0.223 0.504,-0.445 0.728,-0.664c0.476,-0.461 0.801,-0.826 0.977,-1.097c0.176,-0.271 0.263,-0.563 0.263,-0.878c0,-0.287 -0.094,-0.512 -0.284,-0.674c-0.189,-0.162 -0.453,-0.243 -0.792,-0.243c-0.225,0 -0.469,0.04 -0.731,0.119c-0.263,0.079 -0.519,0.2 -0.769,0.364l-0.037,0l0,-0.78c0.176,-0.086 0.41,-0.165 0.703,-0.237c0.294,-0.071 0.577,-0.107 0.853,-0.107c0.566,0 1.01,0.136 1.332,0.41c0.321,0.273 0.482,0.643 0.482,1.111c0,0.21 -0.026,0.406 -0.08,0.588c-0.053,0.182 -0.132,0.354 -0.235,0.517c-0.097,0.155 -0.21,0.305 -0.34,0.454c-0.13,0.148 -0.287,0.313 -0.473,0.493c-0.265,0.26 -0.538,0.511 -0.82,0.756c-0.282,0.243 -0.546,0.468 -0.791,0.676l2.973,0l0,0.635Z" style="fill:#231f20;fill-rule:nonzero;"/><path d="M76.417,56.391c0.087,-0.2 0.146,-0.435 0.177,-0.707c0.03,-0.27 0.046,-0.597 0.046,-0.978c0,-0.375 -0.016,-0.702 -0.046,-0.979c-0.031,-0.277 -0.091,-0.513 -0.181,-0.705c-0.086,-0.191 -0.204,-0.334 -0.354,-0.431c-0.149,-0.096 -0.342,-0.144 -0.576,-0.144c-0.234,0 -0.426,0.048 -0.577,0.144c-0.153,0.097 -0.274,0.242 -0.363,0.438c-0.084,0.183 -0.141,0.422 -0.172,0.717c-0.031,0.293 -0.046,0.617 -0.046,0.968c0,0.386 0.013,0.708 0.041,0.968c0.027,0.26 0.085,0.493 0.173,0.698c0.082,0.193 0.198,0.34 0.348,0.442c0.149,0.101 0.348,0.152 0.596,0.152c0.232,0 0.425,-0.049 0.578,-0.144c0.153,-0.097 0.272,-0.244 0.356,-0.439Zm0.977,-1.685c0,0.993 -0.155,1.72 -0.466,2.184c-0.31,0.464 -0.793,0.696 -1.445,0.696c-0.663,0 -1.148,-0.235 -1.453,-0.705c-0.306,-0.469 -0.458,-1.192 -0.458,-2.167c0,-0.982 0.154,-1.708 0.463,-2.176c0.309,-0.469 0.792,-0.704 1.448,-0.704c0.662,0 1.146,0.239 1.452,0.714c0.306,0.477 0.459,1.197 0.459,2.158Z" style="fill:#231f20;fill-rule:nonzero;"/><path d="M81.917,57.471l-2.991,0l0,-0.564l1.151,0l0,-3.703l-1.151,0l0,-0.505c0.156,0 0.323,-0.013 0.501,-0.039c0.179,-0.026 0.314,-0.064 0.405,-0.114c0.114,-0.061 0.203,-0.139 0.269,-0.235c0.065,-0.095 0.103,-0.223 0.113,-0.384l0.575,0l0,4.98l1.128,0l0,0.564Z" style="fill:#231f20;fill-rule:nonzero;"/><path d="M85.659,55.323l0,-2.494l-2.142,2.494l2.142,0Zm1.532,0.593l-0.82,0l0,1.555l-0.712,0l0,-1.555l-2.646,0l0,-0.853l2.675,-3.117l0.683,0l0,3.377l0.82,0l0,0.593Z" style="fill:#231f20;fill-rule:nonzero;"/><rect x="89.646" y="54.754" width="3.696" height="0.594" style="fill:#231f20;fill-rule:nonzero;"/><path d="M99.769,57.471l-3.74,0l0,-0.775c0.259,-0.223 0.519,-0.446 0.781,-0.668c0.261,-0.223 0.504,-0.445 0.728,-0.664c0.476,-0.461 0.801,-0.826 0.977,-1.097c0.176,-0.271 0.264,-0.563 0.264,-0.878c0,-0.287 -0.095,-0.512 -0.285,-0.674c-0.189,-0.162 -0.453,-0.243 -0.792,-0.243c-0.225,0 -0.469,0.04 -0.731,0.119c-0.263,0.079 -0.519,0.2 -0.769,0.364l-0.037,0l0,-0.78c0.176,-0.086 0.411,-0.165 0.704,-0.237c0.293,-0.071 0.577,-0.107 0.852,-0.107c0.566,0 1.01,0.136 1.332,0.41c0.321,0.273 0.482,0.643 0.482,1.111c0,0.21 -0.026,0.406 -0.08,0.588c-0.052,0.182 -0.131,0.354 -0.235,0.517c-0.097,0.155 -0.21,0.305 -0.34,0.454c-0.13,0.148 -0.287,0.313 -0.472,0.493c-0.266,0.26 -0.539,0.511 -0.821,0.756c-0.282,0.243 -0.546,0.468 -0.791,0.676l2.973,0l0,0.635Z" style="fill:#231f20;fill-rule:nonzero;"/><path d="M103.618,56.391c0.087,-0.2 0.145,-0.435 0.177,-0.707c0.03,-0.27 0.046,-0.597 0.046,-0.978c0,-0.375 -0.016,-0.702 -0.046,-0.979c-0.032,-0.277 -0.091,-0.513 -0.181,-0.705c-0.086,-0.191 -0.204,-0.334 -0.354,-0.431c-0.15,-0.096 -0.342,-0.144 -0.577,-0.144c-0.233,0 -0.425,0.048 -0.577,0.144c-0.152,0.097 -0.273,0.242 -0.362,0.438c-0.084,0.183 -0.142,0.422 -0.172,0.717c-0.031,0.293 -0.047,0.617 -0.047,0.968c0,0.386 0.014,0.708 0.041,0.968c0.028,0.26 0.085,0.493 0.174,0.698c0.082,0.193 0.197,0.34 0.348,0.442c0.149,0.101 0.347,0.152 0.595,0.152c0.233,0 0.425,-0.049 0.579,-0.144c0.153,-0.097 0.272,-0.244 0.356,-0.439Zm0.977,-1.685c0,0.993 -0.156,1.72 -0.466,2.184c-0.311,0.464 -0.793,0.696 -1.446,0.696c-0.663,0 -1.147,-0.235 -1.453,-0.705c-0.305,-0.469 -0.458,-1.192 -0.458,-2.167c0,-0.982 0.155,-1.708 0.464,-2.176c0.309,-0.469 0.791,-0.704 1.447,-0.704c0.663,0 1.147,0.239 1.453,0.714c0.305,0.477 0.459,1.197 0.459,2.158Z" style="fill:#231f20;fill-rule:nonzero;"/><path d="M109.433,57.471l-3.74,0l0,-0.775c0.26,-0.223 0.52,-0.446 0.781,-0.668c0.261,-0.223 0.504,-0.445 0.729,-0.664c0.476,-0.461 0.801,-0.826 0.977,-1.097c0.175,-0.271 0.263,-0.563 0.263,-0.878c0,-0.287 -0.095,-0.512 -0.284,-0.674c-0.189,-0.162 -0.453,-0.243 -0.792,-0.243c-0.226,0 -0.47,0.04 -0.731,0.119c-0.263,0.079 -0.519,0.2 -0.769,0.364l-0.037,0l0,-0.78c0.176,-0.086 0.41,-0.165 0.703,-0.237c0.294,-0.071 0.577,-0.107 0.853,-0.107c0.566,0 1.009,0.136 1.332,0.41c0.321,0.273 0.482,0.643 0.482,1.111c0,0.21 -0.026,0.406 -0.08,0.588c-0.053,0.182 -0.132,0.354 -0.235,0.517c-0.097,0.155 -0.21,0.305 -0.34,0.454c-0.13,0.148 -0.287,0.313 -0.473,0.493c-0.266,0.26 -0.538,0.511 -0.82,0.756c-0.282,0.243 -0.546,0.468 -0.791,0.676l2.972,0l0,0.635Z" style="fill:#231f20;fill-rule:nonzero;"/><path d="M113.282,56.391c0.087,-0.2 0.146,-0.435 0.177,-0.707c0.03,-0.27 0.046,-0.597 0.046,-0.978c0,-0.375 -0.016,-0.702 -0.046,-0.979c-0.031,-0.277 -0.091,-0.513 -0.181,-0.705c-0.086,-0.191 -0.204,-0.334 -0.354,-0.431c-0.15,-0.096 -0.342,-0.144 -0.577,-0.144c-0.233,0 -0.425,0.048 -0.577,0.144c-0.152,0.097 -0.273,0.242 -0.362,0.438c-0.084,0.183 -0.142,0.422 -0.172,0.717c-0.031,0.293 -0.047,0.617 -0.047,0.968c0,0.386 0.014,0.708 0.041,0.968c0.028,0.26 0.085,0.493 0.174,0.698c0.082,0.193 0.197,0.34 0.348,0.442c0.149,0.101 0.347,0.152 0.595,0.152c0.233,0 0.425,-0.049 0.579,-0.144c0.153,-0.097 0.272,-0.244 0.356,-0.439Zm0.977,-1.685c0,0.993 -0.156,1.72 -0.466,2.184c-0.311,0.464 -0.793,0.696 -1.446,0.696c-0.663,0 -1.147,-0.235 -1.453,-0.705c-0.305,-0.469 -0.458,-1.192 -0.458,-2.167c0,-0.982 0.155,-1.708 0.464,-2.176c0.309,-0.469 0.791,-0.704 1.447,-0.704c0.663,0 1.147,0.239 1.453,0.714c0.305,0.477 0.459,1.197 0.459,2.158Z" style="fill:#231f20;fill-rule:nonzero;"/><path d="M120.337,59l-0.85,0c-0.437,-0.502 -0.778,-1.05 -1.02,-1.644c-0.243,-0.594 -0.364,-1.263 -0.364,-2.008c0,-0.744 0.121,-1.413 0.364,-2.007c0.242,-0.593 0.583,-1.141 1.02,-1.644l0.85,0l0,0.037c-0.2,0.18 -0.392,0.389 -0.574,0.626c-0.181,0.235 -0.35,0.511 -0.505,0.825c-0.149,0.305 -0.27,0.64 -0.363,1.006c-0.092,0.366 -0.138,0.752 -0.138,1.157c0,0.424 0.045,0.811 0.134,1.162c0.091,0.352 0.212,0.686 0.367,1.002c0.148,0.304 0.317,0.579 0.507,0.825c0.191,0.246 0.381,0.455 0.572,0.626l0,0.037Z" style="fill:#231f20;fill-rule:nonzero;"/><path d="M123.573,57.471l-2.182,0l0,-0.564l0.724,0l0,-4.398l-0.724,0l0,-0.563l2.182,0l0,0.563l-0.724,0l0,4.398l0.724,0l0,0.564Z" style="fill:#231f20;fill-rule:nonzero;"/><path d="M129.039,57.471l-0.908,0l-2.62,-4.943l0,4.943l-0.687,0l0,-5.525l1.14,0l2.389,4.512l0,-4.512l0.686,0l0,5.525Z" style="fill:#231f20;fill-rule:nonzero;"/><path d="M134.451,52.599l-1.975,0l0,4.872l-0.734,0l0,-4.872l-1.975,0l0,-0.653l4.684,0l0,0.653Z" style="fill:#231f20;fill-rule:nonzero;"/><path d="M138.834,57.471l-3.641,0l0,-5.525l3.641,0l0,0.653l-2.906,0l0,1.514l2.906,0l0,0.653l-2.906,0l0,2.052l2.906,0l0,0.653Z" style="fill:#231f20;fill-rule:nonzero;"/><path d="M142.852,53.5c0,-0.158 -0.027,-0.298 -0.083,-0.42c-0.055,-0.124 -0.148,-0.226 -0.276,-0.311c-0.106,-0.071 -0.233,-0.121 -0.379,-0.149c-0.146,-0.03 -0.318,-0.043 -0.516,-0.043l-0.865,0l0,2.085l0.742,0c0.233,0 0.436,-0.021 0.61,-0.061c0.173,-0.041 0.32,-0.117 0.441,-0.228c0.112,-0.104 0.194,-0.224 0.246,-0.359c0.054,-0.135 0.08,-0.306 0.08,-0.514Zm1.719,3.971l-0.954,0l-1.848,-2.197l-1.036,0l0,2.197l-0.734,0l0,-5.525l1.548,0c0.334,0 0.612,0.021 0.835,0.064c0.222,0.044 0.423,0.121 0.6,0.233c0.2,0.126 0.358,0.285 0.47,0.476c0.112,0.192 0.169,0.435 0.169,0.73c0,0.398 -0.101,0.731 -0.301,1c-0.2,0.268 -0.476,0.47 -0.827,0.606l2.078,2.416Z" style="fill:#231f20;fill-rule:nonzero;"/><path d="M148.137,53.5c0,-0.158 -0.028,-0.298 -0.083,-0.42c-0.056,-0.124 -0.149,-0.226 -0.277,-0.311c-0.106,-0.071 -0.233,-0.121 -0.379,-0.149c-0.146,-0.03 -0.318,-0.043 -0.515,-0.043l-0.866,0l0,2.085l0.743,0c0.232,0 0.435,-0.021 0.609,-0.061c0.173,-0.041 0.32,-0.117 0.441,-0.228c0.112,-0.104 0.194,-0.224 0.246,-0.359c0.054,-0.135 0.081,-0.306 0.081,-0.514Zm1.718,3.971l-0.954,0l-1.847,-2.197l-1.037,0l0,2.197l-0.734,0l0,-5.525l1.548,0c0.334,0 0.612,0.021 0.835,0.064c0.222,0.044 0.423,0.121 0.6,0.233c0.201,0.126 0.358,0.285 0.47,0.476c0.112,0.192 0.169,0.435 0.169,0.73c0,0.398 -0.1,0.731 -0.301,1c-0.2,0.268 -0.476,0.47 -0.827,0.606l2.078,2.416Z" style="fill:#231f20;fill-rule:nonzero;"/><path d="M154.208,57.471l-3.641,0l0,-5.525l3.641,0l0,0.653l-2.906,0l0,1.514l2.906,0l0,0.653l-2.906,0l0,2.052l2.906,0l0,0.653Z" style="fill:#231f20;fill-rule:nonzero;"/><path d="M159.982,57.063c-0.302,0.139 -0.632,0.259 -0.989,0.361c-0.357,0.104 -0.703,0.155 -1.037,0.155c-0.431,0 -0.825,-0.06 -1.184,-0.178c-0.359,-0.119 -0.665,-0.297 -0.917,-0.534c-0.255,-0.241 -0.451,-0.54 -0.59,-0.901c-0.138,-0.36 -0.208,-0.781 -0.208,-1.263c0,-0.883 0.258,-1.58 0.774,-2.091c0.516,-0.511 1.224,-0.767 2.125,-0.767c0.313,0 0.635,0.038 0.963,0.113c0.328,0.076 0.68,0.205 1.059,0.384l0,0.872l-0.067,0c-0.076,-0.058 -0.188,-0.136 -0.334,-0.233c-0.146,-0.097 -0.289,-0.177 -0.43,-0.241c-0.171,-0.076 -0.364,-0.141 -0.581,-0.192c-0.217,-0.05 -0.462,-0.076 -0.736,-0.076c-0.619,0 -1.109,0.199 -1.468,0.596c-0.36,0.397 -0.54,0.934 -0.54,1.612c0,0.716 0.188,1.272 0.564,1.668c0.376,0.398 0.888,0.596 1.537,0.596c0.237,0 0.473,-0.024 0.71,-0.071c0.236,-0.046 0.443,-0.107 0.622,-0.181l0,-1.355l-1.481,0l0,-0.645l2.208,0l0,2.371Z" style="fill:#231f20;fill-rule:nonzero;"/><path d="M168.294,51.946l-2.011,5.525l-0.98,0l-2.011,-5.525l0.786,0l1.733,4.861l1.734,-4.861l0.749,0Z" style="fill:#231f20;fill-rule:nonzero;"/><path d="M171.17,55.348c0,0.745 -0.121,1.414 -0.364,2.008c-0.243,0.594 -0.583,1.142 -1.02,1.644l-0.85,0l0,-0.037c0.191,-0.171 0.381,-0.38 0.574,-0.626c0.191,-0.246 0.36,-0.521 0.505,-0.825c0.154,-0.316 0.276,-0.65 0.367,-1.002c0.089,-0.351 0.134,-0.738 0.134,-1.162c0,-0.405 -0.045,-0.791 -0.136,-1.157c-0.092,-0.366 -0.213,-0.701 -0.365,-1.006c-0.155,-0.314 -0.324,-0.59 -0.505,-0.825c-0.182,-0.237 -0.373,-0.446 -0.574,-0.626l0,-0.037l0.85,0c0.437,0.503 0.777,1.051 1.02,1.644c0.243,0.594 0.364,1.263 0.364,2.007Z" style="fill:#231f20;fill-rule:nonzero;"/></g></svg>